<svg width="19" height="20" viewBox="0 0 19 20" fill="none" xmlns="http://www.w3.org/2000/svg">
<path d="M9.8435 1.61964L11.5305 3.21457V3.21203L17.1079 8.48654L17.1083 8.48695C17.232 8.60375 17.3305 8.74455 17.3978 8.90073C17.4651 9.05683 17.4999 9.22501 17.5 9.39498C17.5 9.39509 17.5 9.39519 17.5 9.39529V17.75C17.5 18.0815 17.3683 18.3994 17.1339 18.6339C16.8995 18.8683 16.5815 19 16.25 19H14C13.6685 19 13.3505 18.8683 13.1161 18.6339C12.8817 18.3994 12.75 18.0815 12.75 17.75V14C12.75 13.5359 12.5656 13.0907 12.2374 12.7625L11.5303 13.4697L12.2374 12.7625C11.9092 12.4344 11.4641 12.25 11 12.25H8C7.53588 12.25 7.09076 12.4344 6.76256 12.7625C6.43438 13.0907 6.25 13.5359 6.25 14V17.75C6.25 18.0815 6.11831 18.3994 5.88389 18.6339C5.64946 18.8683 5.33152 19 5 19H2.75C2.41862 19 2.10081 18.8684 1.86641 18.6342C1.63209 18.4 1.5003 18.0824 1.5 17.7511L1.5 9.39648L1.5 9.39549C1.49983 9.22533 1.53441 9.05692 1.60161 8.90059C1.66877 8.74436 1.7671 8.60348 1.89058 8.48657C1.89066 8.48649 1.89075 8.48641 1.89083 8.48633L9.15637 1.61977L9.1565 1.61964C9.24934 1.53187 9.37225 1.48297 9.5 1.48297C9.62776 1.48297 9.75067 1.53187 9.8435 1.61964Z" stroke="#0050C8" stroke-width="2"/>
</svg>
