<svg width="14" height="14" viewBox="0 0 14 14" fill="none" xmlns="http://www.w3.org/2000/svg">
<path d="M7.00001 4.91718C5.85314 4.91718 4.9172 5.85311 4.9172 6.99999C4.9172 8.14686 5.85314 9.0828 7.00001 9.0828C8.14689 9.0828 9.08282 8.14686 9.08282 6.99999C9.08282 5.85311 8.14689 4.91718 7.00001 4.91718ZM13.2469 6.99999C13.2469 6.13749 13.2547 5.2828 13.2063 4.42186C13.1578 3.42186 12.9297 2.53436 12.1984 1.80311C11.4656 1.0703 10.5797 0.843739 9.5797 0.795301C8.7172 0.746864 7.86251 0.754676 7.00157 0.754676C6.13907 0.754676 5.28439 0.746864 4.42345 0.795301C3.42345 0.843739 2.53595 1.07186 1.8047 1.80311C1.07189 2.53593 0.845326 3.42186 0.796888 4.42186C0.748451 5.28436 0.756263 6.13905 0.756263 6.99999C0.756263 7.86093 0.748451 8.71718 0.796888 9.57811C0.845326 10.5781 1.07345 11.4656 1.8047 12.1969C2.53751 12.9297 3.42345 13.1562 4.42345 13.2047C5.28595 13.2531 6.14064 13.2453 7.00157 13.2453C7.86407 13.2453 8.71876 13.2531 9.5797 13.2047C10.5797 13.1562 11.4672 12.9281 12.1984 12.1969C12.9313 11.4641 13.1578 10.5781 13.2063 9.57811C13.2563 8.71718 13.2469 7.86249 13.2469 6.99999ZM7.00001 10.2047C5.22657 10.2047 3.79533 8.77343 3.79533 6.99999C3.79533 5.22655 5.22657 3.7953 7.00001 3.7953C8.77345 3.7953 10.2047 5.22655 10.2047 6.99999C10.2047 8.77343 8.77345 10.2047 7.00001 10.2047ZM10.3359 4.41249C9.92189 4.41249 9.58751 4.07811 9.58751 3.66405C9.58751 3.24999 9.92189 2.91561 10.3359 2.91561C10.75 2.91561 11.0844 3.24999 11.0844 3.66405C11.0845 3.76237 11.0652 3.85975 11.0277 3.95061C10.9901 4.04147 10.935 4.12403 10.8654 4.19355C10.7959 4.26307 10.7134 4.3182 10.6225 4.35577C10.5316 4.39334 10.4343 4.41261 10.3359 4.41249Z" fill="#0050C8"/>
</svg>
