<svg width="308" height="308" viewBox="0 0 308 308" fill="none" xmlns="http://www.w3.org/2000/svg">
<path d="M186.197 239.483C211.681 234.49 234.515 222.849 250.454 202.623C275.846 170.417 280.778 110.016 246.654 74.8713C231.003 58.7655 207.721 49.9224 186.941 44.9658C164.606 39.6341 139.331 37.9553 119.296 46.9706C86.9676 61.4959 72.4976 113.81 51.7612 135.703C31.0248 157.595 33.9274 204.203 71.5383 221.422C91.426 230.53 112.495 237.165 133.649 240.406C143.346 241.993 153.176 242.611 162.995 242.251C170.787 241.901 178.542 240.976 186.197 239.483Z" fill="#137EE0"/>
<path opacity="0.7" d="M186.197 239.483C211.681 234.49 234.515 222.849 250.454 202.623C275.846 170.417 280.778 110.016 246.654 74.8713C231.003 58.7655 207.721 49.9224 186.941 44.9658C164.606 39.6341 139.331 37.9553 119.296 46.9706C86.9676 61.4959 72.4976 113.81 51.7612 135.703C31.0248 157.595 33.9274 204.203 71.5383 221.422C91.426 230.53 112.495 237.165 133.649 240.406C143.346 241.993 153.176 242.611 162.995 242.251C170.787 241.901 178.542 240.976 186.197 239.483Z" fill="white"/>
<path d="M229.317 74.4529H131.853V218.827H229.317V74.4529Z" fill="white" stroke="#263238" stroke-width="0.614958" stroke-linecap="round" stroke-linejoin="round"/>
<path d="M229.317 74.4529H226.236V218.827H229.317V74.4529Z" fill="#137EE0" stroke="#263238" stroke-width="0.614958" stroke-linecap="round" stroke-linejoin="round"/>
<path d="M229.317 134.018H226.236V162.318H229.317V134.018Z" fill="white" stroke="#263238" stroke-width="0.614958" stroke-linecap="round" stroke-linejoin="round"/>
<path d="M229.317 74.4529H131.853V85.5898H229.317V74.4529Z" fill="#137EE0" stroke="#263238" stroke-width="0.614958" stroke-linecap="round" stroke-linejoin="round"/>
<path d="M141.846 77.7244H221.631C222.14 77.7244 222.628 77.9265 222.988 78.2863C223.348 78.6462 223.55 79.1342 223.55 79.643V80.6085C223.55 81.1174 223.348 81.6054 222.988 81.9652C222.628 82.325 222.14 82.5272 221.631 82.5272H141.846C141.338 82.5256 140.851 82.3229 140.491 81.9634C140.132 81.604 139.929 81.1169 139.928 80.6085V79.643C139.929 79.1336 140.133 78.6456 140.494 78.286C140.854 77.9263 141.343 77.7244 141.853 77.7244H141.846Z" fill="white" stroke="#263238" stroke-width="0.614958" stroke-linecap="round" stroke-linejoin="round"/>
<path d="M178.184 111.172H137.043V155.578H178.184V111.172Z" fill="#137EE0" stroke="#263238" stroke-width="0.614958" stroke-linecap="round" stroke-linejoin="round"/>
<path d="M178.184 166.537H137.043V210.943H178.184V166.537Z" fill="#137EE0" stroke="#263238" stroke-width="0.614958" stroke-linecap="round" stroke-linejoin="round"/>
<path d="M186.449 111.172H215.475" stroke="#263238" stroke-width="0.614958" stroke-linecap="round" stroke-linejoin="round"/>
<path d="M186.449 123.09H215.475" stroke="#263238" stroke-width="0.614958" stroke-linecap="round" stroke-linejoin="round"/>
<path d="M186.449 126.362H215.475" stroke="#263238" stroke-width="0.614958" stroke-linecap="round" stroke-linejoin="round"/>
<path d="M186.449 129.627H215.475" stroke="#263238" stroke-width="0.614958" stroke-linecap="round" stroke-linejoin="round"/>
<path d="M186.449 132.898H215.475" stroke="#263238" stroke-width="0.614958" stroke-linecap="round" stroke-linejoin="round"/>
<path d="M186.449 136.164H215.475" stroke="#263238" stroke-width="0.614958" stroke-linecap="round" stroke-linejoin="round"/>
<path d="M186.449 139.429H215.475" stroke="#263238" stroke-width="0.614958" stroke-linecap="round" stroke-linejoin="round"/>
<path d="M186.449 142.701H215.475" stroke="#263238" stroke-width="0.614958" stroke-linecap="round" stroke-linejoin="round"/>
<path d="M186.449 145.966H215.475" stroke="#263238" stroke-width="0.614958" stroke-linecap="round" stroke-linejoin="round"/>
<path d="M186.449 149.238H215.475" stroke="#263238" stroke-width="0.614958" stroke-linecap="round" stroke-linejoin="round"/>
<path d="M186.449 152.503H215.475" stroke="#263238" stroke-width="0.614958" stroke-linecap="round" stroke-linejoin="round"/>
<path d="M186.449 114.444H203.17" stroke="#263238" stroke-width="0.614958" stroke-linecap="round" stroke-linejoin="round"/>
<path d="M186.449 166.537H215.475" stroke="#263238" stroke-width="0.614958" stroke-linecap="round" stroke-linejoin="round"/>
<path d="M186.449 178.455H215.475" stroke="#263238" stroke-width="0.614958" stroke-linecap="round" stroke-linejoin="round"/>
<path d="M186.449 181.726H215.475" stroke="#263238" stroke-width="0.614958" stroke-linecap="round" stroke-linejoin="round"/>
<path d="M186.449 184.992H215.475" stroke="#263238" stroke-width="0.614958" stroke-linecap="round" stroke-linejoin="round"/>
<path d="M186.449 188.263H215.475" stroke="#263238" stroke-width="0.614958" stroke-linecap="round" stroke-linejoin="round"/>
<path d="M186.449 191.529H215.475" stroke="#263238" stroke-width="0.614958" stroke-linecap="round" stroke-linejoin="round"/>
<path d="M186.449 194.8H215.475" stroke="#263238" stroke-width="0.614958" stroke-linecap="round" stroke-linejoin="round"/>
<path d="M186.449 198.066H215.475" stroke="#263238" stroke-width="0.614958" stroke-linecap="round" stroke-linejoin="round"/>
<path d="M186.449 201.331H215.475" stroke="#263238" stroke-width="0.614958" stroke-linecap="round" stroke-linejoin="round"/>
<path d="M186.449 204.603H215.475" stroke="#263238" stroke-width="0.614958" stroke-linecap="round" stroke-linejoin="round"/>
<path d="M186.449 207.868H215.475" stroke="#263238" stroke-width="0.614958" stroke-linecap="round" stroke-linejoin="round"/>
<path d="M186.449 169.808H203.17" stroke="#263238" stroke-width="0.614958" stroke-linecap="round" stroke-linejoin="round"/>
<path d="M150.901 103.666H148.774L140.695 91.2993V103.666H138.568V87.6181H140.695L148.796 100.039V87.6181H150.901V103.666ZM163.73 96.248H156.775V101.935H164.854V103.666H154.659V87.6181H164.744V89.3595H156.775V94.5176H163.73V96.248ZM170.949 98.6066L171.258 100.723L171.71 98.816L174.884 87.6181H176.669L179.766 98.816L180.207 100.756L180.549 98.5956L183.04 87.6181H185.167L181.276 103.666H179.348L176.041 91.9716L175.788 90.7482L175.534 91.9716L172.106 103.666H170.178L166.298 87.6181H168.414L170.949 98.6066ZM192.254 96.5125C190.439 95.9908 189.116 95.3516 188.286 94.5948C187.463 93.8306 187.052 92.8901 187.052 91.7733C187.052 90.5094 187.555 89.4661 188.562 88.6431C189.576 87.8128 190.891 87.3977 192.507 87.3977C193.609 87.3977 194.59 87.6108 195.45 88.0369C196.317 88.4631 196.986 89.0509 197.456 89.8004C197.934 90.5499 198.172 91.3691 198.172 92.2582H196.045C196.045 91.2883 195.737 90.5278 195.119 89.9767C194.502 89.4183 193.631 89.1391 192.507 89.1391C191.464 89.1391 190.648 89.3706 190.06 89.8335C189.48 90.289 189.19 90.9246 189.19 91.7402C189.19 92.3941 189.465 92.9489 190.016 93.4044C190.575 93.8527 191.519 94.2641 192.849 94.6389C194.186 95.0136 195.23 95.4287 195.979 95.8843C196.736 96.3325 197.294 96.8579 197.654 97.4604C198.022 98.0629 198.205 98.772 198.205 99.5875C198.205 100.888 197.698 101.931 196.684 102.718C195.67 103.497 194.315 103.886 192.617 103.886C191.515 103.886 190.487 103.677 189.531 103.258C188.576 102.832 187.838 102.251 187.316 101.516C186.802 100.782 186.545 99.9476 186.545 99.0144H188.672C188.672 99.9843 189.028 100.752 189.741 101.318C190.461 101.876 191.42 102.156 192.617 102.156C193.734 102.156 194.59 101.928 195.186 101.472C195.781 101.017 196.078 100.396 196.078 99.6096C196.078 98.8234 195.803 98.2172 195.252 97.791C194.701 97.3575 193.701 96.9313 192.254 96.5125Z" fill="#263238"/>
<path d="M216.114 102.501H177.126V104.893H216.114V102.501Z" fill="#137EE0"/>
<path d="M238.08 257.391C247.502 257.391 255.139 255.354 255.139 252.84C255.139 250.327 247.502 248.29 238.08 248.29C228.659 248.29 221.021 250.327 221.021 252.84C221.021 255.354 228.659 257.391 238.08 257.391Z" fill="#137EE0"/>
<path opacity="0.5" d="M238.08 257.391C247.502 257.391 255.139 255.354 255.139 252.84C255.139 250.327 247.502 248.29 238.08 248.29C228.659 248.29 221.021 250.327 221.021 252.84C221.021 255.354 228.659 257.391 238.08 257.391Z" fill="white"/>
<path d="M212.561 154.668C212.468 154.331 212.447 153.977 212.5 153.631C212.553 153.285 212.678 152.954 212.867 152.66C213.056 152.365 213.305 152.114 213.598 151.921C213.89 151.729 214.22 151.601 214.565 151.544C216.65 151.261 219.214 154.066 220.026 155.763C220.1 155.91 220.93 158.333 220.893 158.333C220.856 158.333 217.203 158.413 215.678 157.755C214.393 157.19 212.911 156.12 212.561 154.668ZM266.203 148.236C265.896 149.693 264.445 150.806 263.172 151.403C261.899 151.999 258.867 152.104 258.147 152.116C257.748 152.596 257.323 153.106 256.862 153.684C256.069 154.705 255.177 155.867 254.298 157.196C254.064 157.546 253.824 157.94 253.584 158.309C254.119 157.768 254.857 157.03 254.937 156.962C256.407 155.794 259.943 154.392 261.702 155.554C261.989 155.755 262.231 156.015 262.411 156.316C262.591 156.617 262.705 156.953 262.746 157.301C262.787 157.649 262.755 158.002 262.65 158.337C262.545 158.672 262.371 158.981 262.138 159.244C261.198 160.394 259.39 160.713 257.987 160.658C256.585 160.603 253.775 159.268 253.172 158.967C252.662 159.803 252.152 160.67 251.672 161.605C250.78 163.3 250.039 165.069 249.458 166.894L249.569 166.949C249.999 166.383 250.928 165.221 251.014 165.104C252.348 163.776 255.706 162.029 257.575 162.964C257.886 163.129 258.157 163.358 258.371 163.636C258.585 163.915 258.737 164.235 258.817 164.577C258.897 164.919 258.903 165.275 258.834 165.619C258.765 165.963 258.623 166.289 258.418 166.574C257.606 167.804 255.847 168.339 254.445 168.419C252.828 168.529 249.489 167.269 249.36 167.22C248.83 169.046 248.419 170.905 248.13 172.785C247.914 174.175 247.748 175.595 247.601 177.016C247.89 176.61 249.114 175.085 249.212 174.986C250.546 173.658 253.904 171.881 255.774 172.846C256.08 173.015 256.347 173.247 256.557 173.525C256.768 173.804 256.918 174.124 256.997 174.465C257.075 174.805 257.082 175.159 257.015 175.502C256.949 175.845 256.811 176.17 256.61 176.456C255.798 177.686 254.039 178.221 252.637 178.301C251.063 178.412 247.859 177.219 247.589 177.114C247.521 177.76 247.447 178.406 247.386 179.058C247.177 181.173 246.98 183.295 246.721 185.385C246.635 186.105 246.519 186.818 246.408 187.532C246.863 186.917 247.712 185.877 247.791 185.797C249.126 184.469 252.484 182.686 254.359 183.651C254.665 183.821 254.933 184.053 255.143 184.332C255.354 184.611 255.504 184.932 255.583 185.273C255.661 185.614 255.668 185.968 255.601 186.311C255.534 186.655 255.396 186.98 255.196 187.267C254.384 188.497 252.625 189.032 251.223 189.112C249.821 189.192 247.097 188.263 246.334 187.987C246.137 189.167 245.922 190.336 245.651 191.48C245.522 191.965 245.424 192.476 245.276 192.937C245.129 193.398 244.993 193.872 244.858 194.333C244.538 195.274 244.243 196.147 243.93 197.014C243.77 197.457 243.61 197.869 243.45 198.293C243.825 197.629 244.428 196.578 244.495 196.492C245.615 194.973 248.659 192.71 250.645 193.38C250.977 193.496 251.28 193.682 251.534 193.925C251.788 194.167 251.987 194.462 252.117 194.788C252.248 195.115 252.307 195.465 252.29 195.816C252.274 196.167 252.183 196.511 252.022 196.824C251.407 198.177 249.747 198.951 248.376 199.283C246.869 199.622 243.622 198.964 243.228 198.884C242.835 199.923 242.441 200.932 242.054 201.866C240.824 204.837 239.717 207.266 238.905 208.957L238.776 209.227H244.68L242.669 249.058C242.595 250.515 241.963 251.887 240.906 252.891C239.848 253.894 238.445 254.453 236.987 254.451C235.529 254.452 234.128 253.892 233.071 252.888C232.015 251.885 231.385 250.514 231.311 249.058L229.244 209.289H235.585C235.585 209.012 235.523 208.717 235.486 208.391C235.277 206.546 234.933 203.926 234.385 200.802C234.225 199.898 234.047 198.958 233.85 197.961C233.438 198.017 230.161 198.435 228.685 197.961C227.344 197.549 225.745 196.651 225.235 195.256C225.098 194.932 225.032 194.582 225.042 194.231C225.052 193.879 225.137 193.534 225.291 193.218C225.445 192.902 225.666 192.623 225.937 192.4C226.209 192.176 226.525 192.013 226.864 191.922C228.906 191.4 231.784 193.89 232.774 195.483C232.842 195.588 233.463 196.879 233.764 197.543C233.641 196.928 233.524 196.362 233.389 195.754C233.199 194.868 232.971 193.909 232.774 193.042L232.387 191.64C232.264 191.16 232.085 190.717 231.938 190.25C231.704 189.567 231.427 188.878 231.157 188.183C230.271 188.429 227.652 189.112 226.305 188.915C224.958 188.719 223.199 188.067 222.486 186.763C222.301 186.464 222.183 186.129 222.139 185.78C222.095 185.431 222.126 185.077 222.23 184.741C222.335 184.406 222.51 184.096 222.744 183.834C222.978 183.572 223.265 183.363 223.587 183.221C225.53 182.397 228.74 184.42 229.97 185.847C230.013 185.89 230.241 186.222 230.511 186.609C230.222 185.945 229.939 185.281 229.626 184.611C228.74 182.729 227.781 180.829 226.821 178.928L226.206 177.735C225.462 177.944 222.634 178.707 221.219 178.498C219.805 178.289 218.114 177.655 217.4 176.352C217.216 176.052 217.098 175.717 217.054 175.368C217.011 175.019 217.042 174.664 217.147 174.329C217.252 173.993 217.428 173.684 217.662 173.422C217.897 173.159 218.185 172.951 218.507 172.81C220.444 171.985 223.661 174.009 224.89 175.435C224.933 175.485 225.204 175.878 225.505 176.315C225.001 175.276 224.509 174.23 224.06 173.178C223.269 171.38 222.6 169.531 222.055 167.644C221.797 167.718 218.495 168.677 216.927 168.449C215.537 168.247 213.852 167.601 213.102 166.297C212.923 165.996 212.81 165.661 212.77 165.313C212.729 164.966 212.762 164.614 212.867 164.28C212.971 163.946 213.144 163.637 213.376 163.375C213.607 163.112 213.891 162.901 214.209 162.755C216.146 161.931 219.362 163.954 220.592 165.381C220.678 165.479 221.656 166.906 221.988 167.429V167.361C221.498 165.493 221.177 163.585 221.028 161.66C220.886 159.942 220.845 158.217 220.905 156.495C220.942 154.896 221.078 153.42 221.201 152.141C221.281 151.446 221.361 150.806 221.441 150.21H221.404C221.404 150.21 220.666 147.75 220.641 147.615C220.327 145.77 220.819 141.988 222.695 141.022C223.01 140.871 223.354 140.787 223.703 140.777C224.053 140.767 224.401 140.83 224.724 140.963C225.048 141.096 225.34 141.295 225.581 141.548C225.823 141.801 226.009 142.101 226.126 142.431C226.674 143.814 226.071 145.548 225.339 146.735C224.608 147.922 222.154 149.681 221.545 150.105C221.471 150.72 221.404 151.384 221.342 152.116C221.238 153.408 221.139 154.865 221.133 156.464C221.133 156.888 221.133 157.343 221.133 157.786C221.274 157.036 221.484 156.009 221.52 155.941C222.099 154.152 224.269 151.022 226.379 151.022C226.728 151.033 227.072 151.118 227.387 151.27C227.702 151.423 227.981 151.639 228.207 151.907C228.433 152.174 228.601 152.485 228.699 152.821C228.797 153.157 228.824 153.51 228.777 153.857C228.623 155.339 227.295 156.599 226.09 157.325C224.884 158.051 221.785 158.487 221.17 158.555C221.201 159.539 221.25 160.541 221.373 161.593C221.569 163.514 221.939 165.414 222.48 167.269H222.597C222.646 166.562 222.781 165.08 222.806 164.963C223.187 163.118 225.001 159.779 227.11 159.551C227.459 159.524 227.809 159.571 228.139 159.688C228.468 159.805 228.769 159.989 229.023 160.23C229.277 160.47 229.477 160.761 229.612 161.084C229.746 161.406 229.812 161.754 229.804 162.103C229.804 163.591 228.629 164.993 227.516 165.848C226.231 166.832 222.75 167.625 222.597 167.656C223.165 169.468 223.851 171.241 224.651 172.963C225.235 174.242 225.881 175.515 226.539 176.788C226.539 176.29 226.735 174.328 226.766 174.205C227.147 172.361 228.961 169.021 231.071 168.794C231.42 168.767 231.771 168.814 232.101 168.931C232.43 169.048 232.732 169.234 232.986 169.475C233.24 169.716 233.44 170.007 233.574 170.331C233.708 170.654 233.773 171.002 233.764 171.352C233.764 172.834 232.59 174.236 231.477 175.091C230.247 176.057 226.889 176.825 226.606 176.893C226.907 177.465 227.221 178.043 227.51 178.621C228.506 180.497 229.515 182.378 230.45 184.266C230.776 184.918 231.065 185.57 231.366 186.228C231.421 185.484 231.544 184.131 231.569 184.014C231.95 182.169 233.77 178.836 235.874 178.609C236.224 178.575 236.577 178.617 236.909 178.731C237.242 178.845 237.546 179.03 237.801 179.271C238.057 179.513 238.257 179.807 238.389 180.133C238.521 180.459 238.582 180.809 238.567 181.161C238.567 182.649 237.393 184.051 236.279 184.906C235.166 185.761 232.374 186.474 231.581 186.665C232.073 187.759 232.534 188.854 232.94 189.955C233.1 190.434 233.297 190.908 233.432 191.375C233.567 191.842 233.715 192.31 233.85 192.771C234.102 193.73 234.342 194.616 234.558 195.526C234.668 195.981 234.767 196.412 234.865 196.854C234.81 196.092 234.736 194.88 234.742 194.77C234.84 192.894 236.126 189.321 238.167 188.774C238.508 188.694 238.861 188.687 239.204 188.753C239.547 188.819 239.873 188.956 240.16 189.155C240.446 189.354 240.688 189.612 240.87 189.911C241.051 190.209 241.167 190.543 241.211 190.889C241.242 191.072 241.254 191.258 241.248 191.443C242.078 192.875 242.525 194.498 242.546 196.153C242.546 196.27 242.349 197.691 242.238 198.416C242.46 197.857 242.687 197.297 242.909 196.713C243.241 195.87 243.561 194.973 243.88 194.106C244.028 193.644 244.176 193.183 244.329 192.716C244.483 192.248 244.588 191.787 244.723 191.314C244.901 190.619 245.055 189.887 245.209 189.161C244.329 188.878 241.771 187.999 240.756 187.095C239.742 186.191 238.635 184.672 238.758 183.19C238.774 182.84 238.864 182.498 239.022 182.185C239.18 181.872 239.402 181.597 239.673 181.375C239.945 181.154 240.26 180.993 240.598 180.902C240.936 180.811 241.29 180.792 241.636 180.847C243.702 181.228 245.27 184.691 245.51 186.554C245.51 186.615 245.51 187.015 245.51 187.489C245.639 186.775 245.768 186.068 245.879 185.336C246.18 183.276 246.42 181.167 246.672 179.051C246.728 178.609 246.789 178.172 246.838 177.729C246.1 177.496 243.321 176.567 242.257 175.614C241.193 174.661 240.135 173.197 240.258 171.715C240.275 171.365 240.365 171.023 240.522 170.71C240.68 170.397 240.902 170.121 241.174 169.9C241.445 169.679 241.76 169.518 242.099 169.427C242.437 169.336 242.79 169.317 243.136 169.372C245.202 169.753 246.771 173.215 247.01 175.079C247.01 175.146 247.01 175.626 247.01 176.161C247.164 175.011 247.336 173.867 247.533 172.742C247.869 170.807 248.334 168.896 248.923 167.023C248.659 166.937 245.381 165.916 244.2 164.864C243.149 163.923 242.072 162.441 242.195 160.959C242.213 160.61 242.303 160.268 242.461 159.956C242.619 159.643 242.841 159.368 243.113 159.147C243.384 158.926 243.699 158.765 244.037 158.673C244.374 158.582 244.728 158.562 245.073 158.616C247.146 158.998 248.708 162.46 248.948 164.323C248.948 164.458 248.997 166.168 248.984 166.783V166.715C249.61 164.89 250.394 163.122 251.327 161.433C252.158 159.923 253.076 158.463 254.076 157.06C254.993 155.744 255.921 154.601 256.727 153.592C257.176 153.051 257.594 152.565 257.994 152.116H257.944C257.908 152.116 258.676 149.656 258.744 149.527C259.506 147.805 261.997 144.933 264.088 145.161C264.44 145.199 264.78 145.312 265.085 145.494C265.389 145.675 265.651 145.921 265.852 146.213C266.053 146.505 266.188 146.837 266.249 147.186C266.309 147.535 266.294 147.893 266.203 148.236ZM242.048 198.785C241.691 198.613 238.924 197.242 237.848 196.08C236.913 196.586 235.95 197.038 234.963 197.432C235.209 198.515 235.437 199.573 235.634 200.569C236.249 203.717 236.661 206.362 236.919 208.219C236.974 208.612 237.017 208.963 237.06 209.289H237.202C237.337 209.012 237.491 208.723 237.663 208.385C238.499 206.737 239.662 204.357 240.929 201.442C241.298 200.606 241.673 199.708 242.048 198.785ZM253.086 158.567C253.117 158.567 253.757 156.107 253.781 155.947C254.039 154.102 253.443 150.333 251.549 149.417C251.23 149.273 250.884 149.199 250.534 149.198C250.184 149.197 249.838 149.269 249.517 149.411C249.197 149.552 248.911 149.76 248.676 150.019C248.441 150.279 248.263 150.584 248.154 150.917C247.644 152.319 248.29 154.029 249.052 155.222C249.95 156.593 253.08 158.567 253.086 158.567Z" fill="#263238"/>
<path d="M124.873 267.63C158.184 267.63 185.188 262.536 185.188 256.253C185.188 249.97 158.184 244.876 124.873 244.876C91.5616 244.876 64.5576 249.97 64.5576 256.253C64.5576 262.536 91.5616 267.63 124.873 267.63Z" fill="#137EE0"/>
<path opacity="0.5" d="M124.873 267.63C158.184 267.63 185.188 262.536 185.188 256.253C185.188 249.97 158.184 244.876 124.873 244.876C91.5616 244.876 64.5576 249.97 64.5576 256.253C64.5576 262.536 91.5616 267.63 124.873 267.63Z" fill="white"/>
<path d="M102.433 208.575H98.7188V226.52H102.433V208.575Z" fill="#263238"/>
<path opacity="0.4" d="M102.433 208.575H98.7188V226.52H102.433V208.575Z" fill="white"/>
<path d="M102.433 208.575H98.7188V226.52H102.433V208.575Z" stroke="#263238" stroke-width="0.614958" stroke-linecap="round" stroke-linejoin="round"/>
<path d="M98.0792 129.627C98.0792 129.627 70.6521 131.552 69.373 133.347C68.0938 135.143 68.9855 139.11 69.9879 142.443C70.9903 145.776 80.885 206.528 83.5723 209.215C86.2597 211.902 91.1363 211.269 96.9046 211.269C102.673 211.269 133.31 210.113 133.31 210.113C133.31 210.113 135.77 210.623 139.337 209.344C142.904 208.065 147.54 206.011 148.18 204.092C148.819 202.174 148.309 198.834 147.663 198.834C147.018 198.834 108.712 196.018 108.712 196.018L98.0792 129.627Z" fill="#263238"/>
<path opacity="0.4" d="M98.0792 129.627C98.0792 129.627 70.6521 131.552 69.373 133.347C68.0938 135.143 68.9855 139.11 69.9879 142.443C70.9903 145.776 80.885 206.528 83.5723 209.215C86.2597 211.902 91.1363 211.269 96.9046 211.269C102.673 211.269 133.31 210.113 133.31 210.113C133.31 210.113 135.77 210.623 139.337 209.344C142.904 208.065 147.54 206.011 148.18 204.092C148.819 202.174 148.309 198.834 147.663 198.834C147.018 198.834 108.712 196.018 108.712 196.018L98.0792 129.627Z" fill="white"/>
<path d="M98.0792 129.627C98.0792 129.627 70.6521 131.552 69.373 133.347C68.0938 135.143 68.9855 139.11 69.9879 142.443C70.9903 145.776 80.885 206.528 83.5723 209.215C86.2597 211.902 91.1363 211.269 96.9047 211.269C102.673 211.269 133.31 210.113 133.31 210.113C133.31 210.113 135.77 210.623 139.337 209.344C142.904 208.065 147.54 206.011 148.18 204.092C148.819 202.174 148.309 198.834 147.663 198.834C147.018 198.834 108.712 196.018 108.712 196.018L98.0792 129.627Z" stroke="#263238" stroke-width="0.614958" stroke-linecap="round" stroke-linejoin="round"/>
<path d="M97.6981 206.78C91.6715 206.78 87.3176 207.167 86.2906 204.32C85.2636 201.473 76.0393 151.901 74.5019 144.724C72.9645 137.548 72.7062 134.344 70.9105 133.446C70.5952 133.322 70.2494 133.297 69.9196 133.375C69.5898 133.453 69.2918 133.63 69.0656 133.882C68.2539 135.85 69.0656 139.417 70.0004 142.418C71.0274 145.751 80.8974 206.503 83.5848 209.19C86.2722 211.878 91.1488 211.244 96.9171 211.244C102.685 211.244 133.31 210.113 133.31 210.113C134.901 210.331 136.52 210.205 138.058 209.744C138.634 209.192 139.028 208.478 139.187 207.697C139.346 206.916 139.264 206.104 138.95 205.371C138.193 203.324 103.719 206.78 97.6981 206.78Z" fill="#263238" stroke="#263238" stroke-width="0.614958" stroke-linecap="round" stroke-linejoin="round"/>
<path d="M131.096 110.988C129.098 104.457 123.366 96.7943 115.808 96.6652C109.29 96.5607 105.969 97.7352 102.667 106.714C99.3644 115.692 88.0184 135.395 88.0184 135.395C88.0184 135.395 88.3874 135.457 89.0208 135.543C88.2582 136.422 87.8278 136.933 87.8278 136.933C87.8278 136.933 83.9843 144.626 80.7127 151.353C77.4411 158.081 79.3659 168.074 84.1749 174.23C88.9839 180.386 93.2086 179.033 97.8208 173.264C102.433 167.496 118.779 125.783 118.779 125.783L124.166 115.52C124.584 116.006 124.916 116.282 125.107 116.227C125.857 116.012 132.271 114.837 131.096 110.988Z" fill="#263238" stroke="#263238" stroke-width="0.614958" stroke-linecap="round" stroke-linejoin="round"/>
<path d="M117.044 97.686C117.044 97.686 125.869 103.836 123.925 106.326" stroke="white" stroke-width="0.461219" stroke-linecap="round" stroke-linejoin="round"/>
<path d="M120.568 105.465C118.467 108.645 116.11 111.648 113.52 114.444C106.639 122.026 92.7039 129.086 91.8184 132.788" stroke="white" stroke-width="0.461219" stroke-linecap="round" stroke-linejoin="round"/>
<path d="M122.16 102.624C121.926 103.145 121.663 103.652 121.373 104.143" stroke="white" stroke-width="0.461219" stroke-linecap="round" stroke-linejoin="round"/>
<path d="M92.5073 129.301C90.9392 131.109 89.8815 132.788 89.7031 134.024" stroke="white" stroke-width="0.461219" stroke-linecap="round" stroke-linejoin="round"/>
<path d="M113.164 98.3933C113.164 98.3933 111.934 97.6923 109.991 104.039C108.048 110.385 102.759 120.267 98.3496 123.797C97.0089 124.864 95.724 125.999 94.5 127.198" stroke="white" stroke-width="0.461219" stroke-linecap="round" stroke-linejoin="round"/>
<path d="M84.2551 154.354C83.2342 158.961 82.4102 165.098 83.8861 169.323C86.5304 176.905 89.8819 175.669 90.4108 172.145C90.9397 168.622 87.951 168.455 87.0593 169.685C86.1676 170.915 88.2892 172.508 88.2892 172.508" stroke="white" stroke-width="0.461219" stroke-linecap="round" stroke-linejoin="round"/>
<path d="M86.0006 147.959C86.0006 147.959 85.5025 149.404 84.9121 151.612" stroke="white" stroke-width="0.461219" stroke-linecap="round" stroke-linejoin="round"/>
<path d="M133.765 177.791C133.765 177.791 145.093 175.546 146.913 177.04C148.733 178.535 147.872 188.159 142.959 190.723C138.045 193.288 126.927 189.868 126.927 189.868L133.765 177.791Z" fill="white" stroke="#263238" stroke-width="0.614958" stroke-linecap="round" stroke-linejoin="round"/>
<path d="M127.246 188.46C127.246 188.46 139.324 192.629 141.034 195.225C142.743 197.82 141.784 211.791 141.354 217.886C140.923 223.98 140.818 242.681 142.528 248.345C144.238 254.008 145.308 257.218 146.378 258.608C147.448 259.998 152.896 262.882 152.472 263.737C152.048 264.592 147.337 264.592 144.773 263.842C142.208 263.091 139.539 260.103 137.295 258.178C135.05 256.253 134.515 256.253 134.515 256.253L135.37 263.018L134.085 262.802C134.085 262.802 133.876 258.424 133.015 256.068C132.154 253.713 130.985 253.4 131.84 251.475C132.695 249.55 136.225 247.305 136.225 247.305C135.967 242.545 135.251 237.821 134.085 233.198C132.16 225.61 129.596 221.76 129.276 212.997C128.956 204.234 130.881 201.454 130.881 201.454L118.053 201.669L127.246 188.46Z" fill="white" stroke="#263238" stroke-width="0.614958" stroke-linecap="round" stroke-linejoin="round"/>
<path d="M144.773 263.817C147.337 264.567 152.042 264.567 152.472 263.713C152.841 262.969 148.782 260.687 146.999 259.193C146.548 259.284 146.088 259.329 145.628 259.328C143.709 259.328 140.284 257.514 136.545 253.449C134.663 251.407 134.189 249.827 134.183 248.757C133.229 249.475 132.431 250.381 131.84 251.42C130.986 253.344 132.16 253.664 133.015 256.013C133.87 258.362 134.085 262.747 134.085 262.747L135.37 262.962L134.515 256.198C134.515 256.198 135.05 256.198 137.295 258.123C139.54 260.047 142.209 263.067 144.773 263.817Z" fill="#263238" stroke="#263238" stroke-width="0.614958" stroke-linecap="round" stroke-linejoin="round"/>
<path d="M140.074 177.04C145.307 176.081 147.337 176.505 148.302 177.895C149.268 179.285 150.971 193.607 151.082 201.307C151.192 209.006 154.925 218.618 155.675 224.712C156.347 229.508 157.79 234.164 159.949 238.499C161.235 241.168 163.264 241.168 164.014 242.349C164.764 243.53 161.235 243.733 159.31 243.733C157.385 243.733 153.216 240.848 152.041 238.499C151.735 237.835 151.292 237.243 150.739 236.764C150.187 236.284 149.538 235.928 148.837 235.72C148.837 235.72 148.517 241.254 148.087 241.494C147.656 241.734 147.337 241.168 147.337 241.168C147.337 241.168 147.337 237.644 147.232 236.039C147.127 234.434 146.162 231.87 146.057 230.591C145.953 229.312 149.692 227.596 149.692 227.596C149.692 227.596 147.847 218.513 146.377 214.682C144.907 210.851 140.074 203.225 137.614 197.352C135.154 191.479 136.999 182.815 136.999 182.815" fill="white"/>
<path d="M140.074 177.04C145.307 176.081 147.337 176.505 148.302 177.895C149.268 179.285 150.971 193.607 151.082 201.307C151.192 209.006 154.925 218.618 155.675 224.712C156.347 229.508 157.79 234.164 159.949 238.499C161.235 241.168 163.264 241.168 164.014 242.349C164.764 243.53 161.235 243.733 159.31 243.733C157.385 243.733 153.216 240.848 152.041 238.499C151.735 237.835 151.292 237.243 150.739 236.764C150.187 236.284 149.538 235.928 148.837 235.72C148.837 235.72 148.517 241.254 148.087 241.494C147.656 241.734 147.337 241.168 147.337 241.168C147.337 241.168 147.337 237.644 147.232 236.039C147.127 234.434 146.162 231.87 146.057 230.591C145.953 229.312 149.692 227.596 149.692 227.596C149.692 227.596 147.847 218.513 146.377 214.682C144.907 210.851 140.074 203.225 137.614 197.352C135.154 191.479 136.999 182.815 136.999 182.815" stroke="#263238" stroke-width="0.614958" stroke-linecap="round" stroke-linejoin="round"/>
<path d="M160.916 239.938C160.398 240.39 159.754 240.671 159.071 240.744C157.576 240.848 154.582 239.139 151.482 234.545C149.225 231.194 148.955 228.924 148.973 227.94C147.897 228.506 145.954 229.656 146.034 230.591C146.138 231.87 147.104 234.434 147.208 236.039C147.313 237.644 147.313 241.168 147.313 241.168C147.313 241.168 147.639 241.703 148.063 241.494C148.487 241.285 148.813 235.72 148.813 235.72C149.515 235.927 150.164 236.282 150.717 236.762C151.27 237.241 151.713 237.834 152.017 238.499C153.192 240.848 157.361 243.733 159.286 243.733C161.211 243.733 164.735 243.523 163.99 242.349C163.443 241.439 162.09 241.224 160.916 239.938Z" fill="#263238" stroke="#263238" stroke-width="0.614958" stroke-linecap="round" stroke-linejoin="round"/>
<path d="M119.019 134.719C119.726 135.102 120.341 135.636 120.821 136.282C121.301 136.927 121.634 137.67 121.798 138.458C122.327 141.133 123.397 168.382 123.717 168.917C124.037 169.452 131.711 175.761 131.711 175.761L129.251 178.645C129.251 178.645 121.343 174.796 118.883 172.766C116.423 170.737 115.464 169.882 115.895 166.352C116.325 162.822 117.493 145.296 117.493 142.627C117.493 139.958 117.413 133.446 119.019 134.719Z" fill="#137EE0" stroke="#263238" stroke-width="0.614958" stroke-linecap="round" stroke-linejoin="round"/>
<path d="M107.482 129.141C107.482 129.141 97.3287 132.88 93.4791 134.27C89.6295 135.66 85.7798 135.34 85.5707 136.514C85.3616 137.689 88.1351 152.762 90.1645 159.065C92.1938 165.368 93.4791 169.329 93.1593 171.364C92.8395 173.4 84.1809 184.407 86.6408 194.45C89.1006 204.492 105.237 204.068 114.855 203.963C124.473 203.859 124.079 203.428 124.079 203.428L136.262 177.458L120.119 179.808C120.119 179.808 113.496 174.888 114.136 172.219C114.775 169.55 117.881 164.095 118.625 161.211C119.369 158.327 120.55 151.808 119.48 147.639C118.41 143.47 120.98 135.881 119.055 134.725C117.13 133.569 109.609 129.141 107.482 129.141Z" fill="#137EE0" stroke="#263238" stroke-width="0.614958" stroke-linecap="round" stroke-linejoin="round"/>
<path d="M92.9561 185.637C92.9561 185.637 97.6974 182.046 103.46 182.815C109.222 183.583 123.2 188.349 123.2 188.349" stroke="#263238" stroke-width="0.614958" stroke-linecap="round" stroke-linejoin="round"/>
<path d="M90.0049 185.508C90.0049 185.508 91.2901 182.686 95.5395 181.536" stroke="#263238" stroke-width="0.614958" stroke-linecap="round" stroke-linejoin="round"/>
<path d="M131.736 175.761C133.095 175.44 134.49 175.291 135.887 175.318C137.113 175.367 138.315 175.677 139.412 176.226C140.51 176.775 141.478 177.552 142.252 178.504C142.252 178.504 142.787 179.875 141.901 179.961C141.016 180.047 139.183 179.002 137.498 178.916C136.387 178.842 135.284 178.673 134.202 178.412C134.202 178.412 136.237 180.097 135.616 180.257C134.995 180.416 133.156 179.463 132.437 179.199C131.717 178.934 130.137 178.67 129.43 177.969C128.723 177.268 131.736 175.761 131.736 175.761Z" fill="white" stroke="#263238" stroke-width="0.614958" stroke-linecap="round" stroke-linejoin="round"/>
<path d="M141.851 179.568C141.107 179.048 140.321 178.59 139.502 178.196C138.715 177.907 136.225 177.452 136.225 177.452" stroke="#263238" stroke-width="0.307479" stroke-linecap="round" stroke-linejoin="round"/>
<path d="M137.345 176.653C137.345 176.653 139.503 177.335 140.383 177.729C141.085 178.139 141.71 178.67 142.227 179.297" stroke="#263238" stroke-width="0.307479" stroke-linecap="round" stroke-linejoin="round"/>
<path d="M103.577 130.457C103.577 130.457 101.117 132.228 103.841 141.133C105.403 146.2 111.43 161.974 111.534 161.119C111.639 160.264 113.139 150.32 113.028 144.872C113.008 140.439 112.288 136.037 110.895 131.829C109.825 128.944 105.717 128.323 103.577 130.457Z" fill="white" stroke="#263238" stroke-width="0.614958" stroke-linecap="round" stroke-linejoin="round"/>
<path d="M102.341 133.114C102.472 134.959 102.795 136.785 103.306 138.562C104.05 140.807 105.12 143.162 105.12 143.162C105.12 143.162 108.755 140.167 109.075 140.167C109.394 140.167 113.029 142.092 113.029 141.662C112.656 138.618 112.014 135.613 111.11 132.683C109.825 128.625 106.424 127.487 104.505 128.994C102.587 130.5 102.341 133.114 102.341 133.114Z" fill="white" stroke="#263238" stroke-width="0.614958" stroke-linecap="round" stroke-linejoin="round"/>
<path d="M108.447 123.926L105.864 131.306C106.043 131.884 106.264 132.597 106.479 133.532C107.334 136.736 109.044 141.01 109.554 141.225C110.064 141.44 109.234 137.591 110.089 134.387C110.944 131.183 112.764 126.472 112.869 126.152L109.339 123.76L108.447 123.926Z" fill="white" stroke="#263238" stroke-width="0.614958" stroke-linecap="round" stroke-linejoin="round"/>
<path d="M122.782 107.384C120.402 110.459 117.174 114.425 114.314 117.402C108.97 122.936 107.974 123.551 108.921 124.086C110.305 125.316 114.492 129.08 116.024 129.799C117.869 130.654 118.588 128.944 121.368 126.38C124.147 123.816 126.712 116.012 126.177 113.552C125.633 111.223 124.458 109.089 122.782 107.384Z" fill="white" stroke="#263238" stroke-width="0.614958" stroke-linecap="round" stroke-linejoin="round"/>
<path d="M122.542 117.617C122.542 117.617 121.367 120.181 121.367 121.676C121.367 123.17 121.687 123.065 121.367 123.176C121.047 123.287 118.907 122.211 118.907 122.211" stroke="#263238" stroke-width="0.614958" stroke-linecap="round" stroke-linejoin="round"/>
<path d="M117.413 124.566C117.413 124.566 115.273 124.24 114.953 122.211" stroke="#263238" stroke-width="0.614958" stroke-linecap="round" stroke-linejoin="round"/>
<path d="M119.098 118.072C118.92 118.509 118.619 118.804 118.428 118.724C118.237 118.644 118.225 118.226 118.428 117.789C118.631 117.352 118.901 117.063 119.092 117.137C119.283 117.211 119.27 117.641 119.098 118.072Z" fill="#263238"/>
<path d="M123.748 119.474C123.925 119.036 123.913 118.619 123.721 118.541C123.529 118.463 123.229 118.755 123.052 119.193C122.875 119.63 122.887 120.048 123.079 120.126C123.271 120.203 123.57 119.912 123.748 119.474Z" fill="#263238"/>
<path d="M117.321 114.837C117.321 114.837 119.455 113.128 120.845 113.983" stroke="#263238" stroke-width="0.614958" stroke-linecap="round" stroke-linejoin="round"/>
<path d="M123.932 115.157C123.932 115.157 125.537 114.942 125.641 116.867" stroke="#263238" stroke-width="0.614958" stroke-linecap="round" stroke-linejoin="round"/>
<path d="M138.155 147.184L140.191 137.455L145.215 136.705L143.296 145.757L138.155 147.184Z" fill="#263238" stroke="#263238" stroke-width="0.614958" stroke-linecap="round" stroke-linejoin="round"/>
<path d="M125.752 156.814L133.464 152.51L135.923 145.843C136.524 145.513 137.226 145.421 137.891 145.585C138.437 145.797 139.015 145.913 139.601 145.929L144.299 144.558C144.299 144.558 144.73 144.3 144.73 145.173C144.73 146.046 144.471 146.366 143.875 147.135C143.278 147.904 143.26 149.017 143.02 150.21C142.78 151.403 141.31 152.264 140.197 152.602C139.084 152.94 135.407 155.252 134.896 155.597C134.386 155.941 126.687 160.295 126.687 160.295L125.752 156.814Z" fill="white" stroke="#263238" stroke-width="0.614958" stroke-linecap="round" stroke-linejoin="round"/>
<path d="M139.626 145.905L136.717 147.098" stroke="#263238" stroke-width="0.614958" stroke-linecap="round" stroke-linejoin="round"/>
<path d="M87.8027 144.122C87.8027 144.122 99.8805 173.64 101.055 174.691C102.23 175.743 128.206 160.504 128.206 160.504L125.537 155.48L105.975 162.005L96.3568 139.663" fill="#137EE0"/>
<path d="M87.8027 144.122C87.8027 144.122 99.8805 173.64 101.055 174.691C102.23 175.743 128.205 160.504 128.205 160.504L125.537 155.48L105.975 162.005L96.3568 139.663" stroke="#263238" stroke-width="0.614958" stroke-linecap="round" stroke-linejoin="round"/>
<path d="M127.044 257.151L109.69 250.7C113.564 249.931 123.729 247.92 124.35 247.92C125.125 247.92 124.479 245.873 124.479 245.873L104.106 247.164V225.493H96.8V246.986L78.8555 246.641L78.5973 248.179L92.1079 250.903L72.0664 259.328V261.247L101.8 253.978L127.173 259.512L127.044 257.151Z" fill="#263238" stroke="#263238" stroke-width="0.614958" stroke-linecap="round" stroke-linejoin="round"/>
<path d="M75.9098 262.341C75.9098 262.684 75.8081 263.019 75.6175 263.305C75.427 263.59 75.1561 263.812 74.8392 263.943C74.5224 264.075 74.1737 264.109 73.8373 264.042C73.5009 263.975 73.1919 263.81 72.9493 263.567C72.7068 263.325 72.5416 263.016 72.4747 262.679C72.4078 262.343 72.4422 261.994 72.5734 261.677C72.7047 261.361 72.9269 261.09 73.2121 260.899C73.4973 260.709 73.8326 260.607 74.1756 260.607C74.4036 260.606 74.6294 260.65 74.8402 260.737C75.051 260.824 75.2425 260.952 75.4037 261.113C75.5649 261.274 75.6926 261.466 75.7794 261.677C75.8663 261.887 75.9106 262.113 75.9098 262.341Z" fill="#263238" stroke="#263238" stroke-width="0.614958" stroke-linecap="round" stroke-linejoin="round"/>
<path d="M127.43 260.675C127.43 261.018 127.329 261.353 127.138 261.638C126.947 261.923 126.677 262.146 126.36 262.277C126.043 262.408 125.694 262.442 125.358 262.375C125.021 262.309 124.712 262.143 124.47 261.901C124.227 261.658 124.062 261.349 123.995 261.013C123.928 260.677 123.963 260.328 124.094 260.011C124.225 259.694 124.447 259.423 124.733 259.233C125.018 259.042 125.353 258.94 125.696 258.94C125.924 258.94 126.15 258.984 126.361 259.071C126.571 259.158 126.763 259.285 126.924 259.447C127.085 259.608 127.213 259.799 127.3 260.01C127.387 260.221 127.431 260.447 127.43 260.675Z" fill="#263238" stroke="#263238" stroke-width="0.614958" stroke-linecap="round" stroke-linejoin="round"/>
<path d="M81.549 249.587C81.5502 249.841 81.4759 250.091 81.3354 250.303C81.1949 250.515 80.9946 250.681 80.7599 250.779C80.5252 250.877 80.2665 250.903 80.0168 250.854C79.7671 250.806 79.5375 250.684 79.3571 250.504C79.1768 250.325 79.0538 250.096 79.0037 249.846C78.9536 249.597 78.9787 249.338 79.0758 249.103C79.1729 248.867 79.3376 248.666 79.5491 248.525C79.7606 248.383 80.0093 248.308 80.2638 248.308C80.6036 248.308 80.9296 248.442 81.1704 248.682C81.4113 248.922 81.5474 249.247 81.549 249.587Z" fill="#263238" stroke="#263238" stroke-width="0.614958" stroke-linecap="round" stroke-linejoin="round"/>
<path d="M124.738 249.2C124.739 249.454 124.664 249.704 124.523 249.916C124.383 250.128 124.182 250.294 123.947 250.392C123.712 250.49 123.453 250.516 123.203 250.467C122.953 250.417 122.724 250.295 122.543 250.114C122.363 249.934 122.241 249.705 122.191 249.455C122.142 249.205 122.168 248.946 122.266 248.711C122.364 248.476 122.53 248.275 122.742 248.134C122.954 247.994 123.204 247.919 123.458 247.92C123.798 247.92 124.123 248.055 124.363 248.295C124.603 248.535 124.738 248.86 124.738 249.2Z" fill="#263238" stroke="#263238" stroke-width="0.614958" stroke-linecap="round" stroke-linejoin="round"/>
</svg>
