<svg width="308" height="206" viewBox="0 0 308 206" fill="none" xmlns="http://www.w3.org/2000/svg">
<path d="M70.8311 31.4612H21.8066V119.531H70.8311V31.4612Z" fill="#EBEBEB"/>
<path d="M68.3675 34.0154H23.7666V116.908H68.3675V34.0154Z" fill="#FAFAFA"/>
<path d="M68.3675 34.9911L23.7666 91.7272V34.0154H68.3675V34.9911Z" fill="#F5F5F5"/>
<path d="M69.335 57.8594H23.7666V58.7408H69.335V57.8594Z" fill="#EBEBEB"/>
<path d="M69.335 77.5996H23.7666V78.4811H69.335V77.5996Z" fill="#EBEBEB"/>
<path d="M69.335 97.3396H23.7666V98.221H69.335V97.3396Z" fill="#EBEBEB"/>
<path d="M44.9414 58.298L44.9414 119.253H47.1963V58.298H44.9414Z" fill="#EBEBEB"/>
<path d="M33.3763 34.0154H32.3555V58.3021H33.3763V34.0154Z" fill="#EBEBEB"/>
<path d="M42.1829 34.0154H41.1621V58.3021H42.1829V34.0154Z" fill="#EBEBEB"/>
<path d="M50.9847 34.0154H49.9639V58.3021H50.9847V34.0154Z" fill="#EBEBEB"/>
<path d="M59.7913 34.0154H58.7705V58.3021H59.7913V34.0154Z" fill="#EBEBEB"/>
<path d="M21.8108 29.9648H19.7363V120.073H21.8108V29.9648Z" fill="#F5F5F5"/>
<path d="M72.9065 120.323L70.832 119.532V29.9648H72.9065V120.323Z" fill="#E0E0E0"/>
<path d="M72.9097 29.0588H19.7363V31.4613H72.9097V29.0588Z" fill="#E0E0E0"/>
<path d="M74.312 120.618H18.2646V122.856H74.312V120.618Z" fill="#E0E0E0"/>
<path d="M70.8313 119.531L74.3079 120.618H18.2646L21.8068 119.531H70.8313Z" fill="#EBEBEB"/>
<path d="M281.717 86.3608C281.717 86.3608 278.249 86.1107 278.569 93.8837C278.888 101.657 279.684 105.798 279.684 105.798C279.684 105.798 279.581 107.524 278.245 107.183C276.908 106.843 274.399 105.166 273.157 106.421C271.915 107.675 272.337 109.7 274.034 112.066C275.732 114.432 279.29 119.7 279.61 120.179C279.93 120.659 280.049 121.532 279.102 121.446C278.155 121.36 271.771 119.195 270.923 122.287C270.074 125.378 275.908 131.146 276.531 131.786C277.154 132.425 277.191 132.835 276.941 133.225C276.691 133.614 274.608 132.684 272.768 132.142C270.927 131.601 268.696 131.294 268.356 133.118C268.016 134.942 270.586 140.284 280.2 145.897L284.825 148.205L289.203 145.413C298.223 138.854 300.223 133.298 299.707 131.515C299.19 129.732 296.997 130.261 295.218 130.982C293.438 131.704 291.466 132.839 291.175 132.479C290.884 132.118 290.876 131.708 291.434 131.007C291.991 130.306 297.214 123.988 296.062 120.995C294.91 118.002 288.777 120.798 287.863 120.975C286.948 121.151 286.965 120.265 287.231 119.765C287.498 119.265 290.511 113.644 291.966 111.135C293.422 108.626 293.684 106.597 292.274 105.433C290.864 104.268 288.584 106.228 287.289 106.699C285.993 107.171 285.723 105.47 285.723 105.47C285.723 105.47 286.096 101.271 285.637 93.5025C285.177 85.7335 281.652 86.3608 281.652 86.3608" fill="#EBEBEB"/>
<path d="M281.988 93.322C281.991 93.3766 281.991 93.4314 281.988 93.486L282.025 93.9616C282.053 94.3715 282.094 95.007 282.148 95.7983C282.254 97.393 282.394 99.7012 282.558 102.55C282.873 108.257 283.246 116.141 283.623 124.849C284.001 133.557 284.357 141.449 284.64 147.151C284.788 150.001 284.903 152.305 284.985 153.908C285.026 154.703 285.054 155.318 285.075 155.749C285.075 155.949 285.075 156.109 285.075 156.224C285.078 156.279 285.078 156.333 285.075 156.388C285.075 156.388 285.075 156.335 285.075 156.224C285.075 156.113 285.075 155.953 285.038 155.749C285.009 155.339 284.964 154.703 284.911 153.912C284.804 152.321 284.669 150.013 284.501 147.16C284.181 141.453 283.812 133.569 283.431 124.857C283.05 116.145 282.701 108.266 282.414 102.559C282.271 99.7135 282.152 97.4053 282.074 95.8024C282.033 95.0111 282 94.392 281.979 93.9657C281.979 93.7607 281.979 93.6008 281.979 93.486C281.979 93.3712 281.988 93.322 281.988 93.322Z" fill="#E0E0E0"/>
<path d="M276.576 108.909C276.681 108.977 276.777 109.057 276.863 109.147C277.044 109.311 277.273 109.557 277.597 109.852C278.208 110.459 279.032 111.316 279.917 112.279C280.803 113.243 281.557 114.087 282.18 114.739L282.869 115.485C282.96 115.57 283.041 115.665 283.111 115.768C283.111 115.768 282.996 115.694 282.82 115.534C282.644 115.374 282.41 115.124 282.09 114.825C281.484 114.214 280.676 113.345 279.786 112.365L277.511 109.905C277.236 109.614 277.007 109.364 276.818 109.159C276.728 109.085 276.647 109.001 276.576 108.909Z" fill="#E0E0E0"/>
<path d="M283.566 115.633C283.533 115.6 285.226 113.829 287.346 111.676C289.465 109.524 291.216 107.81 291.249 107.847C291.282 107.884 289.609 109.651 287.473 111.803C285.337 113.956 283.603 115.67 283.566 115.633Z" fill="#E0E0E0"/>
<path d="M283.55 129.035C283.649 128.955 283.756 128.887 283.87 128.83L284.776 128.321C285.538 127.911 286.592 127.296 287.727 126.599C288.863 125.903 289.876 125.238 290.597 124.75L291.458 124.172C291.559 124.092 291.671 124.027 291.79 123.98C291.702 124.072 291.604 124.156 291.499 124.23C291.306 124.382 291.024 124.595 290.679 124.853C289.97 125.365 288.97 126.05 287.809 126.751C286.649 127.452 285.604 128.03 284.825 128.432C284.415 128.633 284.116 128.789 283.89 128.891C283.783 128.953 283.669 129.001 283.55 129.035Z" fill="#E0E0E0"/>
<path d="M275.887 124.332C275.999 124.371 276.106 124.422 276.207 124.484C276.408 124.591 276.695 124.75 277.027 124.947C277.732 125.357 278.7 125.911 279.761 126.542C280.823 127.173 281.779 127.772 282.467 128.182C282.812 128.399 283.086 128.571 283.287 128.698C283.391 128.755 283.486 128.825 283.57 128.908C283.458 128.869 283.351 128.819 283.25 128.756C283.049 128.649 282.762 128.489 282.43 128.293C281.729 127.883 280.762 127.329 279.7 126.698C278.638 126.066 277.683 125.468 276.994 125.058C276.65 124.845 276.375 124.668 276.174 124.541C275.973 124.414 275.879 124.357 275.887 124.332Z" fill="#E0E0E0"/>
<path d="M274.366 136.176C274.511 136.224 274.648 136.29 274.776 136.373L275.854 136.968C276.76 137.472 278.003 138.197 279.372 138.98C280.741 139.764 281.975 140.51 282.865 141.03L283.91 141.674C284.044 141.746 284.169 141.832 284.283 141.932C284.141 141.879 284.004 141.813 283.873 141.736L282.795 141.141C281.893 140.633 280.647 139.911 279.278 139.124C277.908 138.337 276.674 137.599 275.789 137.074L274.739 136.43C274.608 136.356 274.483 136.271 274.366 136.176Z" fill="#E0E0E0"/>
<path d="M284.083 141.74C284.209 141.634 284.347 141.544 284.493 141.469L285.616 140.784C286.567 140.206 287.875 139.403 289.306 138.476C290.737 137.55 291.991 136.685 292.902 136.049L293.984 135.299C294.11 135.198 294.248 135.111 294.394 135.041C294.278 135.153 294.155 135.257 294.025 135.352C293.779 135.545 293.422 135.82 292.975 136.152C292.082 136.812 290.827 137.701 289.4 138.612C287.974 139.522 286.658 140.325 285.711 140.875C285.227 141.149 284.833 141.367 284.554 141.514C284.404 141.603 284.246 141.678 284.083 141.74Z" fill="#E0E0E0"/>
<path d="M291.032 149.722H278.236L282.414 181.331H286.858L291.032 149.722Z" fill="#E0E0E0"/>
<path d="M278.9 153.604C278.9 153.604 278.9 153.649 278.97 153.719C279.054 153.816 279.159 153.892 279.278 153.94C279.501 154.017 279.739 154.042 279.974 154.013C280.208 153.984 280.433 153.902 280.63 153.772C281.147 153.489 281.598 152.928 282.27 152.682C283.037 152.435 283.863 152.451 284.62 152.727C285.392 152.989 286.128 153.346 286.813 153.789C287.383 154.147 287.978 154.467 288.592 154.744C289.011 154.932 289.454 155.06 289.908 155.125C290.032 155.143 290.156 155.152 290.281 155.15C290.363 155.15 290.408 155.15 290.408 155.15C289.802 155.057 289.211 154.879 288.654 154.621C288.054 154.328 287.472 153.999 286.911 153.637C286.219 153.178 285.471 152.811 284.685 152.542C283.884 152.253 283.008 152.242 282.201 152.514C281.859 152.652 281.542 152.848 281.266 153.092C281.034 153.296 280.789 153.485 280.532 153.658C280.355 153.78 280.153 153.863 279.941 153.9C279.729 153.938 279.511 153.929 279.302 153.875C279.152 153.812 279.015 153.72 278.9 153.604Z" fill="#F5F5F5"/>
<path d="M279.368 159.43C279.368 159.43 279.471 159.299 279.672 159.09C279.96 158.801 280.308 158.58 280.692 158.442C281.262 158.235 281.867 158.143 282.472 158.171C283.219 158.23 283.962 158.331 284.698 158.475C285.449 158.621 286.217 158.653 286.977 158.569C287.598 158.489 288.203 158.316 288.773 158.057C289.156 157.885 289.517 157.671 289.851 157.417C289.979 157.332 290.094 157.228 290.191 157.11C289.719 157.42 289.225 157.694 288.711 157.93C288.151 158.164 287.56 158.319 286.957 158.389C286.213 158.456 285.464 158.419 284.731 158.278C283.986 158.132 283.233 158.034 282.476 157.987C281.848 157.968 281.223 158.078 280.639 158.311C280.243 158.47 279.891 158.72 279.61 159.041C279.536 159.13 279.472 159.226 279.417 159.328C279.395 159.358 279.378 159.393 279.368 159.43Z" fill="#F5F5F5"/>
<path d="M289.585 162.546C289.48 162.462 289.36 162.4 289.232 162.361C288.891 162.236 288.533 162.16 288.17 162.136C287.634 162.102 287.096 162.132 286.567 162.226C285.973 162.324 285.337 162.488 284.661 162.636C284.036 162.781 283.396 162.853 282.754 162.849C282.234 162.836 281.721 162.725 281.242 162.521C280.804 162.319 280.414 162.029 280.094 161.668C280.142 161.793 280.216 161.906 280.311 162.001C280.553 162.277 280.848 162.5 281.18 162.656C281.671 162.888 282.204 163.019 282.746 163.042C283.404 163.058 284.061 162.989 284.702 162.837C285.382 162.693 286.018 162.525 286.6 162.427C287.115 162.328 287.638 162.284 288.162 162.296C288.645 162.319 289.123 162.403 289.585 162.546Z" fill="#F5F5F5"/>
<path d="M280.5 166.928C280.887 166.762 281.317 166.719 281.729 166.805C282.18 166.915 282.616 167.078 283.029 167.289C283.559 167.545 284.132 167.702 284.718 167.752C285.787 167.849 286.859 167.6 287.777 167.043C288.052 166.877 288.308 166.68 288.539 166.457C288.695 166.293 288.773 166.199 288.765 166.186C288.425 166.45 288.071 166.694 287.703 166.916C286.798 167.415 285.764 167.634 284.735 167.543C283.525 167.478 282.594 166.752 281.754 166.658C281.431 166.601 281.099 166.63 280.791 166.74C280.586 166.826 280.491 166.92 280.5 166.928Z" fill="#F5F5F5"/>
<path d="M281.213 172.996C281.58 173.005 281.944 172.932 282.279 172.783C282.923 172.57 283.718 172.078 284.649 171.709C285.08 171.532 285.54 171.435 286.006 171.422C286.385 171.422 286.759 171.508 287.1 171.672C287.41 171.838 287.68 172.071 287.891 172.352C287.874 172.254 287.832 172.163 287.768 172.086C287.615 171.859 287.41 171.672 287.17 171.541C286.813 171.347 286.415 171.24 286.01 171.229C285.518 171.23 285.03 171.326 284.575 171.512C283.611 171.897 282.841 172.406 282.226 172.647C281.611 172.889 281.209 172.963 281.213 172.996Z" fill="#F5F5F5"/>
<path d="M281.84 175.821C282.099 175.946 282.375 176.035 282.66 176.083C283.326 176.244 284.003 176.358 284.685 176.423C285.366 176.491 286.051 176.512 286.735 176.485C287.02 176.494 287.305 176.459 287.579 176.382C287.579 176.321 286.284 176.382 284.71 176.214C283.135 176.046 281.856 175.759 281.84 175.821Z" fill="#F5F5F5"/>
<path d="M283.771 35.0813H244.266V61.0571H283.771V35.0813Z" fill="#E0E0E0"/>
<path d="M282.377 36.1431H245.64V59.8928H282.377V36.1431Z" fill="#FAFAFA"/>
<path d="M270 44.8018H258.017V51.3367H270V44.8018Z" fill="#E0E0E0"/>
<path d="M294.872 181.749C294.872 181.811 231.679 181.856 153.748 181.856C75.816 181.856 12.6064 181.811 12.6064 181.749C12.6064 181.688 75.7873 181.643 153.748 181.643C231.708 181.643 294.872 181.692 294.872 181.749Z" fill="#263238"/>
<path d="M118.934 16.2021H203.531V96.774C203.531 98.5376 202.831 100.229 201.584 101.476C200.337 102.723 198.645 103.424 196.882 103.424H118.934V16.2021Z" fill="#EBEBEB"/>
<path d="M196.545 42.1616C196.545 42.3379 181.257 42.4813 162.398 42.4813C143.539 42.4813 128.243 42.3379 128.243 42.1616C128.243 41.9853 143.531 41.8418 162.398 41.8418C181.265 41.8418 196.545 41.9853 196.545 42.1616Z" fill="#455A64"/>
<path d="M162.8 48.0776C162.8 48.2539 155.249 48.3974 145.93 48.3974C136.611 48.3974 129.056 48.2539 129.056 48.0776C129.056 47.9013 136.611 47.7578 145.93 47.7578C155.249 47.7578 162.8 47.8931 162.8 48.0776Z" fill="#455A64"/>
<path d="M176.289 47.5241C176.289 47.7004 174.288 47.8439 171.82 47.8439C169.352 47.8439 167.352 47.7004 167.352 47.5241C167.352 47.3478 169.352 47.2043 171.82 47.2043C174.288 47.2043 176.289 47.3478 176.289 47.5241Z" fill="#455A64"/>
<path d="M198.369 47.1591C198.369 47.3354 194.409 47.4789 189.522 47.4789C184.635 47.4789 180.675 47.3354 180.675 47.1591C180.675 46.9828 184.635 46.8394 189.522 46.8394C194.409 46.8394 198.369 46.9828 198.369 47.1591Z" fill="#455A64"/>
<path d="M159.983 53.7229C159.983 53.9032 152.878 54.0467 144.113 54.0467C135.348 54.0467 128.243 53.9032 128.243 53.7229C128.243 53.5425 135.348 53.4031 144.113 53.4031C152.878 53.4031 159.983 53.5466 159.983 53.7229Z" fill="#455A64"/>
<path d="M198.37 53.5629C198.37 53.7392 190.613 53.8827 181.044 53.8827C171.476 53.8827 163.715 53.7392 163.715 53.5629C163.715 53.3867 171.472 53.2432 181.044 53.2432C190.617 53.2432 198.37 53.3826 198.37 53.5629Z" fill="#455A64"/>
<path d="M198.369 59.2533C198.369 59.4296 194.917 59.5731 190.653 59.5731C186.389 59.5731 182.938 59.4296 182.938 59.2533C182.938 59.077 186.394 58.9294 190.653 58.9294C194.913 58.9294 198.369 59.0729 198.369 59.2533Z" fill="#455A64"/>
<path d="M166.449 35.8276C166.449 36.0039 158.078 36.1474 147.754 36.1474C137.431 36.1474 129.056 36.0039 129.056 35.8276C129.056 35.6513 137.427 35.5078 147.754 35.5078C158.082 35.5078 166.449 35.6513 166.449 35.8276Z" fill="#137EE0"/>
<path d="M218.463 65.0586H54.6667C51.3677 65.0586 48.6934 67.7329 48.6934 71.0319V175.3C48.6934 178.599 51.3677 181.273 54.6667 181.273H218.463C221.762 181.273 224.436 178.599 224.436 175.3V71.0319C224.436 67.7329 221.762 65.0586 218.463 65.0586Z" fill="#263238"/>
<path d="M41.5879 172.676H231.987V175.546C231.987 177.481 231.218 179.338 229.85 180.706C228.481 182.075 226.625 182.844 224.69 182.844H48.8854C46.95 182.844 45.0938 182.075 43.7253 180.706C42.3567 179.338 41.5879 177.481 41.5879 175.546V172.676Z" fill="#263238"/>
<path d="M219.467 69.6748H53.6533V167.818H219.467V69.6748Z" fill="#455A64"/>
<path d="M119.482 172.676H120.224H122.389L130.42 172.644L157.286 172.586H157.483L157.384 172.758L156.318 174.587L155.191 176.518L155.158 176.575H155.093L121.844 176.514H121.815V176.489L120.073 173.656L119.634 172.939L119.495 172.701C119.495 172.701 119.556 172.787 119.659 172.951L120.126 173.668C120.536 174.304 121.126 175.23 121.901 176.432L121.856 176.407L155.105 176.346L155.007 176.403L156.134 174.472L157.2 172.644L157.298 172.816L130.543 172.758L122.459 172.709H120.261H119.683L119.482 172.676Z" fill="#455A64"/>
<path d="M224.432 172.676C224.432 172.738 185.075 172.783 136.567 172.783C88.0589 172.783 48.6934 172.738 48.6934 172.676C48.6934 172.615 88.0261 172.57 136.567 172.57C185.108 172.57 224.432 172.619 224.432 172.676Z" fill="#455A64"/>
<path d="M179.568 50.074C180.873 50.074 182.124 50.5923 183.047 51.5149C183.969 52.4375 184.488 53.6889 184.488 54.9936V65.0667H169.811V55.7644C169.81 55.017 169.957 54.2768 170.243 53.5861C170.528 52.8955 170.948 52.268 171.476 51.7395C172.005 51.2109 172.632 50.7918 173.323 50.506C174.013 50.2203 174.754 50.0734 175.501 50.074H179.568Z" fill="#263238"/>
<path d="M179.568 50.0742C179.568 50.1357 165.719 50.1685 148.636 50.1562C131.552 50.1439 117.703 50.0783 117.703 50.0209C117.703 49.9635 131.548 49.9266 148.636 49.9389C165.723 49.9512 179.568 50.0168 179.568 50.0742Z" fill="#263238"/>
<path d="M179.454 50.0617L173.329 50.0208L164.437 50.0741H99.1117C96.4478 50.0741 93.893 51.1323 92.0093 53.016C90.1256 54.8996 89.0674 57.4544 89.0674 60.1184V168.052H173.669V55.58C173.919 50.0741 179.454 50.0617 179.454 50.0617Z" fill="#FAFAFA"/>
<path d="M179.453 50.0619L128.44 50.1726H102.936H99.7465C99.2135 50.1726 98.6888 50.1726 98.164 50.2176C97.6424 50.273 97.1258 50.3676 96.6184 50.5005C95.087 50.8955 93.6731 51.653 92.4958 52.709C91.3185 53.765 90.4124 55.0885 89.8538 56.5681C89.7719 56.8182 89.6571 57.056 89.5997 57.3102L89.407 58.0727C89.3069 58.5881 89.2453 59.1102 89.2225 59.6347C89.1774 61.7461 89.2225 63.882 89.2225 66.0057L89.2922 168.027L89.0872 167.822L173.689 167.88L173.541 168.027L173.582 107.351L173.632 77.0134L173.66 61.8445V58.0522V56.154C173.648 55.8379 173.66 55.5213 173.697 55.207C173.719 54.8914 173.77 54.5786 173.849 54.2723C174.113 53.0192 174.846 51.9147 175.899 51.1852C176.419 50.8229 176.993 50.5461 177.6 50.3652C178.202 50.1837 178.825 50.0817 179.453 50.0619ZM179.453 50.0619C178.821 50.0898 178.195 50.2014 177.592 50.3939C176.986 50.575 176.413 50.8519 175.895 51.2139C174.849 51.9439 174.124 53.0476 173.869 54.2969C173.791 54.6018 173.742 54.9134 173.722 55.2275C173.688 55.542 173.677 55.8585 173.689 56.1745V61.8609L173.722 77.0298L173.771 107.368L173.808 168.044V168.199H173.656L89.0544 168.253H88.8535V168.048L88.9191 66.0262C88.9191 63.8984 88.9191 61.7789 88.9478 59.6429C88.9717 59.1047 89.0347 58.569 89.1364 58.0399L89.3414 57.261C89.3988 56.9986 89.5177 56.7526 89.5997 56.4984C90.1744 54.9816 91.1053 53.6253 92.3139 52.5436C93.5226 51.4619 94.9736 50.6867 96.5446 50.2832C97.0657 50.1486 97.596 50.0526 98.1312 49.9963C98.6683 49.9676 99.2053 49.9389 99.7342 49.9512H102.924H128.428L179.453 50.0619Z" fill="#263238"/>
<path d="M101.813 69.4944H116.572L116.596 74.4386H115.887C115.657 72.6703 114.996 71.4732 113.903 70.8473C113.04 70.4498 112.097 70.2576 111.148 70.2856V83.1998C111.148 84.1058 111.304 84.7043 111.619 84.9995C111.935 85.2947 112.591 85.4423 113.591 85.4423V86.0655H104.855V85.4423C105.81 85.4423 106.449 85.2906 106.761 84.9913C107.073 84.692 107.237 84.0976 107.237 83.1998V70.2856C106.288 70.263 105.346 70.455 104.482 70.8473C103.309 71.4909 102.645 72.684 102.493 74.4386H101.788L101.813 69.4944Z" fill="#137EE0"/>
<path d="M162.058 70.6259C162.058 70.8022 153.916 70.9457 143.872 70.9457C133.828 70.9457 125.686 70.8022 125.686 70.6259C125.686 70.4496 133.828 70.3062 143.872 70.3062C153.916 70.3062 162.058 70.4332 162.058 70.6259Z" fill="#137EE0"/>
<path d="M140.477 76.423C140.477 76.5993 137.328 76.7428 133.446 76.7428C129.564 76.7428 126.415 76.5993 126.415 76.423C126.415 76.2467 129.564 76.0991 133.446 76.0991C137.328 76.0991 140.477 76.2426 140.477 76.423Z" fill="#455A64"/>
<path d="M122.751 94.1501C122.751 94.3264 116.773 94.4699 109.398 94.4699C102.023 94.4699 96.041 94.3264 96.041 94.1501C96.041 93.9738 102.018 93.8303 109.398 93.8303C116.777 93.8303 122.751 93.9943 122.751 94.1501Z" fill="#455A64"/>
<path d="M152.998 94.1501C152.998 94.3264 147.016 94.4699 139.645 94.4699C132.274 94.4699 126.288 94.3264 126.288 94.1501C126.288 93.9738 132.265 93.8303 139.645 93.8303C147.024 93.8303 152.998 93.9943 152.998 94.1501Z" fill="#137EE0"/>
<path d="M122.751 98.8855C122.751 99.0617 116.773 99.2052 109.398 99.2052C102.023 99.2052 96.041 99.0617 96.041 98.8855C96.041 98.7092 102.018 98.5657 109.398 98.5657C116.777 98.5657 122.751 98.7092 122.751 98.8855Z" fill="#455A64"/>
<path d="M122.751 103.621C122.751 103.797 116.773 103.94 109.398 103.94C102.023 103.94 96.041 103.797 96.041 103.621C96.041 103.444 102.018 103.297 109.398 103.297C116.777 103.297 122.751 103.424 122.751 103.621Z" fill="#137EE0"/>
<path d="M140.477 86.0656C140.477 86.2419 137.328 86.3854 133.446 86.3854C129.564 86.3854 126.415 86.2419 126.415 86.0656C126.415 85.8893 129.564 85.7458 133.446 85.7458C137.328 85.7458 140.477 85.8893 140.477 86.0656Z" fill="#455A64"/>
<path d="M164.87 94.1501C164.87 94.3264 162.771 94.4699 160.184 94.4699C157.597 94.4699 155.494 94.3264 155.494 94.1501C155.494 93.9738 157.593 93.8303 160.184 93.8303C162.775 93.8303 164.87 93.9943 164.87 94.1501Z" fill="#455A64"/>
<path d="M167.38 76.423C167.38 76.5993 161.977 76.7428 155.315 76.7428C148.652 76.7428 143.249 76.5993 143.249 76.423C143.249 76.2467 148.648 76.0991 155.315 76.0991C161.981 76.0991 167.38 76.2426 167.38 76.423Z" fill="#455A64"/>
<path d="M166.289 81.0393C166.289 81.2155 157.364 81.359 146.352 81.359C135.34 81.359 126.415 81.2155 126.415 81.0393C126.415 80.863 135.34 80.7195 146.352 80.7195C157.364 80.7195 166.289 80.8753 166.289 81.0393Z" fill="#455A64"/>
<path d="M164.871 98.8855C164.871 99.0617 156.232 99.2052 145.602 99.2052C134.971 99.2052 126.309 99.0617 126.309 98.8855C126.309 98.7092 134.943 98.5657 145.602 98.5657C156.261 98.5657 164.871 98.7092 164.871 98.8855Z" fill="#455A64"/>
<path d="M164.871 112.591C164.871 112.767 156.766 112.911 146.77 112.911C136.775 112.911 128.666 112.767 128.666 112.591C128.666 112.414 136.771 112.271 146.77 112.271C156.77 112.271 164.871 112.414 164.871 112.591Z" fill="#137EE0"/>
<path d="M164.871 117.199C164.871 117.375 156.766 117.519 146.77 117.519C136.775 117.519 128.666 117.375 128.666 117.199C128.666 117.023 136.771 116.879 146.77 116.879C156.77 116.879 164.871 117.023 164.871 117.199Z" fill="#455A64"/>
<path d="M164.871 121.807C164.871 121.983 156.766 122.127 146.77 122.127C136.775 122.127 128.666 121.983 128.666 121.807C128.666 121.631 136.771 121.487 146.77 121.487C156.77 121.487 164.871 121.631 164.871 121.807Z" fill="#455A64"/>
<path d="M164.871 126.415C164.871 126.591 156.766 126.735 146.77 126.735C136.775 126.735 128.666 126.591 128.666 126.415C128.666 126.239 136.771 126.095 146.77 126.095C156.77 126.095 164.871 126.239 164.871 126.415Z" fill="#455A64"/>
<path d="M149.509 131.023C149.509 131.109 148.341 131.191 146.455 131.249C144.569 131.306 141.945 131.343 139.075 131.343C136.205 131.343 133.59 131.306 131.696 131.249C129.802 131.191 128.646 131.109 128.646 131.023C128.646 130.937 129.81 130.855 131.696 130.798C133.582 130.74 136.205 130.703 139.075 130.703C141.945 130.703 144.557 130.74 146.455 130.798C148.353 130.855 149.509 130.933 149.509 131.023Z" fill="#455A64"/>
<path d="M158.311 103.866C158.311 104.043 151.342 104.186 142.732 104.186C134.123 104.186 127.153 104.043 127.153 103.866C127.153 103.69 134.123 103.547 142.732 103.547C151.342 103.547 158.311 103.69 158.311 103.866Z" fill="#455A64"/>
<path d="M122.119 113.111L124.042 148.681L89.264 153.035L89.2354 112.808L122.119 113.111Z" fill="#E0E0E0"/>
<path d="M77.0894 110.647L76.8457 148.38L124.041 148.685L124.284 110.952L77.0894 110.647Z" fill="#F5F5F5"/>
<path d="M78.7022 113.035L78.4893 146.017L122.368 146.3L122.581 113.319L78.7022 113.035Z" fill="#137EE0"/>
<g opacity="0.2">
<path opacity="0.2" d="M78.4854 146.012L93.9454 125.611L103.354 138.497L109.84 131.683L122.369 146.294L78.4854 146.012Z" fill="black"/>
</g>
<g opacity="0.2">
<path opacity="0.2" d="M107.482 123.184C107.478 123.868 107.272 124.535 106.888 125.101C106.505 125.668 105.962 126.107 105.329 126.365C104.696 126.623 104 126.687 103.331 126.549C102.661 126.411 102.047 126.078 101.567 125.592C101.086 125.105 100.761 124.487 100.632 123.815C100.503 123.144 100.577 122.449 100.842 121.82C101.108 121.19 101.555 120.653 102.126 120.277C102.697 119.901 103.367 119.703 104.051 119.708C104.505 119.711 104.953 119.803 105.371 119.979C105.789 120.155 106.169 120.412 106.487 120.735C106.806 121.058 107.058 121.44 107.229 121.861C107.399 122.281 107.486 122.731 107.482 123.184Z" fill="black"/>
</g>
<path d="M128.585 157.581C128.585 157.725 128.542 157.867 128.462 157.987C128.381 158.107 128.267 158.2 128.134 158.255C128.001 158.311 127.854 158.325 127.712 158.297C127.571 158.269 127.441 158.199 127.339 158.097C127.237 157.995 127.167 157.865 127.139 157.723C127.111 157.582 127.125 157.435 127.181 157.302C127.236 157.168 127.329 157.055 127.449 156.974C127.569 156.894 127.71 156.851 127.855 156.851C127.951 156.851 128.046 156.869 128.135 156.906C128.223 156.942 128.304 156.996 128.372 157.064C128.44 157.132 128.494 157.212 128.53 157.301C128.567 157.39 128.585 157.485 128.585 157.581Z" fill="#263238"/>
<path d="M132.918 157.581C132.918 157.725 132.875 157.866 132.795 157.986C132.714 158.107 132.6 158.2 132.467 158.255C132.334 158.31 132.187 158.325 132.045 158.297C131.904 158.269 131.774 158.199 131.672 158.097C131.57 157.995 131.5 157.865 131.472 157.723C131.444 157.582 131.458 157.435 131.514 157.302C131.569 157.168 131.662 157.054 131.782 156.974C131.902 156.894 132.043 156.851 132.188 156.851C132.381 156.851 132.567 156.928 132.704 157.065C132.841 157.202 132.918 157.388 132.918 157.581Z" fill="#263238"/>
<path d="M137.247 157.581C137.247 157.725 137.204 157.866 137.124 157.986C137.043 158.107 136.929 158.2 136.796 158.255C136.663 158.31 136.516 158.325 136.374 158.297C136.233 158.269 136.103 158.199 136.001 158.097C135.899 157.995 135.829 157.865 135.801 157.723C135.773 157.582 135.787 157.435 135.843 157.302C135.898 157.168 135.991 157.054 136.111 156.974C136.231 156.894 136.373 156.851 136.517 156.851C136.71 156.851 136.896 156.928 137.033 157.065C137.17 157.202 137.247 157.388 137.247 157.581Z" fill="#263238"/>
<path d="M153.203 140.625C153.203 140.801 147.222 140.944 139.846 140.944C132.471 140.944 126.489 140.801 126.489 140.625C126.489 140.448 132.471 140.305 139.846 140.305C147.222 140.305 153.203 140.448 153.203 140.625Z" fill="#137EE0"/>
<path d="M165.076 145.36C165.076 145.536 156.438 145.68 145.783 145.68C135.127 145.68 126.489 145.536 126.489 145.36C126.489 145.184 135.127 145.04 145.783 145.04C156.438 145.04 165.076 145.184 165.076 145.36Z" fill="#455A64"/>
<path d="M250.949 153.78L250.722 176.509L279.149 176.793L279.376 154.064L250.949 153.78Z" fill="#F5F5F5"/>
<path d="M250.936 154.692L250.808 174.559L277.238 174.729L277.366 154.862L250.936 154.692Z" fill="#137EE0"/>
<path opacity="0.2" d="M250.802 174.55L260.112 162.263L265.782 170.024L269.689 165.92L277.233 174.722L250.802 174.55Z" fill="black"/>
<g opacity="0.2">
<path opacity="0.2" d="M268.271 160.82C268.269 161.232 268.145 161.635 267.915 161.976C267.685 162.318 267.358 162.584 266.977 162.74C266.595 162.896 266.176 162.935 265.772 162.853C265.368 162.77 264.998 162.57 264.708 162.277C264.418 161.984 264.222 161.612 264.143 161.208C264.065 160.803 264.109 160.384 264.268 160.005C264.428 159.625 264.697 159.301 265.041 159.074C265.385 158.847 265.788 158.727 266.2 158.729C266.752 158.733 267.28 158.955 267.668 159.347C268.056 159.739 268.273 160.268 268.271 160.82Z" fill="black"/>
</g>
<path d="M245.798 150.878L245.651 173.606L274.078 173.79L274.225 151.061L245.798 150.878Z" fill="#F5F5F5"/>
<path d="M246.773 152.315L246.645 172.182L273.075 172.352L273.203 152.485L246.773 152.315Z" fill="#137EE0"/>
<path opacity="0.2" d="M246.632 172.176L255.942 159.889L261.612 167.65L265.519 163.546L273.063 172.348L246.632 172.176Z" fill="black"/>
<g opacity="0.2">
<path opacity="0.2" d="M264.101 158.43C264.098 158.843 263.973 159.245 263.741 159.587C263.51 159.928 263.182 160.193 262.799 160.348C262.416 160.503 261.996 160.54 261.592 160.456C261.188 160.372 260.818 160.169 260.53 159.874C260.241 159.579 260.046 159.205 259.971 158.799C259.895 158.393 259.942 157.974 260.105 157.595C260.268 157.216 260.54 156.893 260.886 156.669C261.233 156.445 261.638 156.328 262.051 156.335C262.6 156.344 263.123 156.569 263.507 156.961C263.891 157.353 264.104 157.881 264.101 158.43Z" fill="black"/>
</g>
<path d="M242.088 148.922L241.941 171.65L270.368 171.833L270.515 149.105L242.088 148.922Z" fill="#F5F5F5"/>
<path d="M243.059 150.355L242.931 170.222L269.361 170.392L269.489 150.526L243.059 150.355Z" fill="#137EE0"/>
<path opacity="0.2" d="M242.922 170.217L252.232 157.926L257.902 165.69L261.805 161.582L269.353 170.385L242.922 170.217Z" fill="black"/>
<g opacity="0.2">
<path opacity="0.2" d="M260.387 156.466C260.384 156.879 260.259 157.282 260.028 157.623C259.796 157.965 259.468 158.23 259.085 158.384C258.702 158.539 258.282 158.577 257.878 158.492C257.474 158.408 257.104 158.205 256.816 157.91C256.527 157.615 256.333 157.241 256.257 156.835C256.181 156.429 256.228 156.01 256.391 155.631C256.554 155.252 256.826 154.93 257.173 154.705C257.519 154.481 257.924 154.365 258.337 154.371C258.886 154.38 259.409 154.605 259.793 154.997C260.177 155.389 260.39 155.917 260.387 156.466Z" fill="black"/>
</g>
<path d="M238.853 151.875L238.626 174.604L267.053 174.888L267.281 152.159L238.853 151.875Z" fill="#F5F5F5"/>
<path d="M238.891 152.797L238.763 172.664L265.193 172.835L265.321 152.968L238.891 152.797Z" fill="#455A64"/>
<path opacity="0.2" d="M238.752 172.66L248.062 160.369L253.732 168.13L257.635 164.026L265.183 172.828L238.752 172.66Z" fill="black"/>
<g opacity="0.2">
<path opacity="0.2" d="M256.234 158.91C256.231 159.322 256.106 159.725 255.874 160.067C255.642 160.408 255.314 160.673 254.932 160.828C254.549 160.983 254.129 161.02 253.725 160.936C253.321 160.851 252.951 160.649 252.662 160.354C252.374 160.059 252.179 159.684 252.104 159.279C252.028 158.873 252.075 158.454 252.238 158.075C252.401 157.695 252.673 157.373 253.019 157.149C253.366 156.925 253.771 156.808 254.184 156.815C254.733 156.821 255.258 157.045 255.642 157.438C256.026 157.831 256.239 158.36 256.234 158.91Z" fill="black"/>
</g>
<path d="M282.746 159.807H266.335V181.753H282.746V159.807Z" fill="#263238"/>
<path d="M234.915 159.807V181.749H267.713V159.807H234.915ZM254.819 164.998H247.85C247.45 164.998 247.066 164.839 246.783 164.556C246.5 164.273 246.341 163.889 246.341 163.489C246.341 163.089 246.5 162.705 246.783 162.422C247.066 162.139 247.45 161.98 247.85 161.98H254.819C255.219 161.98 255.603 162.139 255.886 162.422C256.169 162.705 256.328 163.089 256.328 163.489C256.328 163.889 256.169 164.273 255.886 164.556C255.603 164.839 255.219 164.998 254.819 164.998Z" fill="#137EE0"/>
<path d="M213.616 179.457L183.093 177.588C182.9 177.149 182.773 176.895 182.773 176.895L174.5 177.063L171.807 176.895L171.7 177.116L143.929 177.67C138.39 177.67 132.568 181.048 132.568 185.365C132.498 189.465 134.491 193.933 139.452 193.831L177.288 193.704L215.128 193.831C220.089 193.933 221.401 190.961 221.409 187.39C221.987 180.782 217.847 179.511 213.616 179.457Z" fill="#455A64"/>
<path d="M142.924 193.835H143.104H143.641L145.691 193.815L153.308 193.782L178.727 193.749L178.62 193.86C178.567 193.04 178.514 192.142 178.456 191.248C178.341 189.42 178.231 187.616 178.124 185.919L178.218 186.017L154.809 183.369L147.872 182.577L146.003 182.352L145.519 182.29C145.465 182.286 145.411 182.276 145.359 182.262H145.523L146.007 182.307L147.88 182.491L154.825 183.221L178.239 185.755H178.325V185.841C178.436 187.554 178.546 189.354 178.661 191.17C178.719 192.064 178.772 192.954 178.825 193.782V193.897H178.714L153.296 193.86L145.679 193.827H143.629H143.092L142.924 193.835Z" fill="#263238"/>
<path d="M150.726 182.979C150.701 183.008 150.316 182.7 149.656 182.294C148.787 181.765 147.852 181.352 146.876 181.064C145.898 180.786 144.888 180.637 143.871 180.622C143.092 180.622 142.609 180.671 142.604 180.622C142.712 180.579 142.825 180.552 142.941 180.544C143.249 180.496 143.56 180.469 143.871 180.462C145.954 180.401 148.005 180.99 149.738 182.147C149.999 182.319 150.248 182.508 150.484 182.713C150.648 182.881 150.734 182.959 150.726 182.979Z" fill="#263238"/>
<path d="M211.246 181.355C211.246 181.413 205.24 182.868 197.803 184.607C190.366 186.345 184.319 187.706 184.307 187.649C184.294 187.591 190.313 186.136 197.754 184.397C205.195 182.659 211.234 181.319 211.246 181.355Z" fill="#263238"/>
<path d="M206.158 180.765C205.333 181.058 204.541 181.437 203.796 181.897C203.094 182.416 202.452 183.013 201.882 183.676C201.973 183.428 202.113 183.201 202.292 183.008C203.088 182.008 204.171 181.276 205.395 180.909C205.639 180.816 205.897 180.767 206.158 180.765Z" fill="#263238"/>
<path d="M194.793 146.11L204.465 162.944C205.053 163.967 205.378 165.12 205.411 166.3C205.445 167.479 205.186 168.649 204.657 169.704C204.048 170.922 203.103 171.94 201.935 172.64C200.766 173.339 199.422 173.69 198.061 173.652L183.212 173.242L182.822 167.843L195.896 165.33L187.082 150.071L194.793 146.11Z" fill="#FFBE9D"/>
<path d="M158.757 174.915L172.409 178.531L172.708 174.431L160.126 167.126L169.318 150.071L161.606 146.11L151.935 162.944C151.386 163.964 151.068 165.092 151.005 166.249C150.942 167.405 151.134 168.562 151.569 169.636C152.003 170.71 152.669 171.674 153.519 172.461C154.369 173.248 155.382 173.838 156.486 174.189L158.757 174.915Z" fill="#FFBE9D"/>
<path d="M190.69 156.917L200.021 151.998C198.873 149.67 197.536 147.441 196.024 145.331C193.133 141.334 188.644 138.542 183.561 137.476L172.828 137.603C171.517 137.719 170.228 138.016 168.998 138.485V138.444C163.173 139.727 156.699 152.432 156.699 152.432L165.218 156.905L165.407 158.241C165.657 160.012 166.427 161.669 167.621 163.001L165.161 179.265L192.687 179.835L189.19 168.2L190.69 156.917Z" fill="#137EE0"/>
<path d="M167.863 163.091C167.713 163.006 167.575 162.902 167.453 162.78C167.099 162.469 166.784 162.116 166.514 161.73C165.629 160.431 165.222 158.865 165.362 157.299C165.501 156.462 165.712 155.639 165.993 154.839C166.239 154.097 166.493 153.441 166.711 152.891C166.928 152.342 167.121 151.903 167.252 151.604C167.312 151.443 167.392 151.29 167.49 151.149C167.452 151.316 167.398 151.48 167.33 151.637C167.203 151.985 167.043 152.424 166.85 152.945C166.657 153.465 166.416 154.175 166.182 154.9C165.912 155.694 165.709 156.508 165.575 157.335C165.507 158.163 165.586 158.996 165.809 159.795C165.985 160.453 166.262 161.079 166.629 161.652C166.999 162.166 167.412 162.647 167.863 163.091Z" fill="#263238"/>
<path d="M163.731 183.192L162.173 165.051H195.745L193.519 183.418L163.731 183.192Z" fill="#263238"/>
<path d="M181.097 174.726C181.097 175.15 180.972 175.564 180.738 175.917C180.503 176.269 180.169 176.544 179.777 176.707C179.386 176.869 178.955 176.912 178.54 176.83C178.124 176.747 177.743 176.543 177.443 176.244C177.144 175.944 176.94 175.562 176.857 175.147C176.775 174.731 176.818 174.301 176.98 173.91C177.143 173.518 177.418 173.184 177.77 172.949C178.123 172.714 178.537 172.59 178.961 172.59C179.527 172.59 180.07 172.815 180.471 173.216C180.871 173.617 181.097 174.16 181.097 174.726Z" fill="#FAFAFA"/>
<path d="M178.37 186.734L184.073 187.53V193.728L178.829 193.593L178.37 186.734Z" fill="#FFBE9D"/>
<path d="M184.077 187.53H186.64C187.138 187.53 187.627 187.661 188.058 187.911L189.407 188.698C190.17 189.121 190.959 189.496 191.768 189.822C193.326 190.322 195.946 190.998 196.5 191.425C198.074 192.654 197.594 194.077 196.729 194.225C195.971 194.36 184.073 193.733 184.073 193.733L184.077 187.53Z" fill="#137EE0"/>
<path d="M188.279 193.208C188.081 192.695 187.987 192.147 188.005 191.597C187.95 191.043 188.011 190.485 188.185 189.957C188.226 190.494 188.237 191.033 188.218 191.572C188.271 192.116 188.291 192.662 188.279 193.208Z" fill="#263238"/>
<path d="M189.497 193.179C189.363 192.198 189.371 191.202 189.522 190.223C189.621 190.71 189.652 191.208 189.616 191.703C189.645 192.198 189.605 192.695 189.497 193.179Z" fill="#263238"/>
<path d="M190.931 193.425C190.711 192.426 190.631 191.401 190.694 190.379C190.838 190.871 190.914 191.38 190.919 191.892C190.993 192.4 190.997 192.916 190.931 193.425Z" fill="#263238"/>
<path d="M187.172 191.568C186.989 191.544 186.812 191.488 186.648 191.404C186.181 191.208 185.749 190.941 185.364 190.613C185.246 190.51 185.123 190.395 185 190.268C184.861 190.138 184.75 189.982 184.672 189.809C184.627 189.705 184.61 189.592 184.623 189.48C184.636 189.367 184.678 189.26 184.745 189.17C184.824 189.073 184.937 189.012 185.061 188.997C185.179 188.984 185.297 188.997 185.41 189.034C185.856 189.195 186.249 189.477 186.544 189.848C186.84 190.22 187.026 190.666 187.081 191.137C187.137 191.609 187.06 192.086 186.86 192.516C186.66 192.946 186.343 193.312 185.947 193.573C185.77 193.7 185.569 193.79 185.356 193.839C185.247 193.866 185.133 193.866 185.024 193.839C184.968 193.821 184.916 193.791 184.871 193.751C184.827 193.712 184.791 193.663 184.766 193.61C184.729 193.513 184.717 193.408 184.73 193.305C184.743 193.202 184.78 193.104 184.84 193.019C184.929 192.868 185.039 192.73 185.168 192.609C185.532 192.258 185.961 191.979 186.43 191.789C186.597 191.709 186.776 191.659 186.959 191.642C186.959 191.642 186.779 191.715 186.463 191.867C186.02 192.081 185.618 192.371 185.274 192.724C185.16 192.832 185.062 192.956 184.983 193.093C184.941 193.156 184.914 193.227 184.903 193.301C184.893 193.376 184.899 193.452 184.922 193.523C184.963 193.591 185.027 193.641 185.102 193.667C185.176 193.692 185.258 193.691 185.332 193.663C185.516 193.616 185.69 193.534 185.844 193.421C186.207 193.179 186.495 192.841 186.678 192.445C186.861 192.049 186.931 191.61 186.881 191.177C186.831 190.744 186.661 190.333 186.392 189.989C186.123 189.646 185.765 189.384 185.356 189.231C185.282 189.194 185.198 189.181 185.116 189.193C185.035 189.204 184.958 189.241 184.897 189.297C184.85 189.362 184.821 189.438 184.812 189.518C184.804 189.597 184.816 189.678 184.848 189.752C185.004 190.043 185.218 190.299 185.475 190.506C185.984 190.943 186.557 191.301 187.172 191.568Z" fill="#263238"/>
<path d="M196.729 194.221C196.859 194.106 196.965 193.967 197.041 193.811C197.115 193.597 197.139 193.369 197.11 193.145C197.081 192.921 197 192.706 196.873 192.519C196.503 191.946 195.942 191.523 195.29 191.326C194.564 191.064 193.703 190.941 192.83 190.666C191.338 190.218 189.913 189.57 188.595 188.739C188.095 188.419 187.706 188.133 187.443 187.919C187.3 187.82 187.169 187.705 187.054 187.575C187.208 187.652 187.355 187.744 187.492 187.85C187.767 188.034 188.165 188.301 188.677 188.604C190.002 189.389 191.417 190.012 192.892 190.457C193.749 190.724 194.605 190.867 195.352 191.134C196.039 191.356 196.621 191.821 196.991 192.441C197.121 192.649 197.198 192.885 197.217 193.129C197.236 193.373 197.195 193.618 197.098 193.843C197.033 193.959 196.944 194.058 196.836 194.135C196.786 194.208 196.733 194.229 196.729 194.221Z" fill="#263238"/>
<path d="M192.847 141.933C192.852 141.962 192.852 141.993 192.847 142.023V142.277C192.826 142.515 192.793 142.847 192.756 143.269C192.666 144.151 192.539 145.409 192.383 146.992V147.086L192.297 147.041L187.32 144.421L187.439 144.388L184.75 148.931L184.692 149.025L184.602 148.96L180.092 145.487H180.223L178.252 147.033L175.562 149.136L175.464 149.214L175.406 149.103L172.844 144.368L172.971 144.409L167.543 146.828L167.441 146.873V146.766L166.621 141.937L166.703 141.986L163.579 143.191L162.759 143.495L162.545 143.573L162.472 143.593C162.472 143.593 162.492 143.593 162.537 143.556L162.746 143.466L163.566 143.13L166.653 141.9L166.723 141.875V141.949C166.965 143.294 167.252 144.913 167.584 146.77L167.469 146.709L172.885 144.249L172.971 144.212L173.016 144.29C173.836 145.79 174.689 147.373 175.587 149.025L175.427 148.992L178.116 146.885L180.088 145.339L180.154 145.29L180.219 145.339L184.729 148.82L184.581 148.849L187.291 144.339L187.332 144.269L187.406 144.306L192.326 146.955L192.232 147.004L192.666 143.29C192.719 142.88 192.76 142.539 192.789 142.302C192.789 142.199 192.818 142.117 192.826 142.047C192.83 142.009 192.837 141.97 192.847 141.933Z" fill="#F5F5F5"/>
<path d="M196.831 146.5C196.829 146.54 196.822 146.58 196.811 146.619C196.786 146.709 196.757 146.824 196.725 146.967C196.638 147.283 196.524 147.734 196.372 148.308C196.056 149.488 195.597 151.177 195.031 153.297L195.007 153.379L194.933 153.342L189.148 150.571L189.263 150.538C187.783 152.645 186.143 154.986 184.393 157.487L184.319 157.589L184.233 157.499L179.567 152.752L178.583 151.755H178.714L172.409 155.712L172.319 155.769L172.266 155.679L168.863 149.669L168.969 149.71L162.484 151.944L162.422 151.965L162.402 151.903C161.787 150.124 161.299 148.709 160.963 147.73C160.803 147.254 160.676 146.881 160.59 146.619C160.549 146.5 160.52 146.405 160.495 146.332C160.482 146.3 160.474 146.267 160.471 146.233C160.489 146.262 160.503 146.294 160.512 146.327L160.622 146.606C160.717 146.869 160.852 147.233 161.032 147.705C161.381 148.681 161.889 150.087 162.529 151.862L162.447 151.821L168.908 149.554L168.978 149.529L169.015 149.595L172.438 155.589L172.294 155.552L178.6 151.587L178.669 151.542L178.731 151.604C179.056 151.937 179.384 152.269 179.715 152.6L184.393 157.352H184.233L189.128 150.419L189.169 150.357L189.238 150.39L195.003 153.203L194.908 153.248L196.31 148.275L196.696 146.942C196.741 146.803 196.774 146.688 196.802 146.602C196.808 146.567 196.817 146.533 196.831 146.5Z" fill="#F5F5F5"/>
<path d="M192.687 117.9C191.865 117.986 191.033 117.902 190.245 117.653C189.456 117.404 188.727 116.996 188.103 116.453C189.596 117.207 191.584 116.17 192.113 114.583C192.642 112.997 192.207 110.041 190.904 108.991C190.277 108.493 189.545 108.147 188.762 107.979C187.98 107.811 187.169 107.826 186.394 108.024C184.856 108.434 183.229 110.775 182.725 112.283L182.753 112.329C182.52 112.234 182.278 112.148 182.04 112.066C180.339 111.465 178.526 111.245 176.731 111.423C174.93 111.609 173.234 112.356 171.881 113.558L182.306 130.314C184.201 130.15 185.877 128.871 186.869 127.252C187.862 125.632 188.243 123.701 188.337 121.803C188.362 121.323 188.358 120.844 188.337 120.364L191.687 120.901C191.086 120.094 190.329 119.417 189.46 118.909C190.035 119.114 190.661 119.127 191.243 118.945C191.825 118.763 192.332 118.396 192.687 117.9Z" fill="#263238"/>
<path d="M179.519 143.905C180.88 143.876 182.176 143.319 183.134 142.352C184.092 141.385 184.636 140.083 184.652 138.722L184.893 117.875C184.906 117.459 184.759 117.054 184.484 116.742C184.208 116.429 183.824 116.234 183.409 116.194L174.603 113.968C171.778 113.673 169.909 117.142 169.729 119.97C169.532 123.115 169.413 126.96 169.786 129.309C170.536 134.024 174.152 134.639 174.152 134.639C174.152 134.639 174.152 136.464 174.152 138.698C174.155 139.394 174.297 140.082 174.569 140.723C174.841 141.363 175.237 141.944 175.736 142.429C176.234 142.915 176.824 143.297 177.471 143.552C178.119 143.808 178.811 143.932 179.506 143.917L179.519 143.905Z" fill="#FFBE9D"/>
<path d="M171.557 123.025C171.555 123.183 171.616 123.335 171.726 123.449C171.835 123.563 171.985 123.63 172.143 123.635C172.22 123.642 172.297 123.632 172.37 123.608C172.444 123.584 172.511 123.545 172.57 123.494C172.628 123.443 172.675 123.382 172.709 123.312C172.742 123.243 172.762 123.167 172.766 123.09C172.768 122.932 172.709 122.78 172.6 122.666C172.491 122.552 172.342 122.485 172.184 122.479C172.107 122.473 172.029 122.483 171.956 122.507C171.882 122.531 171.814 122.57 171.756 122.62C171.697 122.671 171.65 122.733 171.616 122.802C171.581 122.872 171.561 122.947 171.557 123.025Z" fill="#263238"/>
<path d="M170.548 121.971C170.622 122.053 171.081 121.713 171.733 121.713C172.385 121.713 172.86 122.041 172.93 121.963C172.999 121.885 172.889 121.783 172.68 121.631C172.397 121.438 172.063 121.335 171.72 121.336C171.381 121.335 171.051 121.443 170.777 121.643C170.593 121.795 170.548 121.938 170.548 121.971Z" fill="#263238"/>
<path d="M177.751 123.025C177.749 123.183 177.809 123.336 177.919 123.45C178.029 123.565 178.179 123.631 178.337 123.636C178.414 123.642 178.492 123.632 178.566 123.608C178.639 123.584 178.707 123.545 178.765 123.495C178.824 123.444 178.871 123.382 178.906 123.313C178.94 123.243 178.96 123.168 178.965 123.09C178.966 122.932 178.905 122.78 178.796 122.666C178.686 122.552 178.536 122.485 178.378 122.479C178.301 122.473 178.223 122.482 178.149 122.506C178.076 122.53 178.008 122.568 177.949 122.619C177.891 122.67 177.843 122.732 177.809 122.802C177.775 122.871 177.755 122.947 177.751 123.025Z" fill="#263238"/>
<path d="M176.964 122.094C177.038 122.172 177.497 121.836 178.149 121.836C178.801 121.836 179.276 122.164 179.346 122.082C179.416 122 179.305 121.905 179.096 121.754C178.814 121.559 178.479 121.456 178.136 121.459C177.798 121.456 177.467 121.563 177.193 121.762C176.993 121.918 176.927 122.057 176.964 122.094Z" fill="#263238"/>
<path d="M174.599 126.924C174.256 126.816 173.9 126.751 173.541 126.731C173.377 126.731 173.222 126.682 173.193 126.567C173.177 126.395 173.216 126.223 173.304 126.075L173.796 124.808C174.476 123.008 174.972 121.528 174.898 121.5C174.825 121.471 174.214 122.91 173.529 124.714L173.058 125.985C172.955 126.186 172.925 126.416 172.971 126.637C172.995 126.696 173.032 126.75 173.08 126.792C173.127 126.835 173.184 126.866 173.246 126.883C173.338 126.907 173.434 126.92 173.529 126.92C173.884 126.966 174.244 126.968 174.599 126.924Z" fill="#263238"/>
<path d="M174.151 134.627C176.373 134.661 178.56 134.078 180.469 132.942C180.469 132.942 178.936 136.181 174.213 135.738L174.151 134.627Z" fill="#EB996E"/>
<path d="M174.877 128.49C175.001 128.334 175.162 128.213 175.346 128.137C175.53 128.061 175.729 128.033 175.927 128.055C176.071 128.07 176.211 128.114 176.338 128.184C176.465 128.255 176.576 128.35 176.665 128.465C176.752 128.573 176.804 128.705 176.814 128.844C176.823 128.983 176.79 129.121 176.718 129.24C176.614 129.356 176.477 129.439 176.325 129.478C176.173 129.517 176.013 129.509 175.865 129.457C175.563 129.345 175.285 129.177 175.045 128.961C174.972 128.91 174.909 128.844 174.861 128.768C174.837 128.733 174.824 128.691 174.824 128.648C174.824 128.604 174.837 128.562 174.861 128.527" fill="#EB996E"/>
<path d="M176.517 127.37C176.41 127.37 176.41 128.071 175.804 128.576C175.197 129.08 174.447 128.986 174.442 129.096C174.438 129.207 174.611 129.236 174.926 129.244C175.342 129.244 175.745 129.099 176.066 128.834C176.373 128.582 176.57 128.22 176.615 127.825C176.644 127.543 176.562 127.37 176.517 127.37Z" fill="#263238"/>
<path d="M176.669 120.954C176.734 121.131 177.382 121.049 178.149 121.139C178.915 121.229 179.53 121.438 179.629 121.282C179.674 121.205 179.567 121.041 179.321 120.872C178.988 120.662 178.612 120.531 178.22 120.487C177.829 120.444 177.433 120.49 177.062 120.622C176.783 120.733 176.64 120.872 176.669 120.954Z" fill="#263238"/>
<path d="M170.655 120.77C170.77 120.917 171.217 120.77 171.758 120.77C172.299 120.77 172.754 120.872 172.856 120.717C172.906 120.639 172.832 120.491 172.631 120.352C172.366 120.18 172.053 120.095 171.737 120.11C171.419 120.116 171.111 120.22 170.856 120.409C170.667 120.548 170.606 120.7 170.655 120.77Z" fill="#263238"/>
<path d="M184.368 123.738C184.559 123.635 184.775 123.586 184.992 123.597C185.209 123.608 185.418 123.678 185.598 123.8C186.034 124.054 186.369 124.451 186.545 124.924C186.722 125.396 186.73 125.915 186.568 126.393C186.406 126.871 186.084 127.278 185.656 127.546C185.228 127.814 184.721 127.926 184.221 127.862" fill="#FFBE9D"/>
<path d="M184.701 126.456C184.701 126.423 184.881 126.493 185.111 126.39C185.253 126.31 185.368 126.189 185.441 126.043C185.514 125.897 185.542 125.732 185.521 125.571C185.52 125.409 185.472 125.251 185.382 125.117C185.293 124.983 185.165 124.878 185.016 124.816C184.779 124.718 184.606 124.767 184.606 124.73C184.606 124.693 184.766 124.582 185.078 124.652C185.258 124.695 185.419 124.796 185.537 124.939C185.68 125.115 185.762 125.332 185.771 125.558C185.796 125.765 185.751 125.973 185.644 126.151C185.537 126.33 185.374 126.467 185.18 126.542C184.848 126.636 184.676 126.472 184.701 126.456Z" fill="#EB996E"/>
<path d="M185.988 127.411C185.988 127.411 186.07 127.456 186.205 127.563L186.783 128.022L188.833 129.752L188.903 129.81L188.845 129.879C188.087 130.789 187.242 131.929 186.295 133.118C186.078 133.389 185.865 133.651 185.656 133.897L185.48 134.102V133.831C185.398 131.913 185.328 130.211 185.291 128.99C185.291 128.412 185.266 127.928 185.258 127.555C185.242 127.38 185.242 127.205 185.258 127.03C185.299 127.201 185.321 127.375 185.324 127.551C185.348 127.924 185.381 128.403 185.422 128.986C185.496 130.216 185.586 131.901 185.68 133.823L185.496 133.758L186.127 132.987C187.074 131.798 187.927 130.666 188.706 129.76V129.888L186.718 128.1L186.168 127.612C186.101 127.552 186.04 127.485 185.988 127.411Z" fill="#455A64"/>
<path d="M176.447 111.906C175.291 111.917 174.139 112.043 173.008 112.283C171.87 112.527 170.834 113.11 170.035 113.956C169.642 114.382 169.362 114.9 169.218 115.462C169.075 116.023 169.074 116.612 169.215 117.174C169.376 117.731 169.724 118.216 170.199 118.547C170.674 118.878 171.249 119.036 171.827 118.995C172.696 118.88 173.528 118.236 174.369 118.49C175.209 118.745 175.599 119.7 176.419 119.852C177.239 120.003 177.94 119.278 178.751 119.204C179.653 119.126 180.432 119.864 180.834 120.676C181.236 121.487 181.388 122.397 181.789 123.205C181.9 123.474 182.068 123.716 182.28 123.916C182.492 124.115 182.744 124.267 183.019 124.361C183.279 124.415 183.549 124.405 183.805 124.334C184.061 124.263 184.296 124.132 184.491 123.951C184.876 123.584 185.171 123.132 185.352 122.631C185.778 121.584 185.956 120.452 185.872 119.325C185.788 118.197 185.444 117.104 184.868 116.132C184.292 115.159 183.498 114.333 182.549 113.718C181.6 113.103 180.522 112.716 179.399 112.587" fill="#263238"/>
<path d="M187.943 116.916C187.906 116.916 187.795 116.535 187.508 115.957C186.738 114.45 185.437 113.281 183.856 112.677C183.253 112.447 182.855 112.378 182.859 112.341C182.864 112.304 182.966 112.341 183.146 112.341C183.405 112.376 183.661 112.435 183.909 112.517C184.732 112.789 185.489 113.23 186.131 113.813C186.777 114.392 187.292 115.102 187.644 115.895C187.752 116.133 187.837 116.38 187.898 116.633C187.929 116.724 187.944 116.82 187.943 116.916Z" fill="#137EE0"/>
<path d="M191.551 110.008C191.183 109.859 190.803 109.741 190.416 109.656C189.473 109.495 188.504 109.639 187.648 110.066C186.8 110.509 186.068 111.147 185.512 111.927C185.074 112.521 184.869 112.935 184.836 112.919C184.856 112.81 184.894 112.706 184.951 112.611C185.076 112.344 185.221 112.086 185.385 111.841C185.926 111.009 186.673 110.332 187.554 109.877C188.44 109.429 189.453 109.297 190.424 109.504C190.718 109.567 191.001 109.672 191.264 109.815C191.457 109.922 191.559 109.984 191.551 110.008Z" fill="#455A64"/>
<path d="M187.017 115.547C187.069 115.869 187.069 116.197 187.017 116.519C186.934 117.299 186.735 118.064 186.426 118.786C186.119 119.507 185.705 120.177 185.197 120.774C184.999 121.032 184.759 121.255 184.487 121.434C185.191 120.605 185.783 119.687 186.246 118.704C186.638 117.689 186.897 116.628 187.017 115.547Z" fill="#455A64"/>
<path d="M187.152 115.649C187.206 115.732 187.245 115.824 187.267 115.92C187.352 116.172 187.414 116.431 187.451 116.695C187.585 117.571 187.542 118.465 187.325 119.325C187.108 120.185 186.722 120.992 186.189 121.701C186.029 121.914 185.851 122.113 185.656 122.295C185.516 122.426 185.438 122.492 185.426 122.48C185.414 122.467 185.693 122.16 186.066 121.61C186.548 120.898 186.905 120.107 187.119 119.274C187.325 118.437 187.388 117.572 187.304 116.715C187.234 116.059 187.115 115.658 187.152 115.649Z" fill="#455A64"/>
<path d="M199.559 116.724C199.107 116.866 198.723 117.169 198.481 117.576C198.238 117.983 198.153 118.464 198.243 118.929C198.332 119.395 198.589 119.811 198.965 120.099C199.341 120.386 199.81 120.526 200.282 120.491C200.755 120.456 201.197 120.248 201.527 119.908C201.856 119.568 202.049 119.118 202.068 118.645C202.088 118.172 201.933 117.708 201.633 117.341C201.332 116.975 200.908 116.732 200.44 116.658" fill="#EBEBEB"/>
<path d="M205.102 108.668C204.582 108.83 204.141 109.178 203.862 109.645C203.582 110.111 203.484 110.665 203.586 111.199C203.688 111.733 203.982 112.212 204.414 112.543C204.845 112.874 205.383 113.036 205.926 112.996C206.469 112.957 206.978 112.719 207.357 112.329C207.735 111.938 207.958 111.422 207.981 110.879C208.004 110.335 207.827 109.802 207.483 109.381C207.138 108.96 206.651 108.679 206.114 108.594" fill="#EBEBEB"/>
<path d="M216.937 73.164C213.247 72.8524 209.48 73.6806 206.934 76.3946C205.669 77.7675 204.726 79.4047 204.173 81.1874C203.62 82.9702 203.471 84.8537 203.736 86.7013C199.792 88.3412 197.644 93.3592 199.173 97.3606C200.702 101.362 205.663 103.633 209.689 102.211C210.599 104.517 212.095 106.546 214.029 108.098C215.963 109.65 218.267 110.672 220.716 111.061C223.165 111.451 225.673 111.196 227.993 110.321C230.313 109.447 232.365 107.982 233.947 106.072C237.813 106.946 242.146 106.892 245.426 104.613C248.706 102.334 250.149 97.3401 247.673 94.2407C252.129 93.1543 254.392 87.5909 253.072 83.196C251.752 78.8011 247.792 75.6525 243.569 73.8692C240.777 72.6884 237.292 72.0735 234.91 73.9471C233.952 72.473 232.655 71.2494 231.128 70.3781C229.601 69.5068 227.888 69.013 226.132 68.938C224.375 68.863 222.626 69.2089 221.03 69.9468C219.434 70.6848 218.038 71.7934 216.958 73.1804" fill="#F5F5F5"/>
<path d="M216.938 73.1639C216.938 73.1639 217.012 73.0655 217.163 72.8769C217.388 72.6005 217.628 72.3364 217.881 72.0857C218.87 71.1123 220.032 70.3323 221.308 69.7857C222.232 69.3854 223.206 69.1096 224.202 68.9658C225.396 68.7997 226.609 68.8371 227.79 69.0765C229.156 69.3515 230.46 69.8769 231.635 70.6262C232.962 71.4728 234.095 72.5905 234.96 73.906H234.854C235.866 73.1429 237.095 72.7208 238.363 72.7006C239.707 72.6762 241.045 72.8899 242.315 73.332C243.664 73.7891 244.962 74.384 246.189 75.1072C247.492 75.8589 248.697 76.7692 249.777 77.8171C250.919 78.9148 251.858 80.2055 252.552 81.6298C252.896 82.373 253.16 83.1509 253.339 83.9503C253.502 84.7705 253.559 85.6083 253.507 86.4429C253.405 88.1666 252.852 89.8332 251.904 91.2765C251.41 92.0086 250.795 92.6506 250.084 93.1747C249.36 93.7094 248.54 94.1017 247.669 94.3308L247.723 94.1709C248.26 94.8575 248.637 95.6561 248.825 96.5077C249.011 97.3733 249.034 98.266 248.891 99.1398C248.588 100.935 247.727 102.589 246.431 103.867C245.069 105.136 243.379 106 241.552 106.359C239.702 106.737 237.801 106.794 235.932 106.527C235.247 106.441 234.571 106.306 233.906 106.167L234.013 106.13C232.804 107.6 231.313 108.814 229.628 109.699C227.943 110.585 226.098 111.124 224.201 111.286C222.304 111.448 220.394 111.228 218.584 110.64C216.773 110.053 215.098 109.109 213.658 107.864C211.863 106.347 210.465 104.417 209.583 102.239L209.706 102.292C208.572 102.657 207.375 102.782 206.191 102.658C205.006 102.535 203.86 102.166 202.826 101.575C201.843 101.044 200.981 100.315 200.294 99.4336C199.608 98.5521 199.112 97.5377 198.837 96.4545C198.375 94.4165 198.666 92.28 199.657 90.4402C200.534 88.7423 201.967 87.3965 203.716 86.6274L203.675 86.7053C203.441 85.0808 203.527 83.4261 203.929 81.8348C204.443 79.7762 205.473 77.8825 206.922 76.333C207.343 75.8943 207.802 75.495 208.296 75.14C209.157 74.5204 210.11 74.0403 211.12 73.7174C213.004 73.1379 214.986 72.9469 216.946 73.1557C216.946 73.1557 216.815 73.1557 216.561 73.1557C216.306 73.1557 215.929 73.127 215.429 73.127C213.972 73.1277 212.523 73.3559 211.137 73.8035C210.136 74.1295 209.192 74.611 208.341 75.2302C207.854 75.5825 207.401 75.9791 206.988 76.415C206.546 76.8923 206.143 77.4036 205.782 77.9442C204.985 79.1472 204.397 80.4765 204.044 81.8758C203.654 83.451 203.573 85.087 203.806 86.693V86.7463L203.753 86.7709C202.04 87.5326 200.639 88.8559 199.78 90.5222C198.804 92.3254 198.513 94.4206 198.96 96.4217C199.24 97.4829 199.739 98.4741 200.423 99.3318C201.108 100.19 201.964 100.895 202.937 101.403C203.949 101.979 205.07 102.339 206.228 102.459C207.386 102.579 208.556 102.456 209.665 102.1L209.751 102.071L209.788 102.157C210.685 104.347 212.106 106.283 213.925 107.797C215.743 109.31 217.905 110.355 220.222 110.84C222.722 111.305 225.302 111.1 227.698 110.248C230.095 109.396 232.224 107.926 233.87 105.986L233.911 105.937H233.972C234.632 106.077 235.3 106.212 235.981 106.294C237.824 106.556 239.699 106.5 241.524 106.13C243.314 105.781 244.97 104.937 246.304 103.695C247.566 102.448 248.402 100.836 248.694 99.0865C248.85 98.2511 248.831 97.3924 248.638 96.5647C248.446 95.737 248.084 94.9582 247.575 94.2775L247.477 94.1545L247.632 94.1135C248.477 93.8892 249.272 93.5096 249.977 92.9943C250.661 92.4741 251.251 91.842 251.724 91.1248C252.655 89.7118 253.198 88.0788 253.298 86.3896C253.354 85.5662 253.3 84.7391 253.138 83.9298C252.964 83.1457 252.706 82.3828 252.368 81.6544C251.686 80.2477 250.762 78.9722 249.637 77.8868C248.57 76.8478 247.377 75.9457 246.087 75.2015C244.873 74.4807 243.589 73.8872 242.254 73.4304C241.002 72.9934 239.684 72.7797 238.359 72.799C237.122 72.8142 235.922 73.2219 234.931 73.9634L234.87 74.0126L234.825 73.947C233.196 71.4805 230.656 69.7601 227.761 69.1626C226.593 68.9206 225.393 68.8776 224.211 69.0355C221.842 69.3716 219.637 70.4395 217.905 72.0898C217.573 72.4178 217.327 72.6802 217.176 72.8646C217.024 73.0491 216.938 73.1639 216.938 73.1639Z" fill="#263238"/>
<path d="M242.294 85.9428C242.294 86.1191 235.021 86.2626 226.055 86.2626C217.089 86.2626 209.82 86.1191 209.82 85.9428C209.82 85.7665 217.089 85.623 226.055 85.623C235.021 85.623 242.294 85.7665 242.294 85.9428Z" fill="#455A64"/>
<path d="M242.294 89.485C242.294 89.6613 235.021 89.8048 226.055 89.8048C217.089 89.8048 209.82 89.6613 209.82 89.485C209.82 89.3087 217.089 89.1611 226.055 89.1611C235.021 89.1611 242.294 89.2882 242.294 89.485Z" fill="#455A64"/>
<path d="M242.294 92.9902C242.294 93.1665 235.021 93.31 226.055 93.31C217.089 93.31 209.82 93.1665 209.82 92.9902C209.82 92.8139 217.089 92.6704 226.055 92.6704C235.021 92.6704 242.294 92.8139 242.294 92.9902Z" fill="#455A64"/>
<path d="M242.294 96.5119C242.294 96.6882 235.021 96.8317 226.055 96.8317C217.089 96.8317 209.82 96.6882 209.82 96.5119C209.82 96.3356 217.089 96.1921 226.055 96.1921C235.021 96.1921 242.294 96.3356 242.294 96.5119Z" fill="#455A64"/>
</svg>
