<svg width="224" height="225" viewBox="0 0 224 225" fill="none" xmlns="http://www.w3.org/2000/svg">
<path d="M15.8979 95.3175C15.8979 95.3175 12.1866 131.133 38.6405 160.828C65.0945 190.523 106.009 200.471 139.013 209.411C172.016 218.352 200.176 204.608 207.93 176.851C215.684 149.094 191.365 135.619 182 100.376C172.634 65.1343 175.311 54.7121 148.817 28.8714C122.323 3.03076 74.9482 6.12429 46.296 35.5286C17.6439 64.9328 15.8979 95.3175 15.8979 95.3175Z" fill="#137EE0"/>
<path opacity="0.7" d="M15.8979 95.3175C15.8979 95.3175 12.1866 131.133 38.6405 160.828C65.0945 190.523 106.009 200.471 139.013 209.411C172.016 218.352 200.176 204.608 207.93 176.851C215.684 149.094 191.365 135.619 182 100.376C172.634 65.1343 175.311 54.7121 148.817 28.8714C122.323 3.03076 74.9482 6.12429 46.296 35.5286C17.6439 64.9328 15.8979 95.3175 15.8979 95.3175Z" fill="white"/>
<path d="M147.607 37.2029H75.9546C72.3645 37.2029 69.4541 40.1132 69.4541 43.7033V195.9C69.4541 199.49 72.3645 202.4 75.9546 202.4H147.607C151.197 202.4 154.108 199.49 154.108 195.9V43.7033C154.108 40.1132 151.197 37.2029 147.607 37.2029Z" fill="#263238"/>
<path opacity="0.2" d="M76.747 37.2029C75.7889 37.2029 74.8402 37.3917 73.9551 37.7584C73.07 38.1252 72.2658 38.6628 71.5886 39.3405C70.9113 40.0182 70.3742 40.8227 70.008 41.708C69.6417 42.5933 69.4535 43.5421 69.4541 44.5002V195.103C69.4526 196.171 69.6861 197.225 70.138 198.192C70.5898 199.16 71.2489 200.015 72.0686 200.699L121.458 37.2029H76.747Z" fill="white"/>
<path d="M114.653 197.624C114.653 197.054 114.484 196.497 114.167 196.024C113.851 195.55 113.401 195.181 112.875 194.964C112.348 194.746 111.769 194.689 111.211 194.801C110.652 194.912 110.139 195.187 109.737 195.59C109.335 195.993 109.061 196.506 108.95 197.065C108.84 197.623 108.897 198.202 109.116 198.728C109.334 199.254 109.704 199.703 110.178 200.019C110.652 200.335 111.209 200.503 111.779 200.502C112.157 200.503 112.531 200.429 112.88 200.284C113.23 200.14 113.547 199.928 113.814 199.66C114.081 199.393 114.293 199.075 114.437 198.725C114.58 198.376 114.654 198.001 114.653 197.624V197.624Z" stroke="white" stroke-width="0.44769" stroke-linecap="round" stroke-linejoin="round"/>
<path d="M147.607 37.2029H75.9546C72.3645 37.2029 69.4541 40.1132 69.4541 43.7033V195.9C69.4541 199.49 72.3645 202.4 75.9546 202.4H147.607C151.197 202.4 154.108 199.49 154.108 195.9V43.7033C154.108 40.1132 151.197 37.2029 147.607 37.2029Z" stroke="#263238" stroke-width="0.44769" stroke-linecap="round" stroke-linejoin="round"/>
<path d="M150.339 48.4221H73.2158V192.596H150.339V48.4221Z" fill="white" stroke="#263238" stroke-width="0.44769" stroke-linecap="round" stroke-linejoin="round"/>
<path d="M147.715 49.9172H141.322V53.4226H147.715V49.9172Z" stroke="#263238" stroke-width="0.367583" stroke-linecap="round" stroke-linejoin="round"/>
<path d="M146.31 49.9172H141.322V53.4226H146.31V49.9172Z" fill="#263238" stroke="#263238" stroke-width="0.324608" stroke-linecap="round" stroke-linejoin="round"/>
<path d="M148.602 50.8977H147.702V52.4422H148.602V50.8977Z" fill="#263238" stroke="#263238" stroke-width="0.324608" stroke-linecap="round" stroke-linejoin="round"/>
<path d="M76.1251 51.0051H74.9521V53.0153H76.1251V51.0051Z" fill="#263238" stroke="#263238" stroke-width="0.395349" stroke-linecap="round" stroke-linejoin="round"/>
<path d="M77.9698 50.2979H76.7969V53.0153H77.9698V50.2979Z" fill="#263238" stroke="#263238" stroke-width="0.395349" stroke-linecap="round" stroke-linejoin="round"/>
<path d="M79.8097 49.4651H78.6367V53.0153H79.8097V49.4651Z" fill="#263238" stroke="#263238" stroke-width="0.395349" stroke-linecap="round" stroke-linejoin="round"/>
<path d="M148.516 55.3745H74.459V60.9438H148.516V55.3745Z" fill="#137EE0"/>
<path d="M144.085 134.638H121.324C120.578 134.638 119.863 134.934 119.336 135.462C118.809 135.989 118.513 136.704 118.513 137.45V140.243L112.89 142.773L118.513 144.282V146.028C118.513 146.773 118.809 147.488 119.336 148.016C119.863 148.543 120.578 148.839 121.324 148.839H144.107C144.853 148.839 145.568 148.543 146.095 148.016C146.622 147.488 146.919 146.773 146.919 146.028V137.454C146.919 137.083 146.846 136.715 146.704 136.372C146.561 136.029 146.352 135.717 146.089 135.455C145.825 135.194 145.512 134.987 145.168 134.846C144.825 134.706 144.456 134.635 144.085 134.638Z" fill="white" stroke="#263238" stroke-width="0.44769" stroke-miterlimit="10"/>
<path d="M128.719 141.967C128.719 142.202 128.65 142.431 128.519 142.626C128.389 142.822 128.203 142.974 127.986 143.063C127.769 143.153 127.53 143.176 127.3 143.13C127.07 143.084 126.858 142.971 126.693 142.804C126.527 142.638 126.414 142.426 126.369 142.196C126.324 141.965 126.348 141.726 126.438 141.51C126.529 141.293 126.682 141.108 126.877 140.978C127.073 140.848 127.303 140.78 127.538 140.781C127.693 140.781 127.847 140.811 127.991 140.871C128.135 140.931 128.265 141.018 128.375 141.128C128.485 141.238 128.572 141.369 128.631 141.513C128.69 141.657 128.72 141.811 128.719 141.967Z" fill="#263238"/>
<path d="M133.895 141.967C133.894 142.2 133.824 142.429 133.694 142.622C133.563 142.816 133.378 142.967 133.162 143.056C132.946 143.144 132.709 143.167 132.48 143.121C132.251 143.075 132.041 142.962 131.876 142.797C131.711 142.631 131.599 142.42 131.554 142.191C131.508 141.962 131.532 141.725 131.622 141.509C131.711 141.293 131.863 141.109 132.057 140.979C132.251 140.85 132.48 140.781 132.713 140.781C132.869 140.781 133.023 140.811 133.166 140.871C133.31 140.931 133.441 141.018 133.55 141.128C133.66 141.238 133.747 141.369 133.806 141.513C133.866 141.657 133.896 141.811 133.895 141.967Z" fill="#263238"/>
<path d="M139.075 141.967C139.075 142.202 139.005 142.431 138.875 142.626C138.745 142.821 138.559 142.973 138.343 143.063C138.126 143.153 137.887 143.176 137.657 143.13C137.427 143.085 137.216 142.972 137.05 142.806C136.884 142.64 136.771 142.428 136.725 142.198C136.679 141.968 136.703 141.73 136.792 141.513C136.882 141.296 137.034 141.111 137.229 140.98C137.425 140.85 137.654 140.781 137.889 140.781C138.203 140.781 138.505 140.906 138.727 141.128C138.95 141.35 139.075 141.652 139.075 141.967Z" fill="#263238"/>
<path d="M144.085 67.4847H121.324C120.579 67.4847 119.865 67.7803 119.338 68.3066C118.811 68.8329 118.514 69.5468 118.513 70.2917V73.0898L112.89 75.6192L118.513 77.1279V78.8739C118.513 79.6196 118.809 80.3347 119.336 80.862C119.863 81.3892 120.578 81.6854 121.324 81.6854H144.107C144.853 81.6854 145.568 81.3892 146.095 80.862C146.622 80.3347 146.919 79.6196 146.919 78.8739V70.3007C146.919 69.9292 146.846 69.5613 146.704 69.2182C146.561 68.8751 146.352 68.5636 146.089 68.3018C145.825 68.0399 145.512 67.8329 145.168 67.6927C144.825 67.5524 144.456 67.4818 144.085 67.4847Z" fill="white" stroke="#263238" stroke-width="0.44769" stroke-miterlimit="10"/>
<path d="M128.719 74.8133C128.719 75.0482 128.65 75.2777 128.519 75.4729C128.389 75.6681 128.203 75.8202 127.986 75.9098C127.769 75.9995 127.53 76.0227 127.3 75.9766C127.07 75.9304 126.858 75.817 126.693 75.6506C126.527 75.4843 126.414 75.2725 126.369 75.042C126.324 74.8116 126.348 74.5729 126.438 74.3562C126.529 74.1395 126.682 73.9545 126.877 73.8247C127.073 73.6949 127.303 73.6261 127.538 73.627C127.693 73.627 127.847 73.6577 127.991 73.7174C128.135 73.777 128.265 73.8645 128.375 73.9747C128.485 74.0849 128.572 74.2158 128.631 74.3597C128.69 74.5036 128.72 74.6578 128.719 74.8133Z" fill="#263238"/>
<path d="M133.895 74.8133C133.894 75.0469 133.824 75.275 133.694 75.4687C133.563 75.6625 133.378 75.8133 133.162 75.9021C132.946 75.9908 132.709 76.0136 132.48 75.9675C132.251 75.9214 132.041 75.8085 131.876 75.643C131.711 75.4775 131.599 75.2669 131.554 75.0378C131.508 74.8087 131.532 74.5712 131.622 74.3555C131.711 74.1398 131.863 73.9555 132.057 73.8258C132.251 73.6962 132.48 73.627 132.713 73.627C132.869 73.627 133.023 73.6577 133.166 73.7174C133.31 73.777 133.441 73.8645 133.55 73.9747C133.66 74.0849 133.747 74.2158 133.806 74.3597C133.866 74.5036 133.896 74.6577 133.895 74.8133Z" fill="#263238"/>
<path d="M139.075 74.8133C139.075 75.048 139.005 75.2774 138.875 75.4725C138.745 75.6675 138.559 75.8196 138.343 75.9094C138.126 75.9992 137.887 76.0227 137.657 75.9769C137.427 75.9311 137.216 75.8181 137.05 75.6522C136.884 75.4863 136.771 75.2749 136.725 75.0448C136.679 74.8146 136.703 74.5761 136.792 74.3593C136.882 74.1425 137.034 73.9573 137.229 73.8269C137.425 73.6965 137.654 73.627 137.889 73.627C138.203 73.627 138.505 73.7519 138.727 73.9744C138.95 74.1969 139.075 74.4987 139.075 74.8133Z" fill="#263238"/>
<path d="M79.8633 171.031H102.646C103.392 171.031 104.107 171.327 104.634 171.854C105.162 172.381 105.458 173.097 105.458 173.842V176.636L111.081 179.165L105.458 180.674V182.42C105.458 183.166 105.162 183.881 104.634 184.408C104.107 184.935 103.392 185.231 102.646 185.231H79.8633C79.1177 185.231 78.4025 184.935 77.8753 184.408C77.348 183.881 77.0518 183.166 77.0518 182.42V173.86C77.0495 173.489 77.1204 173.122 77.2607 172.779C77.4009 172.436 77.6076 172.124 77.8689 171.861C78.1302 171.598 78.441 171.389 78.7832 171.246C79.1255 171.104 79.4926 171.031 79.8633 171.031Z" fill="white" stroke="#263238" stroke-width="0.44769" stroke-miterlimit="10"/>
<path d="M95.2285 178.377C95.2276 178.612 95.2966 178.842 95.4266 179.038C95.5566 179.234 95.7419 179.387 95.9588 179.477C96.1758 179.567 96.4147 179.591 96.6452 179.546C96.8758 179.5 97.0876 179.387 97.2538 179.221C97.42 179.055 97.5331 178.843 97.5787 178.612C97.6243 178.382 97.6005 178.143 97.5101 177.926C97.4198 177.709 97.267 177.524 97.0712 177.394C96.8754 177.264 96.6454 177.195 96.4104 177.196C96.097 177.196 95.7963 177.32 95.5747 177.542C95.353 177.763 95.2285 178.064 95.2285 178.377Z" fill="#263238"/>
<path d="M90.0527 178.377C90.0527 178.611 90.1221 178.84 90.2519 179.034C90.3818 179.228 90.5664 179.38 90.7823 179.469C90.9983 179.559 91.2359 179.582 91.4652 179.537C91.6945 179.491 91.9051 179.378 92.0704 179.213C92.2357 179.048 92.3482 178.837 92.3938 178.608C92.4394 178.379 92.416 178.141 92.3266 177.925C92.2371 177.709 92.0856 177.525 91.8913 177.395C91.6969 177.265 91.4684 177.196 91.2346 177.196C90.9212 177.196 90.6206 177.32 90.3989 177.542C90.1773 177.763 90.0527 178.064 90.0527 178.377Z" fill="#263238"/>
<path d="M84.8731 178.377C84.8722 178.612 84.941 178.842 85.0708 179.038C85.2006 179.233 85.3856 179.386 85.6023 179.477C85.819 179.567 86.0577 179.591 86.2881 179.546C86.5186 179.501 86.7304 179.388 86.8967 179.222C87.0631 179.057 87.1765 178.845 87.2227 178.615C87.2688 178.385 87.2456 178.146 87.1559 177.929C87.0663 177.712 86.9142 177.526 86.719 177.396C86.5238 177.265 86.2943 177.196 86.0594 177.196C85.7456 177.196 85.4445 177.32 85.2221 177.541C84.9998 177.763 84.8742 178.064 84.8731 178.377Z" fill="#263238"/>
<path d="M79.8632 102.982H102.646C103.392 102.982 104.107 103.278 104.634 103.805C105.161 104.333 105.458 105.048 105.458 105.793V108.587L111.081 111.116L105.458 112.625V114.371C105.458 115.117 105.161 115.832 104.634 116.359C104.107 116.886 103.392 117.183 102.646 117.183H79.8632C79.1176 117.183 78.4025 116.886 77.8752 116.359C77.348 115.832 77.0518 115.117 77.0518 114.371V105.789C77.0529 105.044 77.3497 104.33 77.8768 103.804C78.4039 103.278 79.1184 102.982 79.8632 102.982Z" fill="white" stroke="#263238" stroke-width="0.44769" stroke-miterlimit="10"/>
<path d="M95.2285 110.306C95.2285 110.541 95.2982 110.771 95.4288 110.966C95.5593 111.161 95.7449 111.313 95.9619 111.403C96.179 111.492 96.4177 111.516 96.648 111.47C96.8783 111.423 97.0896 111.31 97.2554 111.144C97.4211 110.977 97.5338 110.765 97.579 110.535C97.6243 110.305 97.6002 110.066 97.5097 109.849C97.4192 109.632 97.2664 109.447 97.0708 109.318C96.8751 109.188 96.6453 109.119 96.4104 109.12C96.2548 109.12 96.1008 109.151 95.9571 109.21C95.8134 109.27 95.6829 109.357 95.5731 109.468C95.4633 109.578 95.3763 109.709 95.3172 109.853C95.2581 109.997 95.2279 110.151 95.2285 110.306Z" fill="#263238"/>
<path d="M90.0527 110.306C90.0536 110.54 90.1237 110.768 90.2541 110.962C90.3845 111.155 90.5694 111.306 90.7854 111.395C91.0015 111.484 91.239 111.507 91.468 111.46C91.6969 111.414 91.9071 111.301 92.0719 111.136C92.2368 110.97 92.3489 110.76 92.3942 110.531C92.4394 110.302 92.4157 110.064 92.3261 109.848C92.2366 109.633 92.0851 109.448 91.8908 109.319C91.6965 109.189 91.4682 109.12 91.2346 109.12C91.0791 109.12 90.925 109.151 90.7813 109.21C90.6376 109.27 90.5071 109.357 90.3973 109.468C90.2875 109.578 90.2006 109.709 90.1414 109.853C90.0823 109.996 90.0522 110.151 90.0527 110.306Z" fill="#263238"/>
<path d="M84.873 110.306C84.873 110.541 84.9426 110.77 85.073 110.965C85.2034 111.16 85.3886 111.313 85.6054 111.402C85.8222 111.492 86.0607 111.516 86.2909 111.47C86.521 111.424 86.7324 111.311 86.8983 111.145C87.0642 110.979 87.1772 110.768 87.223 110.538C87.2688 110.308 87.2453 110.069 87.1555 109.852C87.0657 109.635 86.9136 109.45 86.7185 109.32C86.5234 109.189 86.2941 109.12 86.0594 109.12C85.7448 109.12 85.443 109.245 85.2205 109.467C84.998 109.69 84.873 109.992 84.873 110.306Z" fill="#263238"/>
<path d="M113.023 101.142C112.495 98.8097 110.454 90.0439 109.178 88.3248C107.705 86.3371 99.1808 81.7214 97.9631 80.8887C96.7454 80.056 94.8875 79.4158 94.31 79.4158C94.31 79.4158 89.6316 81.0185 85.0204 82.2362C80.4092 83.4539 77.8574 84.2866 77.3291 85.8177C76.8814 87.1608 74.8355 98.4515 74.3564 101.133L113.023 101.142Z" fill="#616161" stroke="#263238" stroke-width="0.44769" stroke-linecap="round" stroke-linejoin="round"/>
<path d="M85.0608 100.341C84.8668 96.995 84.6772 93.6523 84.4922 90.3125" stroke="#263238" stroke-width="0.44769" stroke-linecap="round" stroke-linejoin="round"/>
<path d="M97.7709 89.6679C99.9512 89.35 101.169 85.3745 101.491 83.7091C101.536 83.4674 101.581 83.2614 101.621 83.06C99.884 82.0348 98.4156 81.2021 97.9635 80.8887C96.7457 80.056 94.8878 79.4158 94.3103 79.4158C94.3103 79.4158 92.6046 80.0022 90.2363 80.732C90.5542 81.4572 91.3645 83.248 92.5822 85.6342C94.185 88.7725 95.5952 89.9992 97.7709 89.6679Z" fill="white" stroke="#263238" stroke-width="0.44769" stroke-linecap="round" stroke-linejoin="round"/>
<path d="M92.8993 73.5823C92.8993 73.5823 92.2591 80.1858 92.1964 80.5708C92.1338 80.9558 93.0291 83.5166 94.5692 85.8893C96.1093 88.2621 98.1507 88.0696 99.1804 86.0147C99.9501 84.298 100.572 82.5187 101.038 80.6961C100.042 80.4822 99.106 80.05 98.297 79.4307C97.488 78.8114 96.8265 78.0204 96.36 77.1146C94.8244 74.0345 93.5395 72.687 92.8993 73.5823Z" fill="#B2B2B2" stroke="#263238" stroke-width="0.44769" stroke-linecap="round" stroke-linejoin="round"/>
<path d="M97.3227 57.8819C97.3227 57.8819 93.2218 59.0996 91.7489 62.3051C90.5491 64.9106 91.2341 68.9712 91.7489 70.3142C92.2638 71.6573 92.4518 74.2897 93.4143 76.6625C94.3769 79.0352 96.9377 82.0348 99.1179 82.4825C101.298 82.9301 105.591 79.4695 106.729 77.8712C107.866 76.273 107.499 73.5107 107.624 73.0631C107.749 72.6154 109.415 69.4099 109.227 65.4523C109.039 61.4948 103.541 56.794 97.3227 57.8819Z" fill="#B2B2B2" stroke="#263238" stroke-width="0.44769" stroke-linecap="round" stroke-linejoin="round"/>
<path d="M105.206 72.6243C105.206 72.6243 105.784 76.3401 104.884 76.7251C103.984 77.1101 102.256 76.5326 102.001 76.0178" stroke="#263238" stroke-width="0.44769" stroke-linecap="round" stroke-linejoin="round"/>
<path d="M101.491 78.0055C100.498 77.5421 99.638 76.8371 98.9884 75.9551C98.9884 75.9551 97.5782 78.0682 99.1183 78.6412C99.528 78.8148 99.9841 78.8466 100.414 78.7314C100.844 78.6162 101.223 78.3607 101.491 78.0055Z" fill="#263238" stroke="#263238" stroke-width="0.44769" stroke-linecap="round" stroke-linejoin="round"/>
<path d="M102.239 72.5078C102.082 73.0137 101.751 73.3629 101.495 73.2868C101.24 73.2107 101.164 72.7361 101.316 72.2258C101.469 71.7154 101.804 71.3707 102.055 71.4468C102.306 71.5229 102.391 71.9975 102.239 72.5078Z" fill="#263238"/>
<path d="M106.725 73.2107C106.568 73.7211 106.237 74.0703 105.982 73.9897C105.727 73.9091 105.65 73.4391 105.803 72.9332C105.955 72.4273 106.291 72.0736 106.546 72.1497C106.801 72.2258 106.877 72.7048 106.725 73.2107Z" fill="#263238"/>
<path d="M103.542 70.2245C103.435 70.2256 103.333 70.1855 103.255 70.1126C102.06 68.9665 100.721 70.0231 100.663 70.0678C100.621 70.1019 100.573 70.1274 100.521 70.1429C100.469 70.1583 100.414 70.1633 100.361 70.1577C100.307 70.1521 100.255 70.1359 100.207 70.1101C100.159 70.0844 100.117 70.0494 100.083 70.0074C100.049 69.9654 100.024 69.917 100.008 69.8652C99.9929 69.8133 99.9878 69.7588 99.9934 69.705C99.999 69.6512 100.015 69.599 100.041 69.5514C100.067 69.5038 100.102 69.4618 100.144 69.4277C100.661 68.9858 101.322 68.7502 102.002 68.7659C102.682 68.7816 103.332 69.0475 103.828 69.5127C103.906 69.5907 103.949 69.6961 103.949 69.806C103.949 69.9158 103.906 70.0212 103.828 70.0992C103.791 70.1379 103.747 70.1689 103.697 70.1905C103.648 70.212 103.595 70.2235 103.542 70.2245Z" fill="#263238"/>
<path d="M108.281 71.6439C108.212 71.6437 108.144 71.6264 108.083 71.5936C108.022 71.5608 107.971 71.5135 107.932 71.4559C107.851 71.2929 107.734 71.1499 107.591 71.0369C107.448 70.924 107.282 70.8439 107.104 70.8022C106.793 70.7892 106.489 70.8912 106.249 71.0887C106.209 71.1249 106.162 71.1528 106.111 71.1708C106.06 71.1888 106.006 71.1965 105.951 71.1936C105.897 71.1907 105.845 71.1772 105.796 71.1538C105.747 71.1304 105.703 71.0977 105.667 71.0574C105.631 71.0171 105.603 70.9701 105.585 70.9191C105.567 70.868 105.559 70.814 105.562 70.7599C105.565 70.7059 105.579 70.6529 105.602 70.6041C105.625 70.5553 105.658 70.5116 105.698 70.4754C105.905 70.2956 106.146 70.1594 106.407 70.0748C106.668 69.9902 106.943 69.9589 107.216 69.9829C107.514 70.0364 107.796 70.1563 108.041 70.3338C108.285 70.5113 108.487 70.7418 108.631 71.0082C108.671 71.0706 108.694 71.1428 108.697 71.2171C108.699 71.2915 108.682 71.3651 108.646 71.4303C108.61 71.4955 108.557 71.5498 108.493 71.5874C108.429 71.625 108.356 71.6445 108.281 71.6439Z" fill="#263238"/>
<path d="M91.8563 70.641C91.8832 70.7215 91.9055 70.8021 91.9279 70.8872V70.9409C91.9548 71.0304 91.9772 71.1245 91.9996 71.2185V71.2453C91.9996 71.3528 92.0488 71.4602 92.0712 71.5722L94.0947 71.1245C94.0947 71.1245 95.9527 71.5095 96.2123 70.8693C96.472 70.2291 95.2498 69.2666 96.1452 68.3085C97.0405 67.3504 99.5431 67.9862 99.7983 66.7684C100.053 65.5507 100.694 61.1947 105.887 62.5378C106.946 62.8826 107.961 63.3483 108.913 63.9256C107.651 60.3799 102.744 56.9058 97.3002 57.8594C97.3002 57.8594 93.1994 59.0771 91.7265 62.2826C90.5267 64.8881 91.2116 68.9487 91.7265 70.2918C91.7578 70.3768 91.7891 70.4708 91.8205 70.5648L91.8563 70.641Z" fill="#263238" stroke="#263238" stroke-width="0.44769" stroke-linecap="round" stroke-linejoin="round"/>
<path d="M95.0174 72.2392C95.0174 72.2392 94.4399 69.7411 92.8998 69.4814C91.3598 69.2218 90.7867 71.0842 91.1091 72.7496C91.4314 74.415 93.0923 75.955 94.5697 75.5073" fill="#B2B2B2"/>
<path d="M95.0174 72.2392C95.0174 72.2392 94.4399 69.7411 92.8998 69.4814C91.3598 69.2218 90.7867 71.0842 91.1091 72.7496C91.4314 74.415 93.0923 75.955 94.5697 75.5073" stroke="#263238" stroke-width="0.44769" stroke-linecap="round" stroke-linejoin="round"/>
<path d="M100.094 101.142C101.263 99.8707 103.98 96.9204 104.182 96.7189C104.383 96.5175 104.822 96.4638 106.295 96.0788C107.768 95.6937 110.203 94.861 110.588 94.5387C111.166 94.1702 111.685 93.7175 112.128 93.1956C112.441 92.6804 112.719 92.145 112.961 91.5929C113.154 91.2706 114.689 90.5677 115.074 90.2498C115.459 89.932 115.844 89.2918 115.714 88.9694C115.585 88.6471 113.346 89.2918 111.296 89.7395C110.198 89.9929 109.083 90.1635 107.96 90.2498C107.96 90.2498 109.115 88.5844 109.818 87.8144C110.521 87.0444 110.266 85.379 109.756 86.0236C109.245 86.6683 105.977 89.9991 105.279 90.2543C104.58 90.5095 102.973 92.8823 101.881 93.9746C100.985 94.87 93.7059 99.5842 91.2705 101.138L100.094 101.142Z" fill="#B2B2B2" stroke="#263238" stroke-width="0.44769" stroke-linecap="round" stroke-linejoin="round"/>
<path d="M112.961 91.5928L110.78 92.3628" stroke="#263238" stroke-width="0.44769" stroke-linecap="round" stroke-linejoin="round"/>
<path d="M149.054 101.142H75.6191" stroke="#263238" stroke-width="0.44769" stroke-linecap="round" stroke-linejoin="round"/>
<path d="M148.88 133.77C148.657 132.064 147.703 125.38 146.297 122.309C145.622 120.815 144.637 119.481 143.407 118.396C142.178 117.311 140.732 116.499 139.166 116.014C136.591 115.235 133.234 114.577 131.555 114.815C131.555 114.815 125.981 116.735 123.586 117.272C121.191 117.81 118.706 119.488 117.685 120.93C116.79 122.21 112.098 131.697 111.082 133.77H148.88Z" fill="white" stroke="#263238" stroke-width="0.44769" stroke-linecap="round" stroke-linejoin="round"/>
<path d="M148.881 133.77C148.657 132.064 147.703 125.38 146.297 122.309C145.622 120.815 144.637 119.481 143.408 118.396C142.178 117.311 140.732 116.499 139.166 116.014C136.592 115.235 133.234 114.577 131.555 114.815C131.555 114.815 127.736 116.131 125.059 116.887C124.222 118.195 122.342 121.096 120.582 123.567C118.344 126.701 117.448 131.231 118.662 133.77H148.881Z" fill="#137EE0" stroke="#263238" stroke-width="0.44769" stroke-linecap="round" stroke-linejoin="round"/>
<path d="M127.959 111.34C128.507 113.432 128.71 115.599 128.559 117.756C128.317 121.413 126.401 123.75 127.122 125.608C127.843 127.466 130.704 128.182 133.233 126.208C135.763 124.234 136.228 119.376 136.291 117.219C136.353 115.061 137.37 108.354 137.37 108.354C137.37 108.354 134.684 111.528 131.55 111.649C128.416 111.77 127.959 111.34 127.959 111.34Z" fill="white" stroke="#263238" stroke-width="0.44769" stroke-linecap="round" stroke-linejoin="round"/>
<path d="M128.618 94.2029C128.618 94.2029 124.589 94.9192 122.749 98.4559C120.958 101.845 121.809 107.544 123.577 110.92C125.816 115.182 125.681 116.641 125.704 120.406C125.725 120.66 125.694 120.916 125.613 121.158C125.531 121.4 125.4 121.623 125.229 121.812C124.307 122.707 124.186 121.364 123.944 122.125C123.703 122.886 126.183 124.57 128.739 122.345C130.396 120.899 130.776 116.856 129.997 114.515C129.218 112.173 125.323 107.325 126.165 103.551C127.007 99.7766 129.939 96.6607 130.194 95.2191C130.449 93.7776 128.618 94.2029 128.618 94.2029Z" fill="#263238"/>
<path d="M128.787 96.3965C128.787 96.3965 121.821 100.573 122.909 107.038C123.997 113.503 130.968 115.392 130.31 122.054" stroke="#636363" stroke-width="0.44769" stroke-linecap="round" stroke-linejoin="round"/>
<path d="M128.618 94.2029C128.618 94.2029 124.589 94.9192 122.749 98.4559C120.958 101.845 121.809 107.544 123.577 110.92C125.816 115.182 125.681 116.641 125.704 120.406C125.725 120.66 125.694 120.916 125.613 121.158C125.531 121.4 125.4 121.623 125.229 121.812C124.307 122.707 124.186 121.364 123.944 122.125C123.703 122.886 126.183 124.57 128.739 122.345C130.396 120.899 130.776 116.856 129.997 114.515C129.218 112.173 125.323 107.325 126.165 103.551C127.007 99.7766 129.939 96.6607 130.194 95.2191C130.449 93.7776 128.618 94.2029 128.618 94.2029Z" stroke="#263238" stroke-width="0.44769" stroke-linecap="round" stroke-linejoin="round"/>
<path d="M139.774 133.77H148.88V133.685V133.617V133.519V133.425V133.385V133.295V133.268V133.152V133.031V133V132.892V132.843C148.882 132.803 148.882 132.762 148.88 132.722V132.691C148.88 132.646 148.88 132.601 148.88 132.556V132.525C148.88 132.48 148.88 132.44 148.88 132.4V132.342C148.88 132.301 148.88 132.261 148.88 132.216V132.171L148.853 132.01L148.826 131.849V131.813L148.799 131.639C148.799 131.572 148.777 131.504 148.768 131.437C148.737 131.231 148.701 131.016 148.665 130.797C148.665 130.73 148.665 130.663 148.629 130.596V130.573C148.629 130.506 148.607 130.439 148.594 130.372V130.34C148.594 130.278 148.571 130.215 148.558 130.148V130.099C148.558 130.04 148.558 129.982 148.526 129.924V129.852L148.5 129.696V129.615L148.473 129.463V129.387C148.473 129.333 148.45 129.279 148.441 129.226V129.15C148.441 129.096 148.419 129.042 148.41 128.988V128.908C148.41 128.854 148.41 128.805 148.379 128.751V128.67C148.379 128.617 148.379 128.563 148.347 128.509V128.424C148.347 128.375 148.325 128.321 148.316 128.268V128.182C148.316 128.129 148.294 128.08 148.28 128.026V127.941C148.28 127.887 148.28 127.833 148.244 127.78C148.246 127.753 148.246 127.726 148.244 127.699C148.244 127.645 148.222 127.587 148.213 127.533V127.453L147.738 127.157V127.09C147.738 127.027 147.712 126.96 147.694 126.893V126.848L147.64 126.616C147.604 126.454 147.564 126.293 147.524 126.132V126.096C147.524 126.029 147.492 125.962 147.479 125.895V125.823L147.438 125.662C147.429 125.634 147.422 125.606 147.416 125.577L147.376 125.425C147.376 125.398 147.376 125.367 147.353 125.34C147.331 125.313 147.331 125.246 147.318 125.196L147.291 125.102C147.291 125.058 147.268 125.013 147.255 124.968L147.228 124.874L147.192 124.744L147.165 124.646C147.165 124.605 147.143 124.565 147.13 124.52L147.103 124.426C147.089 124.387 147.077 124.346 147.067 124.305C147.067 124.27 147.045 124.238 147.036 124.207C147.027 124.176 147.036 124.126 147 124.091C146.964 124.055 147 124.028 146.968 123.992C146.959 123.954 146.947 123.917 146.933 123.88C146.924 123.848 146.914 123.817 146.901 123.786C146.891 123.747 146.879 123.708 146.865 123.67C146.865 123.643 146.865 123.612 146.834 123.58C146.803 123.549 146.812 123.504 146.798 123.468C146.785 123.433 146.776 123.41 146.767 123.379L146.727 123.271C146.718 123.242 146.708 123.214 146.695 123.186C146.685 123.15 146.673 123.114 146.66 123.079C146.647 123.053 146.637 123.026 146.628 122.998L146.588 122.891C146.588 122.864 146.588 122.837 146.557 122.815L146.512 122.707L146.485 122.636C146.485 122.595 146.454 122.56 146.436 122.524C146.426 122.504 146.419 122.483 146.413 122.461L146.337 122.3C145.692 120.887 144.771 119.618 143.627 118.567C142.484 117.516 141.142 116.704 139.68 116.18C139.282 117.572 138.279 121.467 138.521 124.686C138.735 127.748 139.443 131.921 139.774 133.77Z" fill="white" stroke="#263238" stroke-width="0.44769" stroke-linecap="round" stroke-linejoin="round"/>
<path d="M129.16 94.4402C129.16 94.4402 126.881 96.1772 126.165 98.0978C125.448 100.018 124.844 104.867 124.965 106.787C125.086 108.708 127.539 112.061 128.546 112.898C129.554 113.736 133.918 112.778 135.978 110.861C137.402 109.518 138.615 104.93 137.657 100.435C136.699 95.9399 132.096 93.3612 129.16 94.4402Z" fill="white" stroke="#263238" stroke-width="0.44769" stroke-linecap="round" stroke-linejoin="round"/>
<path d="M131.138 103.192C131.138 103.192 132.454 101.814 134.67 102.951" stroke="#263238" stroke-width="0.44769" stroke-linecap="round" stroke-linejoin="round"/>
<path d="M127.901 102.414C127.799 101.987 127.583 101.595 127.278 101.28C126.972 100.965 126.588 100.738 126.164 100.623" stroke="#263238" stroke-width="0.44769" stroke-linecap="round" stroke-linejoin="round"/>
<path d="M128.98 101.813C128.98 101.813 128.859 102.951 128.438 103.371C128.017 103.792 127.122 104.209 127.48 105.05C127.838 105.892 128.917 106.067 129.396 105.588" stroke="#263238" stroke-width="0.44769" stroke-linecap="round" stroke-linejoin="round"/>
<path d="M126.281 99.4766C126.281 99.4766 127.302 98.2186 128.967 99.4766" stroke="#263238" stroke-width="0.44769" stroke-linecap="round" stroke-linejoin="round"/>
<path d="M130.838 100.076C130.838 100.076 132.812 98.8767 134.37 101.093" stroke="#263238" stroke-width="0.44769" stroke-linecap="round" stroke-linejoin="round"/>
<path d="M127.359 106.966C127.359 106.966 128.201 108.104 130.493 107.804C132.785 107.504 133.309 106.546 133.309 106.546" stroke="#263238" stroke-width="0.44769" stroke-linecap="round" stroke-linejoin="round"/>
<path d="M132.813 103.161C132.813 103.274 132.78 103.383 132.717 103.477C132.655 103.57 132.566 103.643 132.462 103.686C132.358 103.729 132.244 103.741 132.133 103.719C132.023 103.697 131.922 103.643 131.842 103.563C131.763 103.484 131.709 103.382 131.687 103.272C131.665 103.162 131.676 103.047 131.719 102.944C131.762 102.84 131.835 102.751 131.928 102.688C132.022 102.626 132.132 102.593 132.244 102.593C132.395 102.593 132.54 102.652 132.646 102.759C132.753 102.866 132.813 103.01 132.813 103.161Z" fill="#263238"/>
<path d="M127.538 101.841C127.538 101.953 127.505 102.063 127.443 102.156C127.38 102.25 127.291 102.323 127.188 102.366C127.084 102.409 126.969 102.42 126.859 102.398C126.749 102.376 126.647 102.322 126.568 102.243C126.488 102.163 126.434 102.062 126.412 101.951C126.39 101.841 126.402 101.727 126.445 101.623C126.488 101.519 126.561 101.43 126.654 101.368C126.748 101.305 126.857 101.272 126.97 101.272C127.121 101.272 127.265 101.332 127.372 101.439C127.479 101.545 127.538 101.69 127.538 101.841Z" fill="#263238"/>
<path d="M128.68 107.745C128.68 107.745 129.638 109.724 131.317 109.536C132.995 109.348 132.875 107.011 132.875 107.011C131.61 107.751 130.121 108.012 128.68 107.745Z" fill="#263238" stroke="#263238" stroke-width="0.44769" stroke-linecap="round" stroke-linejoin="round"/>
<path d="M134.129 89.2917H133.995C131.846 89.5379 129.025 89.9901 127.302 91.3735C125.202 93.0478 125.923 93.4687 127.839 94.4267C129.755 95.3848 135.45 98.5634 135.991 103.116C136.533 107.669 134.671 114.801 133.775 118.038C132.88 121.275 134.071 123.491 135.812 125.049C136.205 125.413 136.671 125.689 137.179 125.857C137.687 126.026 138.226 126.083 138.758 126.025C139.734 125.926 140.961 125.667 141.735 125.031C141.82 124.964 142.801 123.929 142.631 123.791C141.771 123.061 140.737 124.109 140.213 123.106C139.143 121.046 140.804 118.58 141.928 116.887C142.846 115.504 144.372 114.649 145.303 113.306C146.209 111.857 146.759 110.214 146.906 108.511C147.331 104.867 146.647 101.003 145.366 97.5874C143.705 93.1553 140.267 89.2156 135.204 89.229C134.854 89.2335 134.487 89.2514 134.129 89.2917Z" fill="#263238"/>
<path d="M124.642 91.1721C124.642 91.1721 130.909 91.8481 134.903 97.2697C138.896 102.691 140.033 106.371 139.935 111.403C139.836 116.435 143.906 118.763 146.905 117.308" stroke="#636363" stroke-width="0.44769" stroke-linecap="round" stroke-linejoin="round"/>
<path d="M130.157 89.623C130.157 89.623 138.292 91.1721 140.902 99.3021C143.512 107.432 142.455 112.384 145.947 113.051" stroke="#636363" stroke-width="0.44769" stroke-linecap="round" stroke-linejoin="round"/>
<path d="M134.222 104.822C134.222 104.822 137.226 112.084 136.46 118.956C135.695 125.828 138.699 127.09 143.529 125.828" stroke="#636363" stroke-width="0.44769" stroke-linecap="round" stroke-linejoin="round"/>
<path d="M134.129 89.2917H133.995C131.846 89.5379 129.025 89.9901 127.302 91.3735C125.202 93.0478 125.923 93.4687 127.839 94.4267C129.755 95.3848 135.45 98.5634 135.991 103.116C136.533 107.669 134.671 114.801 133.775 118.038C132.88 121.275 134.071 123.491 135.812 125.049C136.205 125.413 136.671 125.689 137.179 125.857C137.687 126.026 138.226 126.083 138.758 126.025C139.734 125.926 140.961 125.667 141.735 125.031C141.82 124.964 142.801 123.929 142.631 123.791C141.771 123.061 140.737 124.109 140.213 123.106C139.143 121.046 140.804 118.58 141.928 116.887C142.846 115.504 144.372 114.649 145.303 113.306C146.209 111.857 146.759 110.214 146.906 108.511C147.331 104.867 146.647 101.003 145.366 97.5874C143.705 93.1553 140.267 89.2156 135.204 89.229C134.854 89.2335 134.487 89.2514 134.129 89.2917Z" stroke="#263238" stroke-width="0.44769" stroke-linecap="round" stroke-linejoin="round"/>
<path d="M104.949 122.788C105.432 123.226 106.005 123.553 106.627 123.746C106.627 123.746 107.585 126.683 107.523 129.02C107.518 130.609 107.628 132.197 107.854 133.77H115.196C113.851 131.45 112.706 129.019 111.776 126.504C110.639 123.088 111.118 121.167 110.339 118.951C109.56 116.735 109.197 115.656 107.881 113.919C106.565 112.182 105.365 112.719 105.365 113.319C105.365 113.919 106.081 114.156 106.623 114.998C106.993 115.621 107.293 116.283 107.518 116.972C107.518 116.972 104.998 118.114 104.282 119.372C103.565 120.63 104.17 122.067 104.949 122.788Z" fill="white" stroke="#263238" stroke-width="0.44769" stroke-linecap="round" stroke-linejoin="round"/>
<path d="M103.211 118.414C103.211 118.414 102.253 119.309 102.253 120.205C102.253 121.1 102.969 122.362 103.332 122.362C103.694 122.362 103.869 121.704 103.69 121.046C103.511 120.388 103.211 118.414 103.211 118.414Z" fill="white" stroke="#263238" stroke-width="0.44769" stroke-linecap="round" stroke-linejoin="round"/>
<path d="M104.349 117.152C104.349 117.152 103.212 117.872 102.912 118.772C102.812 119.163 102.804 119.572 102.887 119.967C102.97 120.362 103.142 120.733 103.391 121.051C103.749 121.588 104.828 121.709 105.128 121.409C105.428 121.109 105.186 120.451 105.128 120.066C105.07 119.681 104.47 118.508 104.528 117.971C104.563 117.692 104.584 117.411 104.591 117.129L104.349 117.152Z" fill="white" stroke="#263238" stroke-width="0.44769" stroke-linecap="round" stroke-linejoin="round"/>
<path d="M107.527 116.972C107.527 116.972 105.965 116.014 104.77 116.672C103.574 117.33 103.628 118.651 104.049 119.609C104.47 120.567 105.549 121.109 106.028 120.688C106.507 120.267 105.965 119.609 106.086 118.714C106.207 117.818 107.527 116.972 107.527 116.972Z" fill="white" stroke="#263238" stroke-width="0.44769" stroke-linecap="round" stroke-linejoin="round"/>
<path d="M109.085 118.651C109.085 118.651 107.822 116.972 106.685 117.093C105.548 117.214 103.69 119.332 104.048 119.851C104.406 120.37 106.551 119.546 106.551 119.546C106.551 119.546 105.951 121.525 107.446 121.942" fill="white"/>
<path d="M109.085 118.651C109.085 118.651 107.822 116.972 106.685 117.093C105.548 117.214 103.69 119.332 104.048 119.851C104.406 120.37 106.551 119.546 106.551 119.546C106.551 119.546 105.951 121.525 107.446 121.942" stroke="#263238" stroke-width="0.44769" stroke-linecap="round" stroke-linejoin="round"/>
<path d="M149.055 133.77H75.6201" stroke="#263238" stroke-width="0.44769" stroke-linecap="round" stroke-linejoin="round"/>
<path d="M149.054 169.177H75.6191" stroke="#263238" stroke-width="0.44769" stroke-linecap="round" stroke-linejoin="round"/>
<path d="M115.114 169.034C115.114 169.034 115.768 163.241 113.521 161.719C111.273 160.197 101.505 153.177 97.7395 152.318C93.9744 151.458 91.6599 150.652 90.1288 151.521C88.5977 152.389 82.321 158.048 79.7155 159.839C77.1099 161.629 75.8072 163.532 75.4445 164.907C75.2196 166.124 75.1459 167.365 75.2252 168.6V169.177C75.2252 169.177 115.262 168.887 115.114 169.034Z" fill="#263238" stroke="#263238" stroke-width="0.44769" stroke-linecap="round" stroke-linejoin="round"/>
<path d="M90.1377 151.512C89.5379 151.9 88.9623 152.325 88.4141 152.783C88.4304 154.272 88.7345 155.743 89.3094 157.117C91.1808 161.665 95.3935 164.244 98.7109 162.878C101.54 161.714 102.825 158.079 102.006 154.225C100.666 153.413 99.232 152.769 97.735 152.309C93.9744 151.44 91.6598 150.643 90.1377 151.512Z" fill="white" stroke="#263238" stroke-width="0.44769" stroke-linecap="round" stroke-linejoin="round"/>
<path d="M91.0059 144.707C91.0059 144.707 90.8627 149.126 90.5 151.006C90.1374 152.886 90.1374 155.425 91.9506 158.617C93.7637 161.809 98.1734 161.656 99.5613 160.407C100.949 159.158 100.645 155.702 100.645 154.399C100.645 153.097 101.41 150.034 101.41 150.034C101.41 150.034 97.1706 148.391 94.9993 146.945C92.828 145.499 91.7312 144.273 91.0059 144.707Z" fill="white" stroke="#263238" stroke-width="0.44769" stroke-linecap="round" stroke-linejoin="round"/>
<path d="M102.521 132.91C102.521 132.91 104.258 135.878 104.692 136.747C104.862 137.13 104.932 137.551 104.893 137.968C104.855 138.386 104.71 138.787 104.472 139.133C104.078 139.684 107.606 141.403 107.544 142.307C107.481 143.211 107.163 143.708 106.451 144.734C105.672 145.853 105.963 147.729 105.619 149.045C105.328 150.164 104.969 150.442 103.828 150.862C101.652 151.659 97.6004 151.368 95.5724 150.357C93.5443 149.345 92.8236 147.532 92.0983 146.229C91.373 144.926 91.3014 142.535 91.7357 140.001C92.1699 137.468 95.5724 134.065 97.7437 133.125C99.915 132.185 102.521 132.91 102.521 132.91Z" fill="white" stroke="#263238" stroke-width="0.44769" stroke-linecap="round" stroke-linejoin="round"/>
<path d="M104.616 146.301C104.021 146.459 103.401 146.495 102.792 146.408C102.183 146.321 101.597 146.113 101.07 145.795C101.07 145.795 101.07 147.966 102.158 148.033C103.246 148.1 104.616 146.301 104.616 146.301Z" fill="#263238"/>
<path d="M102.521 140.44C102.633 140.928 102.521 141.371 102.261 141.43C102.001 141.488 101.715 141.139 101.603 140.651C101.491 140.163 101.603 139.719 101.862 139.661C102.122 139.603 102.395 139.952 102.521 140.44Z" fill="#263238"/>
<path d="M99.6963 138.99C99.9462 138.614 100.294 138.315 100.702 138.123C101.11 137.931 101.563 137.855 102.011 137.902" stroke="#263238" stroke-width="0.44769" stroke-linecap="round" stroke-linejoin="round"/>
<path d="M106.644 144.053C106.644 144.053 105.524 145.262 104.83 145.351C104.137 145.441 103.362 144.487 103.707 143.883" stroke="#263238" stroke-width="0.44769" stroke-linecap="round" stroke-linejoin="round"/>
<path d="M93.8311 144.707C94.1758 144.595 95.8591 144.854 95.6219 143.91C95.3846 142.965 94.9011 142.826 95.2592 142.119C95.6174 141.412 99.3153 139.657 98.5184 138.211C97.9885 137.276 97.358 136.403 96.6381 135.605C96.6381 135.605 102.718 134.446 104.021 132.637C105.323 130.828 103.877 128.003 102.355 128.003C100.833 128.003 101.558 128.509 97.5066 129.794C93.455 131.079 91.4225 129.508 88.3827 132.691C85.3429 135.874 86.2831 142.092 87.4426 144.058C88.6021 146.023 90.9166 147.603 92.0762 147.169C93.2357 146.735 92.9626 144.998 93.8311 144.707Z" fill="#263238" stroke="#263238" stroke-width="0.44769" stroke-linecap="round" stroke-linejoin="round"/>
<path d="M94.9096 145.36C94.9096 145.36 92.2235 141.958 90.4327 143.041C88.642 144.125 91.3012 147.388 92.4607 147.751C93.6203 148.114 94.9947 147.241 94.9947 147.241" fill="white"/>
<path d="M94.9096 145.36C94.9096 145.36 92.2235 141.958 90.4327 143.041C88.642 144.125 91.3012 147.388 92.4607 147.751C93.6203 148.114 94.9947 147.241 94.9947 147.241" stroke="#263238" stroke-width="0.44769" stroke-linecap="round" stroke-linejoin="round"/>
<path d="M148.57 189.802H75.0635" stroke="#263238" stroke-width="0.44769" stroke-linecap="round" stroke-linejoin="round"/>
<path d="M110.015 187.877C110.015 187.877 109.948 183.893 110.543 183.293C111.139 182.693 125.818 174.662 129.937 174.724C134.056 174.787 139.683 180.396 142.687 181.887C147.469 184.278 147.469 185.603 147.867 186.933C148.266 188.262 148.597 189.789 148.597 189.789H110.015V187.877Z" fill="white"/>
<path d="M148.409 188.988C147.298 188.912 146.103 188.844 144.827 188.791L145.337 185.594L147.442 185.684C147.175 185.12 146.794 184.619 146.322 184.211L145.561 184.179L145.646 183.66C145.543 183.584 145.436 183.503 145.32 183.427L145.203 184.166L144.518 184.139L144.697 183.02C144.312 182.783 143.874 182.532 143.377 182.268L143.323 182.586C141.859 182.505 140.386 182.447 138.918 182.402L139.164 180.164L140.059 180.186C139.195 179.559 138.268 178.843 137.288 178.163L137.207 178.709C135.591 178.686 133.98 178.677 132.395 178.673L132.695 175.405L132.35 175.262L132.037 178.673H131.311L131.584 174.993C131.127 174.853 130.656 174.764 130.179 174.729L129.883 178.677C129.028 178.677 128.182 178.677 127.345 178.677L127.613 175.096L127.246 175.208L126.987 178.664H125.782L125.876 175.66C125.429 175.826 124.932 176.014 124.439 176.211L124.363 178.682C123.119 178.682 121.914 178.722 120.759 178.749L120.804 177.8L120.441 177.97L120.401 178.758H119.474V178.404C118.167 179.036 116.891 179.676 115.727 180.285L117.966 180.217L117.876 182.501L115.503 182.671L115.584 180.432L115.221 180.62L115.15 182.68L114.523 182.711L114.617 180.92C114.089 181.202 113.596 181.466 113.149 181.713L113.095 182.774L111.089 182.895C110.905 182.998 110.73 183.116 110.565 183.248L110.534 183.289L113.077 183.132L113.019 184.229L110.212 184.336C110.145 184.784 110.104 185.276 110.077 185.764C110.892 185.733 111.868 185.693 112.943 185.657L112.786 188.616L110.037 188.67V189.023L112.768 188.97L112.728 189.758H114.151L114.192 188.943H114.93L114.899 189.767H115.257L115.284 188.934L117.688 188.898L117.652 189.767H119.076L119.112 188.871H119.962L119.922 189.767H120.28L120.321 188.871L124.077 188.84L124.05 189.771H125.469L125.5 188.835H126.248L126.181 189.776H126.534L126.606 188.835H129.14L129.068 189.78H130.492L130.564 188.84H131.123L131.038 189.776H131.396L131.481 188.84C132.91 188.84 134.338 188.84 135.748 188.876L135.618 189.771H137.051L137.181 188.876H137.87L137.776 189.74H138.134L138.228 188.88C139.625 188.907 140.99 188.943 142.311 188.988L142.19 189.74H143.627L143.739 189.037L144.442 189.064L144.335 189.74H144.693L144.796 189.082C146.112 189.14 147.352 189.207 148.503 189.283C148.471 189.243 148.44 189.122 148.409 188.988ZM114.921 188.621H114.187L114.344 185.639L115.024 185.617L114.921 188.621ZM115.074 184.206L114.42 184.229L114.483 183.096L115.114 183.065L115.074 184.206ZM117.679 188.58L115.275 188.616L115.378 185.617L117.8 185.549L117.679 188.58ZM117.854 184.126L115.427 184.193L115.468 183.047C116.229 183.007 117.043 182.971 117.903 182.935L117.854 184.126ZM119.958 188.553H119.103L119.224 185.5H120.119L119.958 188.553ZM120.168 184.077L119.273 184.099L119.322 182.886L120.218 182.85L120.168 184.077ZM120.24 182.496L119.345 182.528L119.434 180.267H120.352L120.24 182.496ZM124.068 188.527L120.316 188.558L120.455 185.491L124.162 185.42L124.068 188.527ZM124.206 184C122.935 184 121.704 184.041 120.522 184.068L120.58 182.836C121.744 182.796 122.971 182.76 124.247 182.733L124.206 184ZM124.256 182.375C122.984 182.407 121.762 182.442 120.598 182.483L120.701 180.244C121.865 180.217 123.078 180.195 124.327 180.177L124.256 182.375ZM125.747 180.137H126.893L126.727 182.326H125.679L125.747 180.137ZM126.248 188.491H125.487L125.585 185.357H126.481L126.248 188.491ZM125.612 183.951L125.653 182.675H126.682L126.588 183.96L125.612 183.951ZM129.158 188.491H126.624L126.857 185.357H129.395L129.158 188.491ZM129.498 183.924H126.964L127.058 182.639C127.891 182.639 128.737 182.63 129.597 182.613L129.498 183.924ZM129.624 182.277L127.085 182.299L127.246 180.114H129.785L129.624 182.277ZM131.213 180.092H131.916L131.719 182.272H131.047L131.213 180.092ZM131.146 188.491H130.582L130.819 185.335H131.437L131.146 188.491ZM130.926 183.911L131.02 182.622H131.683L131.567 183.911H130.926ZM135.788 188.531C134.374 188.531 132.941 188.5 131.504 188.495L131.795 185.335C133.263 185.335 134.75 185.335 136.249 185.357L135.788 188.531ZM136.455 183.938C134.933 183.938 133.415 183.911 131.925 183.911L132.041 182.622C133.55 182.622 135.09 182.644 136.639 182.675L136.455 183.938ZM136.693 182.322C135.135 182.29 133.59 182.272 132.072 182.268L132.274 180.088C133.836 180.088 135.408 180.088 137.01 180.123L136.693 182.322ZM138.448 180.146H138.828L138.582 182.384H138.134L138.448 180.146ZM138.071 182.711H138.546L138.407 183.951H137.892L138.071 182.711ZM137.888 188.585H137.207L137.655 185.406H138.219L137.888 188.585ZM142.365 188.697C141.022 188.652 139.679 188.616 138.268 188.589L138.618 185.406C140.041 185.429 141.465 185.464 142.884 185.505L142.365 188.697ZM143.112 184.09C141.671 184.045 140.22 184.014 138.774 183.987L138.909 182.756C140.373 182.801 141.837 182.859 143.3 182.939L143.112 184.09ZM144.496 188.777L143.797 188.746L144.317 185.554L145.006 185.576L144.496 188.777Z" fill="#ADADAD"/>
<path d="M110.015 187.877C110.015 187.877 109.948 183.893 110.543 183.293C111.139 182.693 125.818 174.662 129.937 174.724C134.056 174.787 139.683 180.396 142.687 181.887C147.469 184.278 147.469 185.603 147.867 186.933C148.266 188.262 148.597 189.789 148.597 189.789H110.015V187.877Z" stroke="#263238" stroke-width="0.44769" stroke-linecap="round" stroke-linejoin="round"/>
<path d="M127.743 173.131C127.743 173.131 125.751 173.265 125.223 174.263C124.694 175.262 124.954 175.857 123.879 178.843C122.805 181.829 122.219 182.698 122.818 182.698C123.418 182.698 125.057 180.97 125.67 180.705C126.284 180.441 127.667 182.76 127.667 182.76C127.667 182.76 130.322 181.368 131.186 181.301C132.05 181.234 133.908 184.82 134.239 184.224C134.57 183.629 135.434 181.435 136.366 179.443C137.297 177.451 137.494 175.79 136.697 174.46C135.9 173.131 128.41 172.732 127.743 173.131Z" fill="#263238" stroke="#263238" stroke-width="0.44769" stroke-linecap="round" stroke-linejoin="round"/>
<path d="M126.548 172.468C126.241 174.515 126.219 176.593 126.48 178.646C126.928 181.632 127.613 183.36 128.141 182.962C128.67 182.563 131.929 180.571 133.59 178.512C135.251 176.452 135.515 176.188 135.98 175.06C136.446 173.932 136.974 172.669 136.974 172.669C136.974 172.669 130.801 174.993 126.548 172.468Z" fill="white" stroke="#263238" stroke-width="0.44769" stroke-linecap="round" stroke-linejoin="round"/>
<path d="M126.615 161.508C126.615 161.508 125.42 159.651 124.757 161.844C124.095 164.038 125.684 165.229 125.885 165.094C126.087 164.96 126.615 161.508 126.615 161.508Z" fill="white" stroke="#263238" stroke-width="0.44769" stroke-linecap="round" stroke-linejoin="round"/>
<path d="M127.215 156.861C127.215 156.861 125.021 166.357 124.556 169.083C124.09 171.81 127.081 174.326 130.403 174.791C133.725 175.257 136.908 173.663 137.772 172.002C138.636 170.341 141.353 159.718 141.756 158.988C142.159 158.258 143.547 155.071 142.49 154.005C141.434 152.94 139.701 153.741 139.701 153.741C139.701 153.741 138.501 150.683 136.446 150.607C134.392 150.531 134.119 151.467 134.119 151.467C134.119 151.467 132.328 149.278 130.667 149.743C129.006 150.209 129.006 151.27 129.006 151.27C129.006 151.27 125.953 150.54 124.824 152.729C123.696 154.918 126.817 155.586 126.817 155.586C126.817 155.586 126.15 156.53 127.215 156.861Z" fill="white" stroke="#263238" stroke-width="0.44769" stroke-linecap="round" stroke-linejoin="round"/>
<path d="M139.365 164.633C139.567 164.566 140.896 162.44 142.154 163.29C143.412 164.141 141.957 167.409 140.896 167.937C140.715 168.035 140.515 168.094 140.31 168.11C140.105 168.126 139.899 168.098 139.705 168.03C139.511 167.961 139.333 167.852 139.184 167.711C139.034 167.569 138.916 167.398 138.837 167.208" fill="white"/>
<path d="M139.365 164.633C139.567 164.566 140.896 162.44 142.154 163.29C143.412 164.141 141.957 167.409 140.896 167.937C140.715 168.035 140.515 168.094 140.31 168.11C140.105 168.126 139.899 168.098 139.705 168.03C139.511 167.961 139.333 167.852 139.184 167.711C139.034 167.569 138.916 167.398 138.837 167.208" stroke="#263238" stroke-width="0.44769" stroke-linecap="round" stroke-linejoin="round"/>
<path d="M142.49 154.019C141.424 152.958 139.701 153.754 139.701 153.754C139.701 153.754 138.501 150.697 136.446 150.621C134.391 150.545 134.118 151.48 134.118 151.48C134.118 151.48 132.327 149.291 130.666 149.757C129.005 150.222 129.005 151.283 129.005 151.283C129.005 151.283 125.952 150.554 124.824 152.743C123.696 154.932 126.816 155.599 126.816 155.599C126.816 155.599 126.149 156.53 127.215 156.861C127.613 156.463 128.41 154.672 132.462 154.623C136.513 154.574 139.763 157.479 139.763 157.479C139.763 157.479 138.304 159.203 138.769 159.933C139.235 160.662 139.763 160.6 139.701 161.195C139.638 161.791 138.358 167.239 137.838 168.103C137.552 168.522 137.144 168.843 136.669 169.022C136.194 169.201 135.675 169.228 135.184 169.101C134.252 168.833 133.72 168.17 132.05 167.311C130.38 166.451 128.992 166.115 127.797 166.581C126.601 167.046 126.534 167.445 125.872 167.642C125.299 167.816 125.119 167.44 124.954 166.997C124.775 167.861 124.631 168.6 124.542 169.106C124.094 171.828 127.067 174.348 130.389 174.814C133.711 175.279 136.894 173.686 137.758 172.025C138.622 170.364 141.339 159.74 141.742 159.01C142.145 158.281 143.551 155.071 142.49 154.019Z" fill="#137EE0" stroke="#263238" stroke-width="0.44769" stroke-linecap="round" stroke-linejoin="round"/>
<path d="M128.079 167.821C128.079 167.821 130.532 169.347 132.193 168.416C132.193 168.416 130.532 170.408 129.673 170.408C128.813 170.408 128.079 167.821 128.079 167.821Z" fill="#263238" stroke="#263238" stroke-width="0.44769" stroke-linecap="round" stroke-linejoin="round"/>
<path d="M129.937 162.207C129.937 162.65 129.806 163.082 129.56 163.451C129.314 163.819 128.964 164.106 128.555 164.275C128.146 164.444 127.696 164.489 127.262 164.402C126.828 164.316 126.429 164.103 126.116 163.79C125.803 163.477 125.589 163.078 125.503 162.644C125.417 162.209 125.461 161.759 125.63 161.35C125.8 160.941 126.087 160.592 126.455 160.346C126.823 160.1 127.256 159.969 127.698 159.969C128.292 159.969 128.861 160.204 129.281 160.624C129.701 161.044 129.937 161.613 129.937 162.207Z" stroke="#263238" stroke-width="0.44769" stroke-linecap="round" stroke-linejoin="round"/>
<path d="M136.379 163.335C136.379 163.778 136.248 164.211 136.002 164.579C135.756 164.947 135.406 165.234 134.997 165.403C134.588 165.573 134.138 165.617 133.704 165.531C133.27 165.444 132.871 165.231 132.558 164.918C132.245 164.605 132.032 164.206 131.945 163.772C131.859 163.338 131.903 162.888 132.073 162.479C132.242 162.069 132.529 161.72 132.897 161.474C133.265 161.228 133.698 161.097 134.141 161.097C134.734 161.097 135.304 161.333 135.724 161.752C136.143 162.172 136.379 162.741 136.379 163.335Z" stroke="#263238" stroke-width="0.44769" stroke-linecap="round" stroke-linejoin="round"/>
<path d="M130.004 161.974C130.004 161.974 130.931 161.526 132.063 162.422" stroke="#263238" stroke-width="0.44769" stroke-linecap="round" stroke-linejoin="round"/>
<path d="M136.379 163.335L140.695 163.501" stroke="#263238" stroke-width="0.44769" stroke-linecap="round" stroke-linejoin="round"/>
<path d="M130.335 162.243C129.788 163.276 129.301 164.341 128.875 165.43C128.741 166.026 129.471 166.357 130.402 166.357C131.333 166.357 131.745 165.959 131.745 165.56" stroke="#263238" stroke-width="0.44769" stroke-linecap="round" stroke-linejoin="round"/>
<path d="M130.134 159.718C130.043 159.717 129.954 159.694 129.874 159.651C129.526 159.423 129.122 159.294 128.707 159.278C128.291 159.262 127.879 159.36 127.515 159.561C127.456 159.601 127.39 159.628 127.32 159.642C127.251 159.656 127.18 159.656 127.11 159.642C126.97 159.614 126.847 159.532 126.767 159.413C126.687 159.295 126.658 159.149 126.686 159.009C126.714 158.869 126.796 158.745 126.915 158.666C127.443 158.353 128.048 158.192 128.662 158.199C129.276 158.206 129.876 158.381 130.398 158.706C130.501 158.764 130.583 158.854 130.629 158.963C130.675 159.072 130.684 159.193 130.654 159.308C130.624 159.422 130.556 159.524 130.462 159.595C130.368 159.667 130.252 159.706 130.134 159.704V159.718Z" fill="#137EE0"/>
<path d="M136.643 161.911C136.556 161.913 136.469 161.894 136.391 161.855C136.313 161.816 136.246 161.758 136.195 161.688C135.882 161.203 135.426 160.828 134.89 160.614C134.354 160.4 133.765 160.357 133.205 160.492C133.071 160.529 132.929 160.512 132.808 160.446C132.687 160.38 132.597 160.269 132.556 160.137C132.514 160.006 132.526 159.863 132.588 159.74C132.649 159.617 132.757 159.522 132.887 159.476C133.662 159.272 134.482 159.316 135.231 159.602C135.98 159.888 136.621 160.401 137.064 161.07C137.121 161.15 137.155 161.245 137.161 161.344C137.168 161.443 137.147 161.542 137.1 161.629C137.054 161.716 136.984 161.789 136.898 161.839C136.813 161.889 136.715 161.914 136.616 161.911H136.643Z" fill="#137EE0"/>
<path d="M127.976 163.102C128.213 163.102 128.405 162.746 128.405 162.305C128.405 161.865 128.213 161.509 127.976 161.509C127.738 161.509 127.546 161.865 127.546 162.305C127.546 162.746 127.738 163.102 127.976 163.102Z" fill="#263238" stroke="#263238" stroke-width="0.44769" stroke-linecap="round" stroke-linejoin="round"/>
<path d="M134.253 163.304C134.253 163.751 134.06 164.101 133.805 164.101C133.55 164.101 133.357 163.742 133.357 163.304C133.357 162.865 133.55 162.507 133.805 162.507C134.06 162.507 134.253 162.865 134.253 163.304Z" fill="#263238" stroke="#263238" stroke-width="0.44769" stroke-linecap="round" stroke-linejoin="round"/>
<path d="M51.2309 102.026C55.4952 96.597 54.5513 88.7393 49.1226 84.4749C43.6939 80.2106 35.8361 81.1546 31.5718 86.5833C27.3075 92.012 28.2514 99.8697 33.6801 104.134C39.1089 108.398 46.9666 107.454 51.2309 102.026Z" stroke="#263238" stroke-width="0.44769" stroke-miterlimit="10"/>
<path d="M36.6025 97.6098C36.6025 97.6098 45.0415 98.0575 47.947 90.3035" stroke="#263238" stroke-width="0.895379" stroke-linecap="round" stroke-linejoin="round"/>
<path d="M43.4253 88.1814C43.873 88.8126 43.976 89.4976 43.6715 89.7125C43.3671 89.9273 42.7762 89.5871 42.3285 88.9559C41.8808 88.3246 41.7778 87.6441 42.0822 87.4292C42.3867 87.2143 42.9776 87.5546 43.4253 88.1814Z" fill="#263238"/>
<path d="M37.9546 91.6823C38.4023 92.309 38.5097 92.994 38.2008 93.2089C37.8919 93.4238 37.3055 93.088 36.8578 92.4568C36.4101 91.8255 36.3071 91.1406 36.6115 90.9301C36.916 90.7197 37.5114 91.051 37.9546 91.6823Z" fill="#263238"/>
<path d="M183.813 90.7063C183.887 92.4539 184.477 94.1403 185.509 95.5524C186.542 96.9645 187.969 98.0389 189.612 98.6397C191.255 99.2406 193.039 99.341 194.739 98.9282C196.439 98.5154 197.978 97.608 199.162 96.3206C200.346 95.0332 201.122 93.4236 201.392 91.6954C201.661 89.9671 201.413 88.1977 200.677 86.6108C199.941 85.0238 198.751 83.6907 197.258 82.7797C195.765 81.8688 194.035 81.4209 192.287 81.4928C191.126 81.5406 189.985 81.8169 188.93 82.306C187.875 82.795 186.927 83.4871 186.14 84.3428C185.353 85.1985 184.742 86.201 184.343 87.2929C183.944 88.3848 183.763 89.5447 183.813 90.7063V90.7063Z" stroke="#263238" stroke-width="0.44769" stroke-miterlimit="10"/>
<path d="M196.773 90.2988C196.773 90.2988 192.063 93.9878 187.224 90.6794" stroke="#263238" stroke-width="0.895379" stroke-linecap="round" stroke-linejoin="round"/>
<path d="M189.475 88.5978C189.74 88.5978 189.954 88.1568 189.954 87.6128C189.954 87.0689 189.74 86.6279 189.475 86.6279C189.211 86.6279 188.996 87.0689 188.996 87.6128C188.996 88.1568 189.211 88.5978 189.475 88.5978Z" fill="#263238"/>
<path d="M193.58 87.4202C193.58 87.9664 193.795 88.4051 194.059 88.4051C194.323 88.4051 194.538 87.9575 194.538 87.4202C194.538 86.883 194.323 86.4353 194.059 86.4353C193.795 86.4353 193.58 86.8651 193.58 87.4202Z" fill="#263238"/>
<path d="M57.7043 194.255C62.2584 189.572 62.1538 182.084 57.4707 177.53C52.7875 172.976 45.2992 173.08 40.7451 177.763C36.1909 182.446 36.2955 189.935 40.9786 194.489C45.6618 199.043 53.1501 198.939 57.7043 194.255Z" stroke="#263238" stroke-width="0.44769" stroke-miterlimit="10"/>
<path d="M42.5615 189.865C42.5615 189.865 50.1722 185.527 57.5009 184.493C57.5009 184.493 59.6051 191.423 52.5763 194.109C46.5236 196.415 42.5615 189.865 42.5615 189.865Z" stroke="#263238" stroke-width="0.44769" stroke-miterlimit="10"/>
<path d="M44.0618 186.525C43.9344 186.525 43.8096 186.489 43.7008 186.423C43.592 186.357 43.5032 186.262 43.444 186.149L41.7204 182.814C41.6482 182.652 41.6406 182.469 41.6992 182.302C41.7579 182.135 41.8782 181.996 42.0357 181.915C42.1932 181.833 42.3757 181.815 42.546 181.864C42.7163 181.913 42.8614 182.026 42.9515 182.178L44.6751 185.514C44.76 185.677 44.7766 185.867 44.7212 186.043C44.6657 186.218 44.5429 186.364 44.3797 186.449C44.2807 186.498 44.1721 186.524 44.0618 186.525Z" fill="#263238"/>
<path d="M53.2747 183.19C53.1155 183.19 52.9613 183.135 52.8375 183.035C52.7137 182.934 52.6279 182.795 52.5942 182.639L51.7929 178.847C51.7806 178.681 51.8291 178.515 51.9292 178.381C52.0294 178.247 52.1745 178.154 52.338 178.119C52.5015 178.083 52.6722 178.108 52.8188 178.188C52.9654 178.269 53.078 178.4 53.1359 178.556L53.9373 182.353C53.9758 182.533 53.9414 182.721 53.8415 182.875C53.7416 183.03 53.5844 183.138 53.4046 183.177L53.2747 183.19Z" fill="#263238"/>
<path d="M54.6177 193.066C53.9775 191.495 51.7524 190.854 49.5767 191.638C48.4746 192.01 47.5362 192.754 46.9219 193.742" stroke="#263238" stroke-width="0.44769" stroke-miterlimit="10"/>
<path d="M186.686 133.505C186.223 134.789 186.151 136.181 186.478 137.505C186.806 138.83 187.519 140.027 188.527 140.947C189.536 141.866 190.794 142.465 192.143 142.67C193.492 142.874 194.871 142.673 196.106 142.094C197.342 141.514 198.377 140.581 199.082 139.413C199.787 138.245 200.13 136.894 200.067 135.531C200.004 134.168 199.538 132.854 198.729 131.756C197.92 130.657 196.803 129.823 195.519 129.36C194.667 129.052 193.763 128.915 192.858 128.957C191.952 128.999 191.064 129.218 190.244 129.603C189.424 129.988 188.688 130.531 188.077 131.2C187.467 131.87 186.994 132.653 186.686 133.505V133.505Z" stroke="#263238" stroke-width="0.44769" stroke-miterlimit="10"/>
<path d="M197.068 138.108C197.068 138.108 192.632 135.574 188.356 134.974C188.356 134.974 187.129 139.003 191.217 140.583C194.745 141.931 197.068 138.108 197.068 138.108Z" stroke="#263238" stroke-width="0.44769" stroke-miterlimit="10"/>
<path d="M196.191 136.156C196.266 136.157 196.339 136.137 196.403 136.099C196.467 136.062 196.519 136.007 196.554 135.941L197.557 133.993C197.606 133.898 197.616 133.788 197.584 133.685C197.552 133.583 197.481 133.498 197.387 133.447C197.291 133.4 197.18 133.391 197.078 133.424C196.976 133.456 196.891 133.527 196.84 133.622L195.833 135.569C195.785 135.664 195.776 135.775 195.808 135.876C195.841 135.978 195.913 136.062 196.008 136.111C196.064 136.141 196.127 136.156 196.191 136.156Z" fill="#263238"/>
<path d="M190.828 134.213C190.921 134.213 191.01 134.181 191.082 134.122C191.154 134.063 191.203 133.981 191.222 133.891L191.692 131.679C191.705 131.626 191.708 131.572 191.699 131.518C191.691 131.464 191.672 131.413 191.643 131.367C191.615 131.321 191.577 131.281 191.532 131.25C191.488 131.219 191.437 131.197 191.384 131.186C191.331 131.174 191.276 131.174 191.223 131.185C191.17 131.195 191.119 131.216 191.074 131.247C191.029 131.278 190.991 131.317 190.962 131.363C190.933 131.409 190.913 131.46 190.904 131.513L190.434 133.725C190.423 133.777 190.422 133.83 190.431 133.882C190.441 133.934 190.46 133.984 190.489 134.028C190.518 134.073 190.555 134.111 190.598 134.141C190.642 134.172 190.691 134.193 190.743 134.204L190.828 134.213Z" fill="#263238"/>
<path d="M190.026 139.97C190.398 139.075 191.701 138.681 192.968 139.142C193.611 139.356 194.158 139.79 194.512 140.369" stroke="#263238" stroke-width="0.44769" stroke-miterlimit="10"/>
<path d="M178.952 129.62C180.546 123.832 177.145 117.848 171.357 116.255C165.569 114.662 159.585 118.062 157.992 123.85C156.399 129.638 159.8 135.622 165.588 137.215C171.376 138.809 177.359 135.408 178.952 129.62Z" stroke="#263238" stroke-width="0.44769" stroke-miterlimit="10"/>
<path d="M160.057 124.887C159.959 124.912 159.854 124.9 159.764 124.853C159.673 124.807 159.603 124.729 159.565 124.635C159.527 124.54 159.525 124.435 159.559 124.34C159.593 124.244 159.66 124.163 159.748 124.113L162.457 122.653L160.644 122.591C160.532 122.587 160.427 122.538 160.351 122.456C160.275 122.375 160.234 122.266 160.239 122.154C160.243 122.043 160.291 121.937 160.373 121.861C160.455 121.785 160.563 121.745 160.675 121.749L164.037 121.865C164.128 121.873 164.215 121.909 164.286 121.967C164.356 122.025 164.407 122.104 164.431 122.192C164.444 122.279 164.431 122.368 164.393 122.448C164.356 122.527 164.296 122.594 164.221 122.64L160.147 124.834L160.057 124.887Z" fill="#263238"/>
<path d="M174.55 120.89C174.518 120.894 174.484 120.894 174.452 120.89L170.029 121.033C169.936 121.037 169.844 121.009 169.768 120.955C169.692 120.902 169.636 120.824 169.609 120.735C169.582 120.646 169.585 120.55 169.618 120.463C169.651 120.376 169.712 120.303 169.791 120.254L172.777 118.392C172.874 118.338 172.987 118.323 173.094 118.347C173.201 118.372 173.296 118.436 173.359 118.526C173.418 118.62 173.436 118.734 173.411 118.842C173.386 118.95 173.319 119.044 173.225 119.103L171.56 120.142L174.425 120.052C174.526 120.051 174.624 120.087 174.702 120.153C174.779 120.218 174.83 120.31 174.845 120.41C174.86 120.51 174.839 120.612 174.785 120.698C174.73 120.784 174.647 120.847 174.55 120.876V120.89Z" fill="#263238"/>
<path d="M159.879 126.777C162.185 131.025 166.276 133.447 170.041 132.409C173.807 131.37 176.085 127.202 175.893 122.371L174.438 122.524C169.784 123.001 165.244 124.259 161.007 126.244L159.879 126.777Z" stroke="#263238" stroke-width="0.44769" stroke-miterlimit="10"/>
<path d="M164.906 131.836C164.87 131.624 164.852 131.41 164.853 131.195C164.853 128.733 167.037 126.719 169.732 126.719C170.625 126.701 171.505 126.926 172.28 127.37C173.054 127.814 173.693 128.46 174.129 129.239" stroke="#263238" stroke-width="0.44769" stroke-miterlimit="10"/>
<path d="M59.5167 134.619C63.6805 133.062 65.7932 128.424 64.2356 124.26C62.678 120.096 58.0399 117.983 53.8761 119.541C49.7123 121.099 47.5996 125.737 49.1572 129.901C50.7148 134.064 55.3529 136.177 59.5167 134.619Z" stroke="#263238" stroke-width="0.44769" stroke-miterlimit="10"/>
<path d="M62.94 125.707C63.0074 125.725 63.0792 125.72 63.1434 125.692C63.2077 125.665 63.2606 125.616 63.2936 125.554C63.3139 125.519 63.3267 125.479 63.3313 125.439C63.336 125.398 63.3323 125.357 63.3206 125.317C63.3089 125.278 63.2894 125.241 63.2632 125.21C63.237 125.178 63.2047 125.152 63.1683 125.134L61.1626 124.05L62.5057 124.005C62.5876 124.001 62.6646 123.965 62.7205 123.905C62.7764 123.844 62.8069 123.765 62.8056 123.683C62.8045 123.642 62.7952 123.602 62.7783 123.564C62.7614 123.527 62.7373 123.493 62.7073 123.466C62.6773 123.438 62.642 123.416 62.6036 123.402C62.5651 123.388 62.5243 123.381 62.4833 123.383L59.9942 123.468C59.9265 123.472 59.8619 123.498 59.8102 123.542C59.7584 123.586 59.7223 123.645 59.7071 123.711C59.692 123.777 59.6987 123.846 59.7262 123.908C59.7538 123.97 59.8007 124.022 59.8599 124.055L62.8728 125.68L62.94 125.707Z" fill="#263238"/>
<path d="M52.2136 122.756H52.2852L55.5578 122.859C55.6265 122.863 55.6944 122.843 55.7506 122.804C55.8069 122.764 55.8483 122.707 55.8684 122.641C55.8884 122.575 55.8859 122.505 55.8613 122.44C55.8367 122.376 55.7913 122.322 55.7324 122.286L53.5209 120.907C53.4857 120.882 53.4456 120.865 53.4033 120.856C53.361 120.848 53.3173 120.848 53.2751 120.857C53.2329 120.867 53.1932 120.885 53.1584 120.91C53.1236 120.936 53.0946 120.968 53.0732 121.006C53.0481 121.041 53.0307 121.081 53.022 121.124C53.0134 121.166 53.0137 121.21 53.023 121.252C53.0323 121.294 53.0503 121.334 53.0759 121.368C53.1015 121.403 53.1341 121.432 53.1717 121.454L54.4028 122.219L52.2807 122.152C52.2402 122.151 52.1998 122.158 52.1618 122.172C52.1239 122.187 52.0892 122.208 52.0597 122.236C52.0301 122.264 52.0064 122.297 51.9898 122.334C51.9732 122.372 51.964 122.411 51.9629 122.452C51.9635 122.524 51.9887 122.593 52.0344 122.649C52.08 122.704 52.1433 122.742 52.2136 122.756Z" fill="#263238"/>
<path d="M63.0748 127.108C61.3691 130.242 58.3382 132.032 55.5491 131.276C52.76 130.519 51.0722 127.421 51.2155 123.844L52.2944 123.956C55.7367 124.311 59.0948 125.242 62.2286 126.709L63.0748 127.108Z" stroke="#263238" stroke-width="0.44769" stroke-miterlimit="10"/>
<path d="M59.3542 130.851C59.3774 130.694 59.3894 130.535 59.39 130.376C59.39 128.554 57.7739 127.077 55.7772 127.077C55.1172 127.065 54.4663 127.232 53.8934 127.56C53.3204 127.888 52.8468 128.364 52.5225 128.939" stroke="#263238" stroke-width="0.44769" stroke-miterlimit="10"/>
<path d="M188.199 49.6895C189.124 42.8485 184.328 36.5529 177.487 35.628C170.646 34.703 164.351 39.499 163.426 46.34C162.501 53.181 167.297 59.4766 174.138 60.4016C180.979 61.3265 187.274 56.5306 188.199 49.6895Z" stroke="#263238" stroke-width="0.44769" stroke-miterlimit="10"/>
<path d="M170.664 44.1601C170.664 44.9302 170.964 45.5569 171.34 45.5569C171.716 45.5569 172.012 44.9302 172.012 44.1601C172.012 43.3901 171.712 42.7678 171.34 42.7678C170.968 42.7678 170.664 43.3901 170.664 44.1601Z" fill="#263238"/>
<path d="M177.138 43.8869C177.138 44.657 177.438 45.2793 177.809 45.2793C178.181 45.2793 178.485 44.657 178.485 43.8869C178.485 43.1169 178.181 42.4946 177.809 42.4946C177.438 42.4946 177.138 43.1214 177.138 43.8869Z" fill="#263238"/>
<path d="M170.023 40.2024L173.081 43.5108" stroke="#263238" stroke-width="0.895379" stroke-linecap="round" stroke-linejoin="round"/>
<path d="M178.203 39.9563L175.396 43.4259" stroke="#263238" stroke-width="0.895379" stroke-linecap="round" stroke-linejoin="round"/>
<path d="M169.777 50.947C169.777 50.947 173.807 46.1522 179.362 50.0516" stroke="#263238" stroke-width="0.895379" stroke-linecap="round" stroke-linejoin="round"/>
<path d="M30.9183 155.772C35.7694 155.724 39.6627 151.752 39.6142 146.901C39.5657 142.05 35.5937 138.157 30.7427 138.205C25.8916 138.254 21.9983 142.226 22.0468 147.077C22.0953 151.928 26.0672 155.821 30.9183 155.772Z" stroke="#263238" stroke-width="0.44769" stroke-miterlimit="10"/>
<path d="M30.9215 142.679C31.2931 143.077 31.4363 143.543 31.2438 143.722C31.0513 143.901 30.5992 143.722 30.2276 143.323C29.856 142.925 29.7172 142.464 29.9097 142.285C30.1022 142.106 30.5544 142.285 30.9215 142.679Z" fill="#263238"/>
<path d="M27.4606 145.638C27.8321 146.036 27.9754 146.502 27.7829 146.681C27.5904 146.86 27.1382 146.681 26.7666 146.287C26.3951 145.893 26.2563 145.423 26.4488 145.244C26.6413 145.065 27.0935 145.244 27.4606 145.638Z" fill="#263238"/>
<path d="M29.3594 140.337L29.3638 143.502" stroke="#263238" stroke-width="0.895379" stroke-linecap="round" stroke-linejoin="round"/>
<path d="M25.0303 144.125L28.1372 144.568" stroke="#263238" stroke-width="0.895379" stroke-linecap="round" stroke-linejoin="round"/>
<path d="M34.6281 145.745C34.6281 145.745 30.2497 145.217 29.2559 149.869" stroke="#263238" stroke-width="0.895379" stroke-linecap="round" stroke-linejoin="round"/>
<path d="M66.1645 23.4097C67.7646 24.7064 68.9985 26.3985 69.7439 28.3186C70.4892 30.2386 70.7203 32.32 70.4142 34.3568C70.1082 36.3936 69.2755 38.3151 67.9988 39.9313C66.722 41.5474 65.0453 42.8022 63.1347 43.5713C61.224 44.3405 59.1457 44.5974 57.1053 44.3166C55.0648 44.0359 53.1331 43.2272 51.5012 41.9705C49.8693 40.7139 48.5939 39.053 47.801 37.152C47.0082 35.2511 46.7255 33.1761 46.981 31.1323" stroke="#263238" stroke-width="0.44769" stroke-miterlimit="10"/>
<path d="M54.8906 21.4174C55.475 21.2217 56.0737 21.072 56.6814 20.9697" stroke="#263238" stroke-width="0.44769" stroke-miterlimit="10"/>
<path d="M52.0566 36.4821C52.0566 36.4821 59.6674 32.1395 66.9916 31.1099C66.9916 31.1099 69.0957 38.0446 62.0894 40.7262C56.0142 43.0274 52.0566 36.4821 52.0566 36.4821Z" stroke="#263238" stroke-width="0.44769" stroke-miterlimit="10"/>
<path d="M64.1269 39.6786C63.4911 38.1072 61.2616 37.467 59.0859 38.2504C57.9848 38.625 57.048 39.3703 56.4355 40.3591" stroke="#263238" stroke-width="0.44769" stroke-miterlimit="10"/>
<path d="M55.7908 22.5232C55.3912 21.8598 54.7874 21.3438 54.0699 21.0526C53.3523 20.7613 52.5597 20.7104 51.8108 20.9076C51.0619 21.1048 50.3971 21.5394 49.9161 22.1462C49.435 22.7531 49.1636 23.4995 49.1426 24.2737C48.4504 23.927 47.6645 23.8139 46.9027 23.9513C46.1409 24.0887 45.4441 24.4693 44.9167 25.036C44.3893 25.6027 44.0598 26.325 43.9774 27.0948C43.895 27.8645 44.0642 28.6402 44.4597 29.3057C46.1386 32.1082 54.0851 32.5917 54.0851 32.5917C54.0851 32.5917 57.9352 26.1002 55.7908 22.5232Z" stroke="#263238" stroke-width="0.44769" stroke-miterlimit="10"/>
<path d="M67.2515 21.1667C67.3201 20.5444 67.1849 19.9167 66.8662 19.3778C66.5475 18.8389 66.0626 18.418 65.4842 18.1783C64.9059 17.9385 64.2654 17.893 63.6589 18.0484C63.0524 18.2038 62.5128 18.5518 62.121 19.0402C61.8485 18.4756 61.3996 18.0151 60.8423 17.7282C60.2849 17.4413 59.6493 17.3435 59.0315 17.4497C58.4137 17.5559 57.8472 17.8602 57.4176 18.3167C56.988 18.7733 56.7187 19.3572 56.6502 19.9803C56.3592 22.5993 61.2256 26.7986 61.2256 26.7986C61.2256 26.7986 66.8755 24.5154 67.2515 21.1667Z" stroke="#263238" stroke-width="0.44769" stroke-miterlimit="10"/>
<path d="M166.707 169.625C165.486 170.612 164.544 171.901 163.975 173.364C163.405 174.827 163.228 176.414 163.461 177.967C163.693 179.519 164.327 180.984 165.3 182.217C166.273 183.449 167.551 184.406 169.007 184.992C170.463 185.579 172.048 185.774 173.603 185.56C175.158 185.346 176.631 184.729 177.874 183.771C179.118 182.813 180.089 181.546 180.693 180.097C181.296 178.647 181.511 177.065 181.315 175.508" stroke="#263238" stroke-width="0.44769" stroke-miterlimit="10"/>
<path d="M175.288 168.107C174.841 167.953 174.383 167.835 173.918 167.754" stroke="#263238" stroke-width="0.44769" stroke-miterlimit="10"/>
<path d="M177.45 179.582C177.45 179.582 171.657 176.273 166.07 175.476C166.07 175.476 164.467 180.755 169.808 182.796C174.433 184.569 177.45 179.582 177.45 179.582Z" stroke="#263238" stroke-width="0.44769" stroke-miterlimit="10"/>
<path d="M168.256 182.017C168.739 180.822 170.436 180.334 172.093 180.929C172.933 181.212 173.648 181.779 174.116 182.532" stroke="#263238" stroke-width="0.44769" stroke-miterlimit="10"/>
<path d="M174.599 168.949C174.904 168.442 175.364 168.048 175.912 167.826C176.46 167.604 177.065 167.566 177.636 167.717C178.207 167.869 178.714 168.202 179.08 168.666C179.445 169.131 179.65 169.701 179.663 170.292C180.19 170.021 180.792 169.929 181.376 170.031C181.961 170.133 182.496 170.422 182.901 170.855C183.306 171.289 183.559 171.843 183.621 172.432C183.683 173.022 183.551 173.616 183.244 174.124C181.964 176.26 175.911 176.627 175.911 176.627C175.911 176.627 172.974 171.676 174.599 168.949Z" stroke="#263238" stroke-width="0.44769" stroke-miterlimit="10"/>
<path d="M165.878 167.919C165.823 167.445 165.924 166.966 166.166 166.554C166.408 166.142 166.778 165.82 167.219 165.637C167.66 165.454 168.148 165.419 168.611 165.539C169.073 165.658 169.484 165.925 169.782 166.299C169.991 165.87 170.333 165.521 170.757 165.304C171.181 165.087 171.665 165.013 172.134 165.094C172.604 165.175 173.035 165.405 173.362 165.752C173.689 166.098 173.896 166.542 173.95 167.015C174.173 169.012 170.462 172.208 170.462 172.208C170.462 172.208 166.16 170.467 165.878 167.919Z" stroke="#263238" stroke-width="0.44769" stroke-miterlimit="10"/>
</svg>
