<svg width="19" height="20" viewBox="0 0 19 20" fill="none" xmlns="http://www.w3.org/2000/svg">
<path d="M16.64 10.94C16.68 10.64 16.7 10.33 16.7 10C16.7 9.68003 16.68 9.36002 16.63 9.06002L18.66 7.48002C18.84 7.34002 18.89 7.07002 18.78 6.87002L16.86 3.55002C16.74 3.33002 16.49 3.26002 16.27 3.33002L13.88 4.29002C13.38 3.91002 12.85 3.59002 12.26 3.35002L11.9 0.810024C11.86 0.570024 11.66 0.400024 11.42 0.400024H7.57999C7.33999 0.400024 7.14999 0.570024 7.10999 0.810024L6.74999 3.35002C6.15999 3.59002 5.61999 3.92002 5.12999 4.29002L2.73999 3.33002C2.51999 3.25002 2.26999 3.33002 2.14999 3.55002L0.239988 6.87002C0.119988 7.08002 0.159988 7.34002 0.359988 7.48002L2.38999 9.06002C2.33999 9.36002 2.29999 9.69002 2.29999 10C2.29999 10.31 2.31999 10.64 2.36999 10.94L0.339988 12.52C0.159988 12.66 0.109988 12.93 0.219988 13.13L2.13999 16.45C2.25999 16.67 2.50999 16.74 2.72999 16.67L5.11999 15.71C5.61999 16.09 6.14999 16.41 6.73999 16.65L7.09999 19.19C7.14999 19.43 7.33999 19.6 7.57999 19.6H11.42C11.66 19.6 11.86 19.43 11.89 19.19L12.25 16.65C12.84 16.41 13.38 16.09 13.87 15.71L16.26 16.67C16.48 16.75 16.73 16.67 16.85 16.45L18.77 13.13C18.89 12.91 18.84 12.66 18.65 12.52L16.64 10.94ZM9.49999 13.6C7.51999 13.6 5.89999 11.98 5.89999 10C5.89999 8.02002 7.51999 6.40002 9.49999 6.40002C11.48 6.40002 13.1 8.02002 13.1 10C13.1 11.98 11.48 13.6 9.49999 13.6Z" fill="#0050C8"/>
</svg>
