<svg width="228" height="228" viewBox="0 0 228 228" fill="none" xmlns="http://www.w3.org/2000/svg">
<path d="M205.154 181.711H190.052V181.825H205.154V181.711Z" fill="#EBEBEB"/>
<path d="M151.036 182.952H147.074V183.066H151.036V182.952Z" fill="#EBEBEB"/>
<path d="M189.596 177.48H180.845V177.594H189.596V177.48Z" fill="#EBEBEB"/>
<path d="M43.6164 178.246H23.9218V178.36H43.6164V178.246Z" fill="#EBEBEB"/>
<path d="M50.5658 178.246H47.6793V178.36H50.5658V178.246Z" fill="#EBEBEB"/>
<path d="M102.668 180.17H59.9503V180.284H102.668V180.17Z" fill="#EBEBEB"/>
<path d="M108.072 154.037H20.0276C19.337 154.037 18.6748 153.762 18.1865 153.274C17.6982 152.786 17.4238 152.124 17.4238 151.433V27.6609C17.4298 26.9743 17.7068 26.3179 18.1945 25.8345C18.6821 25.3511 19.341 25.0799 20.0276 25.08H108.072C108.763 25.08 109.425 25.3543 109.913 25.8426C110.402 26.3309 110.676 26.9932 110.676 27.6837V151.433C110.676 152.124 110.402 152.786 109.913 153.274C109.425 153.762 108.763 154.037 108.072 154.037ZM20.0276 25.1712C19.3676 25.1724 18.7351 25.4351 18.2684 25.9017C17.8017 26.3684 17.539 27.001 17.5378 27.6609V151.433C17.539 152.093 17.8017 152.726 18.2684 153.192C18.7351 153.659 19.3676 153.922 20.0276 153.923H108.072C108.732 153.922 109.365 153.659 109.831 153.192C110.298 152.726 110.561 152.093 110.562 151.433V27.6609C110.561 27.001 110.298 26.3684 109.831 25.9017C109.365 25.4351 108.732 25.1724 108.072 25.1712H20.0276Z" fill="#EBEBEB"/>
<path d="M206.709 154.037H118.656C117.966 154.036 117.304 153.761 116.816 153.273C116.328 152.785 116.053 152.123 116.052 151.433V27.6609C116.059 26.9747 116.337 26.3189 116.824 25.8358C117.311 25.3527 117.969 25.0811 118.656 25.08H206.709C207.394 25.0823 208.051 25.3546 208.537 25.8377C209.022 26.3208 209.298 26.9759 209.304 27.6609V151.433C209.304 152.122 209.031 152.783 208.545 153.271C208.058 153.759 207.398 154.034 206.709 154.037ZM118.656 25.1712C117.996 25.1724 117.363 25.4351 116.897 25.9017C116.43 26.3684 116.167 27.001 116.166 27.6609V151.433C116.167 152.093 116.43 152.726 116.897 153.192C117.363 153.659 117.996 153.922 118.656 153.923H206.709C207.369 153.922 208.002 153.659 208.469 153.192C208.935 152.726 209.198 152.093 209.199 151.433V27.6609C209.198 27.001 208.935 26.3684 208.469 25.9017C208.002 25.4351 207.369 25.1724 206.709 25.1712H118.656Z" fill="#EBEBEB"/>
<path d="M228 174.374H0V174.488H228V174.374Z" fill="#EBEBEB"/>
<path d="M188.26 133.498C183.084 137.488 181.588 146.225 181.328 152.381C181.328 152.942 180.416 152.947 180.453 152.381C180.726 145.861 182.213 137.064 187.817 132.741C188.273 132.399 188.697 133.156 188.273 133.498H188.26Z" fill="#F5F5F5"/>
<path d="M176.244 129.048C177.566 128.898 178.675 130.247 179.249 131.237C182.227 136.385 181.073 144.151 180.512 149.677C180.453 150.229 179.577 150.238 179.637 149.677C180.184 144.301 181.183 137.297 178.752 132.19C178.337 131.314 177.448 129.787 176.244 129.91C175.688 129.974 175.692 129.098 176.244 129.034V129.048Z" fill="#E6E6E6"/>
<path d="M173.038 136.102C178.574 134.734 179.267 147.01 179.422 149.659C179.459 150.22 178.583 150.22 178.547 149.659C178.328 146.075 178.15 140.945 175.56 138.072C175.036 137.488 174.128 136.736 173.28 136.946C173.181 136.944 173.086 136.911 173.008 136.85C172.93 136.79 172.874 136.706 172.848 136.611C172.822 136.516 172.827 136.415 172.863 136.323C172.899 136.232 172.964 136.154 173.047 136.102H173.038Z" fill="#E6E6E6"/>
<path d="M189.445 142.058C184.885 138.67 183.38 147.575 183.125 150.143C183.07 150.699 182.213 150.703 182.25 150.143C182.537 147.229 182.979 141.935 186.354 140.731C186.947 140.537 187.578 140.488 188.194 140.587C188.81 140.686 189.394 140.931 189.897 141.301C190.353 141.634 189.897 142.395 189.441 142.058H189.445Z" fill="#E6E6E6"/>
<path d="M171.242 143.667C171.589 143.3 172.017 143.019 172.492 142.846C172.967 142.673 173.476 142.614 173.978 142.673C176.768 143.129 177.544 147.356 177.968 149.541C178.073 150.092 177.229 150.325 177.124 149.773C176.759 147.885 174.999 141.109 171.871 144.301C171.785 144.346 171.687 144.363 171.59 144.348C171.494 144.333 171.405 144.288 171.337 144.22C171.268 144.151 171.223 144.062 171.208 143.966C171.194 143.87 171.21 143.772 171.255 143.686L171.242 143.667Z" fill="#F5F5F5"/>
<path d="M187.726 172.368H174.502C173.309 171.359 172.351 170.102 171.694 168.684C171.038 167.266 170.7 165.722 170.704 164.16C170.704 160.407 172.815 149.144 172.815 149.144H189.436C189.436 149.144 191.52 160.425 191.52 164.16C191.524 165.722 191.187 167.266 190.531 168.684C189.876 170.102 188.918 171.359 187.726 172.368Z" fill="#EBEBEB"/>
<path d="M189.833 146.376C185.838 146.376 181.93 144.757 181.105 142.764C180.28 140.772 182.847 139.148 186.837 139.148C188.125 139.15 189.407 139.314 190.654 139.636C191.759 139.295 192.912 139.13 194.069 139.148C198.059 139.148 201.967 140.767 202.792 142.764C203.618 144.762 201.055 146.376 197.06 146.376H189.833Z" fill="#F5F5F5"/>
<path d="M163.782 138.624C160.517 138.624 159.19 137.302 160.827 135.669C162.464 134.037 166.426 132.714 169.696 132.714C170.566 132.686 171.433 132.821 172.254 133.111C173.354 132.858 174.477 132.725 175.606 132.714C178.875 132.714 180.198 134.037 178.565 135.669C176.933 137.302 172.961 138.624 169.696 138.624H163.782Z" fill="#F0F0F0"/>
<path d="M193.8 135.683C189.696 135.683 184.68 134.018 182.637 131.962C180.594 129.905 182.25 128.241 186.358 128.241C187.78 128.255 189.196 128.425 190.581 128.747C191.612 128.376 192.705 128.204 193.8 128.241C197.904 128.241 202.92 129.91 204.958 131.962C206.997 134.014 205.346 135.683 201.237 135.683H193.8Z" fill="#EBEBEB"/>
<path d="M170.973 130.872C168.921 130.872 167.598 130.038 168.022 129.012C168.446 127.986 170.462 127.151 172.514 127.151C173.109 127.141 173.701 127.226 174.27 127.402C174.912 127.236 175.572 127.152 176.235 127.151C178.287 127.151 179.609 127.981 179.185 129.012C178.761 130.042 176.75 130.872 174.694 130.872H170.973Z" fill="#F0F0F0"/>
<path d="M168.606 145.76C166.549 145.76 164.538 144.926 164.114 143.9C163.69 142.874 165.026 142.039 167.065 142.039C167.726 142.042 168.385 142.126 169.025 142.29C169.596 142.117 170.19 142.032 170.786 142.039C172.838 142.039 174.849 142.874 175.273 143.9C175.697 144.926 174.361 145.76 172.322 145.76H168.606Z" fill="#EBEBEB"/>
<path d="M172.418 151.246C172.642 149.983 172.797 149.162 172.797 149.162H189.418C189.418 149.162 189.568 149.983 189.792 151.246H172.418Z" fill="#F5F5F5"/>
<path d="M171.693 133.845C171.693 133.845 167.133 135.364 165.692 137.872C165.692 137.872 165.92 134.224 171.693 133.845Z" fill="#FAFAFA"/>
<path d="M173.841 127.881C173.107 128.305 172.459 128.864 171.93 129.527C172.057 129.098 172.304 128.714 172.643 128.422C172.982 128.13 173.398 127.942 173.841 127.881Z" fill="#FAFAFA"/>
<path d="M191.52 129.527C191.52 129.527 196.463 131.351 199.505 134.757C199.509 134.757 197.152 130.001 191.52 129.527Z" fill="#FAFAFA"/>
<path d="M191.52 140.53C193.574 141.383 195.362 142.772 196.696 144.552C196.696 144.552 195.784 141.137 191.52 140.53Z" fill="#E6E6E6"/>
<path d="M169.108 143.038C169.474 143.23 169.785 143.513 170.011 143.86C170.236 144.206 170.37 144.605 170.398 145.017C169.794 144.488 169.348 143.804 169.108 143.038Z" fill="#FAFAFA"/>
<path d="M200.891 78.473V76.3663H140.562V78.473H200.891Z" fill="#F5F5F5"/>
<path d="M156.641 78.4775H146.549V83.2063H151.597C151.597 82.9216 151.652 82.6397 151.761 82.3767C151.869 82.1136 152.029 81.8746 152.23 81.6733C152.431 81.4721 152.671 81.3126 152.934 81.2039C153.197 81.0953 153.479 81.0397 153.763 81.0403H156.641V78.4775Z" fill="#E0E0E0"/>
<path d="M152.081 78.4775H144.725V83.2063H147.037C147.037 82.9216 147.092 82.6397 147.201 82.3767C147.31 82.1136 147.469 81.8746 147.67 81.6733C147.872 81.4721 148.111 81.3126 148.374 81.2039C148.637 81.0953 148.919 81.0397 149.203 81.0403H152.081V78.4775Z" fill="#F5F5F5"/>
<path d="M184.812 78.4775H194.908V83.2063H189.86C189.86 82.6318 189.632 82.0809 189.226 81.6747C188.82 81.2685 188.269 81.0403 187.694 81.0403H184.812V78.4775Z" fill="#EBEBEB"/>
<path d="M189.372 78.4775H196.732V83.2063H194.42C194.42 82.6318 194.192 82.0809 193.786 81.6747C193.38 81.2685 192.829 81.0403 192.254 81.0403H189.372V78.4775Z" fill="#F5F5F5"/>
<path d="M177.945 76.5715H183.198C183.671 76.1724 184.052 75.6746 184.313 75.1129C184.573 74.5513 184.708 73.9394 184.707 73.3202C184.707 71.8336 183.868 62.9827 183.868 62.9827H177.275C177.275 62.9827 176.436 71.8336 176.436 73.3202C176.435 73.9394 176.57 74.5513 176.83 75.1129C177.091 75.6746 177.471 76.1724 177.945 76.5715Z" fill="#EBEBEB"/>
<path d="M181.287 70.7346C181.265 71.1541 181.251 71.4916 181.251 71.7196C181.25 72.6436 181.452 73.5565 181.841 74.3946C182.23 75.2326 182.797 75.9756 183.504 76.5714H191.347C192.053 75.9756 192.62 75.2326 193.01 74.3946C193.399 73.5565 193.6 72.6436 193.599 71.7196C193.599 71.4916 193.599 71.1541 193.563 70.7346H181.287Z" fill="#F5F5F5"/>
<path d="M177.936 70.7939C177.934 70.5257 177.827 70.2688 177.639 70.0774C177.451 69.886 177.196 69.775 176.928 69.7679H170.763C170.492 69.7679 170.232 69.8746 170.039 70.0649C169.846 70.2553 169.736 70.5139 169.732 70.7848V70.8578C169.511 70.7878 169.281 70.7509 169.048 70.7483C168.041 70.7483 167.366 71.5327 167.366 72.7046C167.366 73.8765 168.542 74.6608 169.596 74.6608C169.703 74.6595 169.809 74.6488 169.915 74.6289C170.158 75.3815 170.606 76.0512 171.21 76.5623H176.472C176.946 76.1633 177.326 75.6655 177.587 75.1038C177.847 74.5422 177.982 73.9303 177.981 73.3111C177.968 72.9143 177.954 71.9659 177.936 70.7939ZM169.591 74.0133C168.88 74.0133 168.018 73.4342 168.018 72.7137C168.018 72.4082 168.091 71.4095 169.044 71.4095C169.277 71.4147 169.507 71.4674 169.719 71.5646C169.719 72.3717 169.696 73.0101 169.696 73.3202C169.698 73.5495 169.72 73.7783 169.76 74.0042L169.591 74.0133Z" fill="#E0E0E0"/>
<path d="M99.75 59.3802H69.5856V125.487H99.75V59.3802Z" fill="#EBEBEB"/>
<path d="M69.5857 59.3802H39.4213V125.487H69.5857V59.3802Z" fill="#EBEBEB"/>
<path d="M86.1521 167.644H96.2434V172.368H91.2C91.2 171.793 90.9718 171.243 90.5656 170.836C90.1594 170.43 89.6085 170.202 89.034 170.202H86.1521V167.644Z" fill="#E0E0E0"/>
<path d="M53.0237 167.644H42.9279V172.368H47.9758C47.9758 171.793 48.204 171.243 48.6102 170.836C49.0164 170.43 49.5673 170.202 50.1418 170.202H53.0237V167.644Z" fill="#E0E0E0"/>
<path d="M99.7501 125.482H39.4213V146.308H99.7501V125.482Z" fill="#EBEBEB"/>
<path d="M99.7501 146.307H39.4213V167.133H99.7501V146.307Z" fill="#EBEBEB"/>
<path d="M99.75 128.683V126.576H39.4212V128.683H99.75Z" fill="#E0E0E0"/>
<path d="M69.5901 62.399V60.2922H39.4257V62.399H69.5901Z" fill="#E0E0E0"/>
<path d="M99.7545 62.399V60.2922H69.5901V62.399H99.7545Z" fill="#E0E0E0"/>
<path d="M99.75 149.344V147.238H39.4212V149.344H99.75Z" fill="#E0E0E0"/>
<path d="M99.75 58.3269H38.3678V168.041H100.803V58.3269H99.75ZM98.6966 126.768V145.295H40.4745V126.768H98.6966ZM70.6389 124.661V60.4336H98.6966V124.67L70.6389 124.661ZM68.5322 60.4245V124.67H40.4745V60.4336L68.5322 60.4245ZM40.4745 165.934V147.411H98.6966V165.934H40.4745Z" fill="#F5F5F5"/>
<path d="M48.4636 167.644H38.3678V172.368H43.4157C43.4157 171.793 43.6439 171.243 44.0501 170.836C44.4563 170.43 45.0073 170.202 45.5817 170.202H48.4636V167.644Z" fill="#F5F5F5"/>
<path d="M90.7122 167.644H100.803V172.368H95.7601C95.7601 171.793 95.5319 171.243 95.1257 170.836C94.7195 170.43 94.1685 170.202 93.5941 170.202H90.7122V167.644Z" fill="#F5F5F5"/>
<path d="M72.1712 137.712C72.1712 138.223 72.0195 138.723 71.7354 139.148C71.4513 139.574 71.0475 139.905 70.5751 140.101C70.1026 140.296 69.5828 140.348 69.0812 140.248C68.5797 140.148 68.119 139.902 67.7574 139.54C67.3958 139.179 67.1496 138.718 67.0498 138.216C66.95 137.715 67.0012 137.195 67.1969 136.723C67.3926 136.25 67.724 135.846 68.1492 135.562C68.5744 135.278 69.0743 135.126 69.5857 135.126C70.2714 135.126 70.929 135.399 71.4139 135.884C71.8988 136.369 72.1712 137.026 72.1712 137.712Z" fill="#E0E0E0"/>
<path d="M72.1712 135.888C72.1712 136.399 72.0195 136.899 71.7354 137.324C71.4513 137.75 71.0475 138.081 70.5751 138.277C70.1026 138.472 69.5828 138.524 69.0812 138.424C68.5797 138.324 68.119 138.078 67.7574 137.716C67.3958 137.355 67.1496 136.894 67.0498 136.392C66.95 135.891 67.0012 135.371 67.1969 134.898C67.3926 134.426 67.724 134.022 68.1492 133.738C68.5744 133.454 69.0743 133.302 69.5857 133.302C70.2714 133.302 70.929 133.575 71.4139 134.06C71.8988 134.545 72.1712 135.202 72.1712 135.888Z" fill="#F5F5F5"/>
<path d="M72.171 158.542C72.1701 159.053 72.0177 159.553 71.7331 159.977C71.4484 160.402 71.0443 160.732 70.5718 160.927C70.0993 161.122 69.5796 161.173 69.0783 161.073C68.5771 160.972 68.1168 160.726 67.7557 160.364C67.3945 160.002 67.1487 159.542 67.0493 159.04C66.95 158.539 67.0014 158.019 67.1972 157.547C67.3931 157.075 67.7245 156.671 68.1496 156.387C68.5746 156.103 69.0744 155.952 69.5855 155.952C69.9254 155.952 70.262 156.019 70.576 156.149C70.89 156.279 71.1752 156.47 71.4154 156.711C71.6555 156.951 71.8459 157.237 71.9755 157.551C72.1052 157.865 72.1716 158.202 72.171 158.542Z" fill="#E0E0E0"/>
<path d="M72.171 156.718C72.1701 157.229 72.0177 157.729 71.7331 158.153C71.4484 158.578 71.0443 158.908 70.5718 159.103C70.0993 159.298 69.5796 159.349 69.0783 159.249C68.5771 159.148 68.1168 158.902 67.7557 158.54C67.3945 158.178 67.1487 157.718 67.0493 157.216C66.95 156.715 67.0014 156.195 67.1972 155.723C67.3931 155.251 67.7245 154.847 68.1496 154.563C68.5746 154.279 69.0744 154.128 69.5855 154.128C69.9254 154.128 70.262 154.195 70.576 154.325C70.89 154.455 71.1752 154.646 71.4154 154.887C71.6555 155.127 71.8459 155.413 71.9755 155.727C72.1052 156.041 72.1716 156.378 72.171 156.718Z" fill="#F5F5F5"/>
<path d="M66.1702 91.1406C66.1807 90.9644 66.155 90.7879 66.0948 90.622C66.0345 90.456 65.941 90.3042 65.8199 90.1757C65.6989 90.0472 65.5528 89.9448 65.3907 89.8749C65.2286 89.8049 65.054 89.7688 64.8774 89.7688C64.7009 89.7688 64.5262 89.8049 64.3641 89.8749C64.2021 89.9448 64.056 90.0472 63.9349 90.1757C63.8139 90.3042 63.7203 90.456 63.6601 90.622C63.5999 90.7879 63.5742 90.9644 63.5847 91.1406V95.5502C63.6043 95.8798 63.749 96.1894 63.9893 96.4159C64.2296 96.6423 64.5473 96.7684 64.8774 96.7684C65.2076 96.7684 65.5253 96.6423 65.7656 96.4159C66.0059 96.1894 66.1506 95.8798 66.1702 95.5502V91.1406Z" fill="#E0E0E0"/>
<path d="M66.1702 89.3167C66.1807 89.1404 66.155 88.9639 66.0948 88.798C66.0345 88.6321 65.941 88.4802 65.8199 88.3517C65.6989 88.2232 65.5528 88.1209 65.3907 88.0509C65.2286 87.9809 65.054 87.9448 64.8774 87.9448C64.7009 87.9448 64.5262 87.9809 64.3641 88.0509C64.2021 88.1209 64.056 88.2232 63.9349 88.3517C63.8139 88.4802 63.7203 88.6321 63.6601 88.798C63.5999 88.9639 63.5742 89.1404 63.5847 89.3167V93.7262C63.6043 94.0558 63.749 94.3654 63.9893 94.5919C64.2296 94.8183 64.5473 94.9444 64.8774 94.9444C65.2076 94.9444 65.5253 94.8183 65.7656 94.5919C66.0059 94.3654 66.1506 94.0558 66.1702 93.7262V89.3167Z" fill="#F5F5F5"/>
<path d="M75.6686 91.1406C75.6791 90.9644 75.6534 90.7879 75.5932 90.622C75.533 90.456 75.4394 90.3042 75.3184 90.1757C75.1973 90.0472 75.0512 89.9448 74.8891 89.8749C74.7271 89.8049 74.5524 89.7688 74.3759 89.7688C74.1993 89.7688 74.0246 89.8049 73.8626 89.8749C73.7005 89.9448 73.5544 90.0472 73.4334 90.1757C73.3123 90.3042 73.2188 90.456 73.1585 90.622C73.0983 90.7879 73.0726 90.9644 73.0831 91.1406V95.5502C73.1027 95.8798 73.2474 96.1894 73.4877 96.4159C73.728 96.6423 74.0457 96.7684 74.3759 96.7684C74.706 96.7684 75.0237 96.6423 75.264 96.4159C75.5043 96.1894 75.649 95.8798 75.6686 95.5502V91.1406Z" fill="#E0E0E0"/>
<path d="M75.6686 89.3167C75.6791 89.1404 75.6534 88.9639 75.5932 88.798C75.533 88.6321 75.4394 88.4802 75.3184 88.3517C75.1973 88.2232 75.0512 88.1209 74.8891 88.0509C74.7271 87.9809 74.5524 87.9448 74.3759 87.9448C74.1993 87.9448 74.0246 87.9809 73.8626 88.0509C73.7005 88.1209 73.5544 88.2232 73.4334 88.3517C73.3123 88.4802 73.2188 88.6321 73.1585 88.798C73.0983 88.9639 73.0726 89.1404 73.0831 89.3167V93.7262C73.1027 94.0558 73.2474 94.3654 73.4877 94.5919C73.728 94.8183 74.0457 94.9444 74.3759 94.9444C74.706 94.9444 75.0237 94.8183 75.264 94.5919C75.5043 94.3654 75.649 94.0558 75.6686 93.7262V89.3167Z" fill="#F5F5F5"/>
<path d="M200.891 98.1631V96.0564H140.562V98.1631H200.891Z" fill="#F5F5F5"/>
<path d="M156.641 98.1676H146.549V102.896H151.597C151.597 102.612 151.652 102.33 151.761 102.067C151.869 101.804 152.029 101.565 152.23 101.363C152.431 101.162 152.671 101.003 152.934 100.894C153.197 100.785 153.479 100.73 153.763 100.73H156.641V98.1676Z" fill="#E0E0E0"/>
<path d="M152.081 98.1676H144.725V102.896H147.037C147.037 102.612 147.092 102.33 147.201 102.067C147.31 101.804 147.469 101.565 147.67 101.363C147.872 101.162 148.111 101.003 148.374 100.894C148.637 100.785 148.919 100.73 149.203 100.73H152.081V98.1676Z" fill="#F5F5F5"/>
<path d="M184.812 98.1676H194.908V102.896H189.86C189.86 102.322 189.632 101.771 189.226 101.365C188.82 100.959 188.269 100.73 187.694 100.73H184.812V98.1676Z" fill="#EBEBEB"/>
<path d="M189.372 98.1676H196.732V102.896H194.42C194.42 102.322 194.192 101.771 193.786 101.365C193.38 100.959 192.829 100.73 192.254 100.73H189.372V98.1676Z" fill="#F5F5F5"/>
<path d="M172.938 89.5903C172.982 87.9368 173.67 86.366 174.855 85.2122C176.041 84.0585 177.629 83.4128 179.283 83.4128C180.937 83.4128 182.526 84.0585 183.711 85.2122C184.896 86.366 185.584 87.9368 185.628 89.5903V96.1521H172.938V89.5903Z" fill="#F0F0F0"/>
<path d="M184.101 90.722C184.73 88.0576 183.08 85.388 180.416 84.7592C177.751 84.1303 175.082 85.7804 174.453 88.4447C173.824 91.1091 175.474 93.7787 178.138 94.4075C180.803 95.0364 183.472 93.3863 184.101 90.722Z" fill="#FAFAFA"/>
<path d="M179.285 85.4133C180.531 85.414 181.73 85.8837 182.644 86.7287C183.558 87.5738 184.121 88.7322 184.219 89.9733C184.219 89.8457 184.242 89.718 184.242 89.5857C184.242 88.2711 183.72 87.0104 182.79 86.0808C181.861 85.1513 180.6 84.629 179.285 84.629C177.971 84.629 176.71 85.1513 175.781 86.0808C174.851 87.0104 174.329 88.2711 174.329 89.5857C174.329 89.718 174.329 89.8457 174.329 89.9733C174.428 88.7283 174.993 87.5666 175.913 86.721C176.832 85.8753 178.036 85.4083 179.285 85.4133Z" fill="#E0E0E0"/>
<path d="M182.4 89.5857H179.796V86.9819C179.796 86.8428 179.741 86.7095 179.643 86.6111C179.544 86.5128 179.411 86.4575 179.272 86.4575C179.133 86.4575 178.999 86.5128 178.901 86.6111C178.803 86.7095 178.747 86.8428 178.747 86.9819V90.1101C178.747 90.1791 178.76 90.2476 178.786 90.3115C178.812 90.3754 178.851 90.4334 178.9 90.4822C178.948 90.5311 179.007 90.5697 179.07 90.5958C179.134 90.6219 179.203 90.6351 179.272 90.6345H182.4C182.539 90.6345 182.672 90.5792 182.771 90.4809C182.869 90.3825 182.924 90.2492 182.924 90.1101C182.924 89.971 182.869 89.8376 182.771 89.7393C182.672 89.6409 182.539 89.5857 182.4 89.5857Z" fill="#E0E0E0"/>
<path d="M182.4 90.1147C182.539 90.1147 182.672 90.0595 182.771 89.9611C182.869 89.8628 182.924 89.7294 182.924 89.5903C182.924 89.4512 182.869 89.3179 182.771 89.2195C182.672 89.1212 182.539 89.0659 182.4 89.0659H179.272C179.133 89.0659 178.999 89.1212 178.901 89.2195C178.803 89.3179 178.747 89.4512 178.747 89.5903C178.747 89.7294 178.803 89.8628 178.901 89.9611C178.999 90.0595 179.133 90.1147 179.272 90.1147H182.4Z" fill="#F5F5F5"/>
<path d="M179.81 86.4575C179.81 86.3184 179.755 86.185 179.656 86.0867C179.558 85.9884 179.425 85.9331 179.286 85.9331C179.146 85.9331 179.013 85.9884 178.915 86.0867C178.816 86.185 178.761 86.3184 178.761 86.4575V89.5902C178.761 89.7293 178.816 89.8627 178.915 89.961C179.013 90.0594 179.146 90.1146 179.286 90.1146C179.425 90.1146 179.558 90.0594 179.656 89.961C179.755 89.8627 179.81 89.7293 179.81 89.5902V86.4575Z" fill="#EBEBEB"/>
<path d="M111.802 193.212C160.632 193.212 200.216 190.901 200.216 188.05C200.216 185.199 160.632 182.888 111.802 182.888C62.9724 182.888 23.3882 185.199 23.3882 188.05C23.3882 190.901 62.9724 193.212 111.802 193.212Z" fill="#F5F5F5"/>
<path d="M150.567 174.83H102.828C101.909 174.84 100.999 174.66 100.153 174.301C99.3074 173.942 98.5449 173.413 97.9131 172.746C97.2814 172.079 96.794 171.289 96.4816 170.425C96.1692 169.562 96.0384 168.643 96.0974 167.726L102.299 49.3756C102.418 47.4658 103.255 45.6716 104.642 44.3536C106.029 43.0357 107.864 42.2917 109.777 42.2712H157.512C158.43 42.2611 159.342 42.4409 160.188 42.7992C161.034 43.1576 161.797 43.6868 162.429 44.3537C163.062 45.0206 163.549 45.8109 163.862 46.675C164.175 47.5392 164.306 48.4586 164.247 49.3756L158.045 167.726C157.925 169.635 157.088 171.429 155.701 172.747C154.314 174.064 152.48 174.809 150.567 174.83Z" fill="#407BFF"/>
<path d="M157.265 47.0364H109.527C108.314 47.0512 107.151 47.5236 106.272 48.359C105.393 49.1944 104.861 50.3312 104.784 51.5417L98.8106 165.542C98.7729 166.123 98.8557 166.706 99.0537 167.254C99.2517 167.802 99.5608 168.303 99.9614 168.726C100.362 169.149 100.846 169.484 101.382 169.712C101.919 169.939 102.496 170.053 103.079 170.047H150.817C152.03 170.032 153.193 169.56 154.072 168.724C154.952 167.889 155.483 166.752 155.56 165.542L161.533 51.5417C161.571 50.9603 161.488 50.3774 161.29 49.8295C161.092 49.2816 160.783 48.7804 160.383 48.3575C159.982 47.9346 159.498 47.5989 158.962 47.3716C158.425 47.1443 157.848 47.0301 157.265 47.0364Z" fill="#407BFF"/>
<path opacity="0.8" d="M157.265 47.0364H109.527C108.314 47.0512 107.151 47.5236 106.272 48.359C105.393 49.1944 104.861 50.3312 104.784 51.5417L98.8106 165.542C98.7729 166.123 98.8557 166.706 99.0537 167.254C99.2517 167.802 99.5608 168.303 99.9614 168.726C100.362 169.149 100.846 169.484 101.382 169.712C101.919 169.939 102.496 170.053 103.079 170.047H150.817C152.03 170.032 153.193 169.56 154.072 168.724C154.952 167.889 155.483 166.752 155.56 165.542L161.533 51.5417C161.571 50.9603 161.488 50.3774 161.29 49.8295C161.092 49.2816 160.783 48.7804 160.383 48.3575C159.982 47.9346 159.498 47.5989 158.962 47.3716C158.425 47.1443 157.848 47.0301 157.265 47.0364Z" fill="white"/>
<path d="M161.424 42.2712H157.525C158.444 42.2611 159.355 42.4409 160.201 42.7992C161.048 43.1576 161.811 43.6868 162.443 44.3537C163.075 45.0206 163.563 45.8109 163.876 46.675C164.188 47.5392 164.319 48.4586 164.26 49.3756L158.059 167.726C157.94 169.636 157.103 171.43 155.716 172.748C154.328 174.066 152.494 174.81 150.58 174.83H154.479C156.393 174.81 158.227 174.066 159.615 172.748C161.002 171.43 161.839 169.636 161.958 167.726L168.159 49.3756C168.218 48.4586 168.087 47.5392 167.775 46.675C167.462 45.8109 166.974 45.0206 166.342 44.3537C165.71 43.6868 164.946 43.1576 164.1 42.7992C163.254 42.4409 162.343 42.2611 161.424 42.2712Z" fill="#407BFF"/>
<path opacity="0.4" d="M161.424 42.2712H157.525C158.444 42.2611 159.355 42.4409 160.201 42.7992C161.048 43.1576 161.811 43.6868 162.443 44.3537C163.075 45.0206 163.563 45.8109 163.876 46.675C164.188 47.5392 164.319 48.4586 164.26 49.3756L158.059 167.726C157.94 169.636 157.103 171.43 155.716 172.748C154.328 174.066 152.494 174.81 150.58 174.83H154.479C156.393 174.81 158.227 174.066 159.615 172.748C161.002 171.43 161.839 169.636 161.958 167.726L168.159 49.3756C168.218 48.4586 168.087 47.5392 167.775 46.675C167.462 45.8109 166.974 45.0206 166.342 44.3537C165.71 43.6868 164.946 43.1576 164.1 42.7992C163.254 42.4409 162.343 42.2611 161.424 42.2712Z" fill="white"/>
<path opacity="0.4" d="M109.522 47.0364L116.006 170.088H132.878L126.394 47.0592H109.522V47.0364Z" fill="white"/>
<path opacity="0.4" d="M135.934 170.065H139.732L133.248 47.0364H129.449L135.934 170.065Z" fill="white"/>
<path d="M111.93 40.1964H113.603C113.658 40.1964 113.71 40.1748 113.748 40.1363C113.787 40.0978 113.808 40.0456 113.808 39.9912C113.808 39.9368 113.787 39.8846 113.748 39.8461C113.71 39.8076 113.658 39.786 113.603 39.786H111.93C111.875 39.786 111.823 39.8076 111.785 39.8461C111.746 39.8846 111.724 39.9368 111.724 39.9912C111.724 40.0456 111.746 40.0978 111.785 40.1363C111.823 40.1748 111.875 40.1964 111.93 40.1964Z" fill="#407BFF"/>
<path d="M99.7637 53.7031C99.8685 51.7514 99.7865 49.6675 100.22 47.7751C101.186 43.3792 105.135 40.3696 109.559 40.2191C109.818 40.2191 109.823 39.7996 109.559 39.8087C107.622 39.8511 105.738 40.4417 104.123 41.512C102.509 42.5822 101.231 44.0882 100.439 45.8553C99.3624 48.2949 99.5265 51.1175 99.3806 53.7259C99.3806 53.9903 99.7773 53.9903 99.791 53.7259L99.7637 53.7031Z" fill="#407BFF"/>
<path d="M137.156 71.4552H126.212C125.73 71.4606 125.253 71.3666 124.81 71.1789C124.366 70.9913 123.966 70.7142 123.635 70.3649C123.304 70.0156 123.048 69.6017 122.884 69.149C122.72 68.6964 122.651 68.2147 122.682 67.7343L123.257 56.7903C123.318 55.7896 123.756 54.8493 124.483 54.1588C125.21 53.4683 126.171 53.079 127.174 53.0693H138.118C138.599 53.0639 139.076 53.158 139.519 53.3456C139.962 53.5333 140.362 53.8105 140.693 54.1599C141.024 54.5092 141.279 54.9232 141.443 55.3759C141.606 55.8285 141.674 56.3101 141.643 56.7903L141.073 67.7343C141.009 68.7342 140.571 69.6733 139.844 70.3634C139.118 71.0534 138.157 71.4434 137.156 71.4552Z" fill="white"/>
<path d="M130.17 63.9129C129.403 63.0731 128.95 61.9936 128.888 60.8578H128.843C128.387 60.8578 128.068 60.3698 128.099 59.7725C128.131 59.1751 128.514 58.6872 128.957 58.6872H129.071L129.153 58.3953C131.793 58.254 133.257 57.383 134.064 56.6717C134.232 57.0281 134.473 57.3452 134.771 57.6021C135.07 57.8591 135.419 58.0501 135.797 58.1628C135.838 58.3315 135.874 58.5093 135.902 58.6872H136.016C136.472 58.6872 136.795 59.1706 136.764 59.7725C136.732 60.3744 136.344 60.8578 135.902 60.8578H135.856C135.671 61.9518 135.164 62.966 134.401 63.7716C135.025 63.97 135.684 64.0367 136.335 63.9677C139.002 63.8126 137.593 58.3269 136.157 56.3616C135.281 55.1578 134.789 54.5969 134.292 54.8203C133.736 54.5148 130.393 53.1377 128.232 57.1915C125.988 61.4004 125.322 65.2308 130.17 63.9129Z" fill="#407BFF"/>
<path d="M137.516 66.8632L134.757 65.9832C134.757 65.9832 132.372 66.8952 131.802 69.1752C131.474 66.8952 129.185 65.9832 129.185 65.9832L126.335 66.8632C124.625 67.1004 123.795 68.5641 123.394 70.078C123.725 70.5089 124.152 70.8568 124.641 71.0942C125.13 71.3316 125.668 71.4521 126.212 71.446H137.156C137.719 71.4434 138.275 71.3199 138.786 71.0839C139.298 70.8479 139.752 70.5049 140.12 70.078C139.878 68.5641 139.199 67.1004 137.516 66.8632Z" fill="#407BFF"/>
<path d="M145.076 69.8455C145.092 69.63 145.092 69.4135 145.076 69.198L146.166 68.2586C146.069 67.8067 145.916 67.3686 145.71 66.9545L144.31 67.0274C144.067 66.683 143.775 66.3758 143.444 66.1154L143.59 64.7201C143.188 64.4882 142.759 64.3074 142.313 64.182L141.292 65.208C141.078 65.1789 140.864 65.1636 140.649 65.1624C140.43 65.1636 140.213 65.1789 139.996 65.208L139.116 64.1729C138.653 64.299 138.206 64.4796 137.785 64.7109V66.12C137.426 66.3808 137.102 66.6874 136.823 67.032L135.432 66.959C135.18 67.3694 134.975 67.8069 134.821 68.2632L135.81 69.2025C135.768 69.4161 135.742 69.6325 135.733 69.8501C135.717 70.0641 135.717 70.279 135.733 70.493L134.648 71.4324C134.747 71.8838 134.9 72.3216 135.104 72.7365L136.504 72.6636C136.749 73.0059 137.041 73.3128 137.37 73.5756L137.229 74.9709C137.628 75.2028 138.056 75.3836 138.501 75.509L139.495 74.4739C139.708 74.503 139.923 74.5183 140.138 74.5195C140.354 74.5183 140.571 74.5031 140.785 74.4739L141.67 75.509C142.133 75.3813 142.58 75.2007 143.002 74.9709V73.5756C143.359 73.3124 143.682 73.006 143.964 72.6636L145.354 72.7365C145.607 72.3269 145.81 71.8893 145.961 71.4324L145.008 70.4885C145.045 70.2759 145.068 70.0611 145.076 69.8455ZM140.325 71.3093C140.135 71.3129 139.946 71.2769 139.771 71.2037C139.596 71.1304 139.438 71.0215 139.307 70.8838C139.176 70.7461 139.075 70.5827 139.011 70.4039C138.947 70.2251 138.921 70.035 138.934 69.8455C138.959 69.451 139.132 69.0806 139.419 68.8083C139.706 68.5361 140.085 68.3821 140.48 68.3772C140.668 68.3767 140.855 68.4151 141.028 68.49C141.2 68.565 141.356 68.6748 141.484 68.8126C141.613 68.9505 141.711 69.1134 141.774 69.2911C141.836 69.4689 141.862 69.6576 141.848 69.8455C141.824 70.2361 141.654 70.6034 141.372 70.8745C141.09 71.1457 140.716 71.3008 140.325 71.3093Z" fill="#407BFF"/>
<path opacity="0.4" d="M145.076 69.8455C145.092 69.63 145.092 69.4135 145.076 69.198L146.166 68.2586C146.069 67.8067 145.916 67.3686 145.71 66.9545L144.31 67.0274C144.067 66.683 143.775 66.3758 143.444 66.1154L143.59 64.7201C143.188 64.4882 142.759 64.3074 142.313 64.182L141.292 65.208C141.078 65.1789 140.864 65.1636 140.649 65.1624C140.43 65.1636 140.213 65.1789 139.996 65.208L139.116 64.1729C138.653 64.299 138.206 64.4796 137.785 64.7109V66.12C137.426 66.3808 137.102 66.6874 136.823 67.032L135.432 66.959C135.18 67.3694 134.975 67.8069 134.821 68.2632L135.81 69.2025C135.768 69.4161 135.742 69.6325 135.733 69.8501C135.717 70.0641 135.717 70.279 135.733 70.493L134.648 71.4324C134.747 71.8838 134.9 72.3216 135.104 72.7365L136.504 72.6636C136.749 73.0059 137.041 73.3128 137.37 73.5756L137.229 74.9709C137.628 75.2028 138.056 75.3836 138.501 75.509L139.495 74.4739C139.708 74.503 139.923 74.5183 140.138 74.5195C140.354 74.5183 140.571 74.5031 140.785 74.4739L141.67 75.509C142.133 75.3813 142.58 75.2007 143.002 74.9709V73.5756C143.359 73.3124 143.682 73.006 143.964 72.6636L145.354 72.7365C145.607 72.3269 145.81 71.8893 145.961 71.4324L145.008 70.4885C145.045 70.2759 145.068 70.0611 145.076 69.8455ZM140.325 71.3093C140.135 71.3129 139.946 71.2769 139.771 71.2037C139.596 71.1304 139.438 71.0215 139.307 70.8838C139.176 70.7461 139.075 70.5827 139.011 70.4039C138.947 70.2251 138.921 70.035 138.934 69.8455C138.959 69.451 139.132 69.0806 139.419 68.8083C139.706 68.5361 140.085 68.3821 140.48 68.3772C140.668 68.3767 140.855 68.4151 141.028 68.49C141.2 68.565 141.356 68.6748 141.484 68.8126C141.613 68.9505 141.711 69.1134 141.774 69.2911C141.836 69.4689 141.862 69.6576 141.848 69.8455C141.824 70.2361 141.654 70.6034 141.372 70.8745C141.09 71.1457 140.716 71.3008 140.325 71.3093Z" fill="white"/>
<path d="M140.325 71.3093C140.135 71.3129 139.946 71.277 139.771 71.2037C139.596 71.1305 139.438 71.0215 139.307 70.8838C139.176 70.7461 139.075 70.5827 139.011 70.4039C138.947 70.2252 138.921 70.035 138.934 69.8455C138.959 69.451 139.132 69.0806 139.419 68.8084C139.706 68.5361 140.085 68.3821 140.48 68.3772C140.668 68.3767 140.855 68.4151 141.028 68.49C141.2 68.565 141.356 68.6748 141.484 68.8127C141.613 68.9505 141.711 69.1134 141.774 69.2912C141.836 69.4689 141.862 69.6576 141.848 69.8455C141.824 70.2361 141.654 70.6034 141.372 70.8745C141.09 71.1457 140.716 71.3009 140.325 71.3093Z" fill="white"/>
<path d="M130.922 121.921H129.367L129.509 119.249H131.059L130.922 121.921Z" fill="#407BFF"/>
<path d="M137.995 121.921H136.444L136.677 117.516H138.227L137.995 121.921Z" fill="#407BFF"/>
<path d="M145.072 121.921H143.521L143.841 115.783H145.396L145.072 121.921Z" fill="#407BFF"/>
<path d="M152.149 121.921H150.594L151.009 114.055H152.559L152.149 121.921Z" fill="white"/>
<path d="M109.476 121.921H117.365C118.428 121.91 119.447 121.497 120.218 120.766C120.989 120.034 121.454 119.037 121.519 117.976C121.552 117.467 121.479 116.957 121.306 116.477C121.132 115.997 120.861 115.559 120.51 115.188C120.159 114.818 119.736 114.524 119.266 114.325C118.796 114.126 118.29 114.027 117.78 114.032H109.896C108.833 114.043 107.814 114.455 107.043 115.187C106.272 115.919 105.808 116.916 105.742 117.976C105.709 118.485 105.782 118.995 105.955 119.474C106.129 119.954 106.399 120.392 106.749 120.763C107.1 121.133 107.523 121.427 107.992 121.626C108.461 121.825 108.967 121.926 109.476 121.921Z" fill="white"/>
<path d="M109.846 114.912H117.735C118.691 114.901 119.614 115.261 120.311 115.915C121.008 116.57 121.424 117.468 121.474 118.423C121.497 118.282 121.51 118.136 121.519 117.99C121.552 117.481 121.479 116.97 121.306 116.491C121.132 116.011 120.861 115.572 120.51 115.202C120.159 114.832 119.736 114.538 119.266 114.339C118.796 114.14 118.29 114.04 117.78 114.046H109.896C108.833 114.056 107.814 114.469 107.043 115.201C106.272 115.933 105.807 116.929 105.742 117.99C105.742 118.136 105.742 118.282 105.742 118.423C105.907 117.45 106.408 116.566 107.158 115.925C107.908 115.283 108.859 114.925 109.846 114.912Z" fill="#407BFF"/>
<path opacity="0.3" d="M109.846 114.912H117.735C118.691 114.901 119.614 115.261 120.311 115.915C121.008 116.57 121.424 117.468 121.474 118.423C121.497 118.282 121.51 118.136 121.519 117.99C121.552 117.481 121.479 116.97 121.306 116.491C121.132 116.011 120.861 115.572 120.51 115.202C120.159 114.832 119.736 114.538 119.266 114.339C118.796 114.14 118.29 114.04 117.78 114.046H109.896C108.833 114.056 107.814 114.469 107.043 115.201C106.272 115.933 105.807 116.929 105.742 117.99C105.742 118.136 105.742 118.282 105.742 118.423C105.907 117.45 106.408 116.566 107.158 115.925C107.908 115.283 108.859 114.925 109.846 114.912Z" fill="white"/>
<path d="M112.363 120.72C113.965 119.16 114.062 116.662 112.581 115.141C111.099 113.621 108.599 113.654 106.998 115.214C105.396 116.775 105.299 119.273 106.781 120.793C108.262 122.314 110.762 122.281 112.363 120.72Z" fill="#407BFF"/>
<path d="M105.03 155.925H103.48L103.667 152.386H105.217L105.03 155.925Z" fill="#407BFF"/>
<path d="M110.785 155.058H109.235L109.308 153.686H110.858L110.785 155.058Z" fill="#407BFF"/>
<path d="M116.471 155.491H114.921L115.035 153.252H116.59L116.471 155.491Z" fill="#407BFF"/>
<path d="M122.203 155.058H120.648L120.721 153.686H122.276L122.203 155.058Z" fill="#407BFF"/>
<path d="M127.867 155.925H126.312L126.499 152.386H128.049L127.867 155.925Z" fill="#407BFF"/>
<path d="M133.617 155.058H132.067L132.14 153.686H133.69L133.617 155.058Z" fill="#407BFF"/>
<path d="M139.303 155.491H137.753L137.872 153.252H139.422L139.303 155.491Z" fill="#407BFF"/>
<path d="M145.035 155.058H143.485L143.553 153.686H145.108L145.035 155.058Z" fill="#407BFF"/>
<path d="M150.699 155.925H149.148L149.331 152.386H150.886L150.699 155.925Z" fill="#407BFF"/>
<g opacity="0.3">
<path opacity="0.3" d="M105.03 155.925H103.48L103.667 152.386H105.217L105.03 155.925Z" fill="black"/>
<path opacity="0.3" d="M110.785 155.058H109.235L109.308 153.686H110.858L110.785 155.058Z" fill="black"/>
<path opacity="0.3" d="M116.472 155.491H114.921L115.035 153.252H116.59L116.472 155.491Z" fill="black"/>
<path opacity="0.3" d="M122.204 155.058H120.649L120.722 153.686H122.276L122.204 155.058Z" fill="black"/>
<path opacity="0.3" d="M127.867 155.925H126.312L126.499 152.386H128.049L127.867 155.925Z" fill="black"/>
<path opacity="0.3" d="M133.617 155.058H132.067L132.14 153.686H133.69L133.617 155.058Z" fill="black"/>
<path opacity="0.3" d="M139.303 155.491H137.753L137.872 153.252H139.422L139.303 155.491Z" fill="black"/>
<path opacity="0.3" d="M145.035 155.058H143.485L143.553 153.686H145.108L145.035 155.058Z" fill="black"/>
<path opacity="0.3" d="M150.699 155.925H149.148L149.331 152.386H150.886L150.699 155.925Z" fill="black"/>
</g>
<path d="M123.485 156.508C123.508 156.116 123.576 154.762 123.599 154.374C123.622 153.987 123.69 152.628 123.708 152.24C123.726 151.965 123.688 151.688 123.594 151.428C123.501 151.169 123.354 150.931 123.165 150.73C122.975 150.529 122.746 150.37 122.492 150.262C122.238 150.154 121.964 150.099 121.688 150.102C121.113 150.108 120.561 150.333 120.144 150.729C119.727 151.126 119.476 151.666 119.44 152.24C119.417 152.628 119.349 153.982 119.326 154.374C119.303 154.766 119.235 156.116 119.217 156.508C119.199 156.784 119.238 157.059 119.332 157.319C119.426 157.578 119.572 157.815 119.762 158.015C119.951 158.216 120.18 158.375 120.434 158.483C120.688 158.59 120.961 158.645 121.237 158.642C121.811 158.636 122.362 158.412 122.779 158.016C123.196 157.62 123.448 157.082 123.485 156.508Z" fill="#407BFF"/>
<path d="M108.478 140.936H116.371C117.433 140.925 118.452 140.512 119.222 139.78C119.992 139.048 120.456 138.052 120.521 136.991C120.554 136.483 120.482 135.972 120.309 135.493C120.136 135.013 119.865 134.574 119.515 134.204C119.164 133.834 118.741 133.54 118.271 133.341C117.802 133.142 117.296 133.042 116.786 133.047H108.893C107.83 133.058 106.811 133.471 106.04 134.202C105.269 134.934 104.804 135.931 104.739 136.991C104.706 137.501 104.779 138.011 104.952 138.491C105.126 138.97 105.397 139.409 105.748 139.779C106.099 140.15 106.522 140.443 106.992 140.642C107.462 140.841 107.968 140.941 108.478 140.936Z" fill="white"/>
<path d="M108.847 133.913H116.736C117.692 133.903 118.614 134.262 119.31 134.917C120.007 135.572 120.422 136.47 120.471 137.425C120.495 137.281 120.51 137.137 120.516 136.991C120.55 136.483 120.477 135.972 120.304 135.493C120.131 135.013 119.861 134.574 119.51 134.204C119.16 133.834 118.736 133.54 118.267 133.341C117.797 133.142 117.292 133.042 116.782 133.047H108.893C107.83 133.058 106.811 133.471 106.04 134.202C105.269 134.934 104.804 135.931 104.739 136.991C104.739 137.137 104.739 137.283 104.739 137.425C104.902 136.45 105.404 135.564 106.155 134.923C106.906 134.281 107.859 133.923 108.847 133.913Z" fill="#407BFF"/>
<path opacity="0.3" d="M108.847 133.913H116.736C117.692 133.903 118.614 134.262 119.31 134.917C120.007 135.572 120.422 136.47 120.471 137.425C120.495 137.281 120.51 137.137 120.516 136.991C120.55 136.483 120.477 135.972 120.304 135.493C120.131 135.013 119.861 134.574 119.51 134.204C119.16 133.834 118.736 133.54 118.267 133.341C117.797 133.142 117.292 133.042 116.782 133.047H108.893C107.83 133.058 106.811 133.471 106.04 134.202C105.269 134.934 104.804 135.931 104.739 136.991C104.739 137.137 104.739 137.283 104.739 137.425C104.902 136.45 105.404 135.564 106.155 134.923C106.906 134.281 107.859 133.923 108.847 133.913Z" fill="white"/>
<path d="M112.632 136.991C112.698 135.931 113.163 134.934 113.933 134.202C114.704 133.471 115.723 133.058 116.786 133.047C117.296 133.042 117.802 133.142 118.271 133.341C118.741 133.54 119.164 133.834 119.515 134.204C119.865 134.574 120.136 135.013 120.309 135.493C120.482 135.972 120.554 136.483 120.521 136.991C120.456 138.052 119.992 139.048 119.222 139.78C118.452 140.512 117.434 140.925 116.371 140.936C115.861 140.941 115.355 140.841 114.886 140.642C114.416 140.443 113.992 140.15 113.641 139.779C113.29 139.409 113.019 138.97 112.846 138.491C112.672 138.011 112.599 137.501 112.632 136.991Z" fill="#407BFF"/>
<path d="M109.253 85.728H152.304C152.868 85.7222 153.409 85.5032 153.819 85.115C154.228 84.7268 154.475 84.198 154.511 83.635C154.528 83.365 154.489 83.0944 154.397 82.84C154.304 82.5857 154.161 82.3531 153.975 82.1567C153.789 81.9604 153.564 81.8044 153.315 81.6986C153.066 81.5929 152.798 81.5395 152.527 81.5419H109.472C108.908 81.5478 108.368 81.7669 107.959 82.1553C107.55 82.5436 107.304 83.0723 107.269 83.635C107.251 83.9053 107.289 84.1765 107.381 84.4314C107.473 84.6864 107.616 84.9195 107.802 85.1162C107.989 85.3129 108.214 85.4688 108.464 85.5741C108.713 85.6794 108.982 85.7318 109.253 85.728Z" fill="white"/>
<path d="M109.472 82.4676H152.505C152.954 82.4637 153.392 82.6148 153.743 82.8955C154.094 83.1762 154.338 83.5694 154.434 84.0089C154.459 83.89 154.477 83.7697 154.488 83.6487C154.505 83.3786 154.466 83.108 154.374 82.8537C154.282 82.5994 154.138 82.3668 153.952 82.1704C153.766 81.974 153.541 81.8181 153.292 81.7123C153.043 81.6065 152.775 81.5532 152.505 81.5556H109.472C108.908 81.5615 108.368 81.7806 107.959 82.169C107.55 82.5573 107.304 83.086 107.269 83.6487C107.26 83.8358 107.278 84.0234 107.324 84.205C107.435 83.7162 107.707 83.2789 108.097 82.9636C108.486 82.6484 108.971 82.4737 109.472 82.4676Z" fill="#407BFF"/>
<path opacity="0.3" d="M109.472 82.4676H152.505C152.954 82.4637 153.392 82.6148 153.743 82.8955C154.094 83.1762 154.338 83.5694 154.434 84.0089C154.459 83.89 154.477 83.7697 154.488 83.6487C154.505 83.3786 154.466 83.108 154.374 82.8537C154.282 82.5994 154.138 82.3668 153.952 82.1704C153.766 81.974 153.541 81.8181 153.292 81.7123C153.043 81.6065 152.775 81.5532 152.505 81.5556H109.472C108.908 81.5615 108.368 81.7806 107.959 82.169C107.55 82.5573 107.304 83.086 107.269 83.6487C107.26 83.8358 107.278 84.0234 107.324 84.205C107.435 83.7162 107.707 83.2789 108.097 82.9636C108.486 82.6484 108.971 82.4737 109.472 82.4676Z" fill="white"/>
<path d="M119.804 86.3935C121.405 84.833 121.503 82.3352 120.022 80.8145C118.54 79.2937 116.041 79.326 114.439 80.8865C112.837 82.447 112.739 84.9448 114.221 86.4656C115.702 87.9863 118.202 87.954 119.804 86.3935Z" fill="#407BFF"/>
<path d="M151.552 134.566C151.564 134.369 151.536 134.173 151.469 133.988C151.402 133.803 151.298 133.634 151.163 133.492C151.027 133.349 150.864 133.236 150.683 133.16C150.502 133.083 150.307 133.045 150.111 133.047H137.406C136.997 133.052 136.605 133.211 136.309 133.493C136.012 133.774 135.832 134.157 135.806 134.566L135.551 139.417C135.538 139.614 135.566 139.81 135.633 139.995C135.7 140.18 135.804 140.349 135.94 140.491C136.075 140.634 136.238 140.747 136.419 140.823C136.6 140.9 136.795 140.938 136.991 140.936H149.696C150.105 140.931 150.497 140.772 150.794 140.49C151.09 140.209 151.27 139.826 151.296 139.417L151.552 134.566Z" fill="#407BFF"/>
<path d="M137.361 133.914H150.065C150.262 133.911 150.456 133.95 150.637 134.026C150.818 134.103 150.982 134.216 151.117 134.358C151.252 134.501 151.357 134.67 151.424 134.854C151.49 135.039 151.519 135.236 151.506 135.432L151.552 134.566C151.564 134.369 151.536 134.173 151.469 133.988C151.402 133.803 151.298 133.634 151.163 133.492C151.027 133.349 150.864 133.236 150.683 133.16C150.502 133.083 150.307 133.045 150.111 133.047H137.406C136.997 133.052 136.605 133.211 136.309 133.493C136.012 133.774 135.832 134.157 135.806 134.566L135.76 135.432C135.787 135.024 135.966 134.641 136.263 134.359C136.56 134.078 136.952 133.918 137.361 133.914Z" fill="#407BFF"/>
<path opacity="0.3" d="M137.361 133.914H150.065C150.262 133.911 150.456 133.95 150.637 134.026C150.818 134.103 150.982 134.216 151.117 134.358C151.252 134.501 151.357 134.67 151.424 134.854C151.49 135.039 151.519 135.236 151.506 135.432L151.552 134.566C151.564 134.369 151.536 134.173 151.469 133.988C151.402 133.803 151.298 133.634 151.163 133.492C151.027 133.349 150.864 133.236 150.683 133.16C150.502 133.083 150.307 133.045 150.111 133.047H137.406C136.997 133.052 136.605 133.211 136.309 133.493C136.012 133.774 135.832 134.157 135.806 134.566L135.76 135.432C135.787 135.024 135.966 134.641 136.263 134.359C136.56 134.078 136.952 133.918 137.361 133.914Z" fill="black"/>
<path d="M143.699 134.566C143.712 134.369 143.684 134.173 143.617 133.988C143.55 133.803 143.445 133.634 143.31 133.492C143.175 133.349 143.012 133.236 142.831 133.16C142.65 133.083 142.455 133.045 142.258 133.047H137.406C136.997 133.052 136.605 133.211 136.309 133.493C136.012 133.774 135.832 134.157 135.806 134.566L135.551 139.417C135.538 139.614 135.566 139.81 135.633 139.995C135.7 140.18 135.804 140.349 135.94 140.491C136.075 140.634 136.238 140.747 136.419 140.823C136.6 140.9 136.795 140.938 136.991 140.936H141.843C142.252 140.931 142.644 140.772 142.941 140.49C143.238 140.209 143.417 139.826 143.444 139.417L143.699 134.566Z" fill="white"/>
<path d="M140.329 138.328H138.779L138.92 135.656H140.471L140.329 138.328Z" fill="#407BFF"/>
<path d="M151.602 98.7195H108.574C108.01 98.7263 107.469 98.9457 107.06 99.3337C106.651 99.7217 106.403 100.25 106.367 100.813C106.349 101.083 106.387 101.354 106.479 101.608C106.571 101.863 106.715 102.096 106.901 102.292C107.088 102.489 107.312 102.645 107.562 102.75C107.811 102.856 108.079 102.909 108.35 102.906H151.392C151.956 102.901 152.497 102.682 152.906 102.293C153.315 101.905 153.561 101.376 153.595 100.813C153.612 100.542 153.574 100.27 153.481 100.015C153.388 99.7594 153.244 99.5261 153.057 99.3294C152.87 99.1328 152.644 98.977 152.393 98.8721C152.143 98.7671 151.873 98.7151 151.602 98.7195Z" fill="#407BFF"/>
<path opacity="0.3" d="M108.574 99.6315H151.602C152.051 99.6265 152.488 99.7766 152.84 100.057C153.191 100.337 153.435 100.729 153.531 101.168C153.561 101.052 153.579 100.933 153.585 100.813C153.603 100.542 153.565 100.271 153.473 100.017C153.381 99.7622 153.237 99.5293 153.051 99.3328C152.864 99.1363 152.64 98.9804 152.39 98.8748C152.141 98.7693 151.872 98.7164 151.602 98.7195H108.574C108.244 98.7124 107.918 98.7806 107.619 98.9189C107.32 99.0572 107.057 99.262 106.849 99.5176C106.642 99.7731 106.495 100.073 106.421 100.394C106.347 100.715 106.347 101.048 106.421 101.369C106.534 100.88 106.807 100.443 107.197 100.128C107.587 99.813 108.072 99.6382 108.574 99.6315Z" fill="black"/>
<path d="M144.926 104.757H141.629C141.333 104.76 141.04 104.702 140.768 104.587C140.495 104.472 140.249 104.303 140.045 104.089C139.841 103.875 139.683 103.622 139.58 103.345C139.478 103.067 139.433 102.772 139.449 102.477L139.623 99.18C139.665 98.5649 139.938 97.9885 140.387 97.5659C140.836 97.1432 141.427 96.9054 142.044 96.9H145.341C145.636 96.897 145.929 96.9548 146.201 97.0697C146.474 97.1846 146.719 97.3542 146.923 97.568C147.127 97.7817 147.285 98.0351 147.387 98.3124C147.489 98.5897 147.533 98.885 147.516 99.18L147.343 102.477C147.3 103.091 147.028 103.667 146.58 104.089C146.132 104.512 145.542 104.75 144.926 104.757Z" fill="white"/>
<path d="M144.36 102.149H142.81L142.951 99.4764H144.502L144.36 102.149Z" fill="#407BFF"/>
<path d="M76.5214 86.8954L70.6801 93.5074C71.1361 96.6629 72.0891 105.819 72.0891 105.819C71.2136 106.978 69.075 106.649 69.075 106.649C67.3286 102.3 66.6137 97.6049 66.9865 92.9328C67.3969 88.6601 72.878 80.256 76.7814 77.8848C77.4182 77.4993 78.108 77.209 78.8288 77.023L79.5994 76.9318L76.8634 87.096L76.5214 86.8954Z" fill="#407BFF"/>
<path opacity="0.6" d="M76.5214 86.8954L70.6801 93.5074C71.1361 96.6629 72.0891 105.819 72.0891 105.819C71.2136 106.978 69.075 106.649 69.075 106.649C67.3286 102.3 66.6137 97.6049 66.9865 92.9328C67.3969 88.6601 72.878 80.256 76.7814 77.8848C77.4182 77.4993 78.108 77.209 78.8288 77.023L79.5994 76.9318L76.8634 87.096L76.5214 86.8954Z" fill="black"/>
<path d="M71.7699 106.54L73.1835 108.049C73.2295 108.1 73.2651 108.158 73.2884 108.222L74.1183 110.557C74.1685 110.68 74.1685 110.817 74.1183 110.94L73.717 111.766C73.684 111.834 73.6355 111.894 73.5753 111.941C73.5152 111.988 73.4451 112.02 73.3704 112.035L70.484 112.632C70.4192 112.645 70.3525 112.645 70.2877 112.633C70.2229 112.62 70.1613 112.594 70.1066 112.557C70.0518 112.52 70.005 112.473 69.9687 112.417C69.9325 112.362 69.9077 112.3 69.8957 112.235L69.3394 109.162C69.3265 109.1 69.3265 109.037 69.3394 108.975L69.7224 107.005C69.742 106.907 69.7908 106.817 69.8625 106.747C69.9341 106.677 70.0251 106.63 70.1237 106.613L71.323 106.398C71.4034 106.383 71.4862 106.388 71.5641 106.413C71.6421 106.438 71.7128 106.481 71.7699 106.54Z" fill="#FAB27B"/>
<path d="M72.9873 106.193L68.4912 108.232L68.4319 106.056L72.5815 104.46L72.9873 106.193Z" fill="#407BFF"/>
<path opacity="0.5" d="M72.9873 106.193L68.4912 108.232L68.4319 106.056L72.5815 104.46L72.9873 106.193Z" fill="white"/>
<path d="M71.2455 114.237C68.5642 123.813 69.6996 137.949 68.2268 147.429C67.2144 153.959 60.2924 175.451 60.2924 175.451L66.4028 177.302C66.4028 177.302 74.0271 158.373 75.5228 152.733C77.9213 143.581 81.5237 126.216 81.5237 126.216C81.5237 126.216 82.8689 121.291 82.2579 120.744C81.6468 120.197 71.2455 114.237 71.2455 114.237Z" fill="#407BFF"/>
<path opacity="0.3" d="M77.9761 120.813L82.3947 122.244L80.7394 129.996C80.7394 129.996 81.5511 122.582 77.9761 120.813Z" fill="black"/>
<path d="M61.519 175.172L60.4246 178.643L63.3886 179.974L64.8569 176.29L61.519 175.172Z" fill="#FAB27B"/>
<path opacity="0.2" d="M60.8715 177.229L63.9996 178.437L64.4146 177.393L61.1268 176.422L60.8715 177.229Z" fill="black"/>
<path d="M60.3562 173.549L67.83 175.592L66.4757 178L59.9366 176.071L60.3562 173.549Z" fill="#407BFF"/>
<path opacity="0.5" d="M60.3562 173.549L67.83 175.592L66.4757 178L59.9366 176.071L60.3562 173.549Z" fill="white"/>
<path d="M64.0224 180.448C64.0074 180.438 63.9957 180.423 63.9885 180.406C63.9812 180.389 63.9788 180.371 63.9813 180.353C63.9849 180.335 63.9939 180.319 64.007 180.307C64.02 180.295 64.0366 180.287 64.0543 180.284C64.1227 180.284 65.6093 180.056 66.1291 180.444C66.1783 180.478 66.2201 180.522 66.2522 180.573C66.2843 180.624 66.306 180.681 66.3161 180.74C66.3334 180.807 66.3296 180.878 66.3051 180.942C66.2806 181.007 66.2366 181.062 66.1793 181.1C65.7997 181.193 65.3993 181.144 65.053 180.964C64.695 180.822 64.3502 180.65 64.0224 180.448ZM64.3325 180.448C64.9526 180.786 65.8327 181.123 66.0835 180.959C66.12 180.959 66.161 180.9 66.1382 180.772C66.1341 180.735 66.1212 180.7 66.1006 180.669C66.08 180.638 66.0522 180.612 66.0197 180.594C65.9758 180.559 65.9265 180.531 65.8738 180.512C65.3693 180.39 64.8462 180.365 64.3325 180.439V180.448Z" fill="#407BFF"/>
<path d="M63.9815 180.425C63.9735 180.412 63.9692 180.396 63.9692 180.38C63.9692 180.364 63.9735 180.348 63.9815 180.334C64.0043 180.293 64.4648 179.39 65.053 179.199C65.1369 179.17 65.2259 179.158 65.3144 179.164C65.403 179.171 65.4894 179.195 65.5683 179.235C65.7872 179.349 65.8146 179.491 65.7826 179.591C65.7051 180.01 64.5697 180.439 64.0818 180.462C64.07 180.466 64.057 180.466 64.0453 180.462C64.0325 180.462 64.0199 180.458 64.0088 180.452C63.9976 180.445 63.9882 180.436 63.9815 180.425ZM65.4406 179.372C65.3364 179.332 65.2212 179.332 65.1169 179.372C64.7352 179.578 64.4263 179.896 64.2323 180.284C64.7658 180.197 65.5501 179.828 65.6002 179.577C65.6002 179.554 65.6002 179.491 65.4726 179.418H65.4224L65.4406 179.372Z" fill="#407BFF"/>
<path d="M63.84 179.819L60.0324 178.328C59.9627 178.299 59.8853 178.295 59.813 178.317C59.7408 178.338 59.6782 178.384 59.6357 178.446L57.7342 181.278C57.653 181.398 57.6223 181.545 57.6488 181.688C57.6752 181.83 57.7567 181.957 57.8755 182.04L57.9804 182.094C59.3484 182.605 60.6115 183.006 62.3215 183.681C64.3371 184.475 63.7306 184.516 66.0881 185.478C67.5108 186.057 68.4091 184.534 67.8346 184.219C65.1989 182.783 65.24 181.83 64.556 180.421C64.4006 180.138 64.1453 179.923 63.84 179.819Z" fill="#263238"/>
<path d="M88.6829 178L88.7513 181.342L91.9843 181.652L92.1804 178H88.6829Z" fill="#FAB27B"/>
<path opacity="0.2" d="M92.0984 179.55L92.144 178.674L88.7012 178.816L88.724 179.837L92.0984 179.55Z" fill="black"/>
<path d="M71.2455 114.237C72.2578 109.413 76.298 105.117 76.298 105.117L91.802 106.111C91.802 106.111 92.7778 116.07 93.0058 119.399C93.4618 126.12 95.3497 136.558 95.3998 143.298C95.4682 152.418 93.3797 176.618 93.3797 176.618L87.5247 177.311C87.5247 177.311 87.6113 154.926 86.6537 146.485C85.9287 140.101 81.5602 122.564 81.5602 122.564C81.5602 122.564 69.5537 122.327 71.2455 114.237Z" fill="#407BFF"/>
<path d="M86.5123 176.367L94.2461 175.893L93.7399 178.606L86.9273 178.889L86.5123 176.367Z" fill="#407BFF"/>
<path opacity="0.5" d="M86.5123 176.367L94.2461 175.893L93.7399 178.606L86.9273 178.889L86.5123 176.367Z" fill="white"/>
<path d="M92.6865 181.885C92.6686 181.88 92.6525 181.87 92.6403 181.857C92.628 181.843 92.6203 181.826 92.6181 181.807C92.6146 181.79 92.6172 181.772 92.6255 181.756C92.6338 181.74 92.6473 181.728 92.6637 181.721C92.723 181.689 94.0591 180.991 94.6747 181.192C94.7906 181.224 94.8889 181.301 94.9483 181.406C94.9875 181.463 95.0085 181.531 95.0085 181.6C95.0085 181.669 94.9875 181.736 94.9483 181.794C94.6199 182.009 94.2236 182.095 93.8356 182.035C93.449 182.018 93.0646 181.967 92.6865 181.885ZM92.9783 181.775C93.6715 181.889 94.6154 181.921 94.8024 181.684C94.8297 181.657 94.8525 181.602 94.8024 181.493C94.7866 181.459 94.7631 181.429 94.7338 181.406C94.7045 181.383 94.6702 181.368 94.6336 181.36C94.5792 181.342 94.5222 181.333 94.4649 181.333C93.9456 181.383 93.4408 181.534 92.9783 181.775Z" fill="#407BFF"/>
<path d="M92.6365 181.876C92.6247 181.865 92.6153 181.853 92.609 181.839C92.6027 181.824 92.5996 181.809 92.6 181.794C92.6 181.748 92.7505 180.745 93.243 180.371C93.3124 180.316 93.3923 180.276 93.4778 180.253C93.5633 180.23 93.6525 180.225 93.74 180.239C93.9817 180.27 94.0546 180.398 94.0592 180.498C94.123 180.923 93.1928 181.702 92.7368 181.866C92.7313 181.87 92.725 181.871 92.7186 181.871C92.7122 181.871 92.7059 181.87 92.7003 181.866C92.6908 181.872 92.6803 181.876 92.6693 181.878C92.6584 181.879 92.6472 181.878 92.6365 181.876ZM93.6762 180.403C93.5628 180.399 93.4516 180.434 93.3615 180.503C93.0708 180.815 92.8816 181.208 92.8189 181.629C93.2749 181.374 93.9133 180.763 93.8996 180.508C93.8996 180.485 93.8996 180.421 93.7263 180.403H93.6762Z" fill="#407BFF"/>
<path d="M92.3218 181.347L88.2178 181.182C88.1427 181.18 88.0689 181.203 88.0085 181.248C87.948 181.292 87.9045 181.356 87.885 181.429L87.014 184.726C86.9954 184.795 86.9907 184.867 87.0001 184.939C87.0095 185.01 87.0329 185.079 87.0688 185.141C87.1048 185.203 87.1528 185.258 87.2099 185.302C87.267 185.345 87.3321 185.377 87.4016 185.396C87.4394 185.401 87.4777 185.401 87.5156 185.396C88.9885 185.428 90.3018 185.396 92.1394 185.473C94.3009 185.56 93.7446 185.797 96.289 185.929C97.8212 186.011 98.1678 184.279 97.5248 184.169C94.5608 183.677 94.2872 182.765 93.1837 181.657C92.9423 181.454 92.6368 181.344 92.3218 181.347Z" fill="#263238"/>
<path d="M87.4745 73.0876C87.2054 73.9494 86.5306 75.4041 87.4745 76.7037L82.8187 76.2477C82.8187 76.2477 83.3158 72.814 83.603 71.6877C83.79 70.9626 84.0317 70.1737 86.4804 70.8577C87.8849 71.2636 87.6569 72.5039 87.4745 73.0876Z" fill="#FAB27B"/>
<path d="M83.2747 71.8155C80.712 69.8364 75.2947 64.4739 80.4931 59.7907C84.8206 55.8919 88.7969 58.1719 90.1512 60.8076C91.6697 63.758 95.1125 71.6422 87.4745 73.0877C86.07 73.3522 84.6062 72.8415 83.2747 71.8155Z" fill="#FAB27B"/>
<path d="M79.613 76.4028C79.613 76.4028 83.2063 73.2473 90.0326 77.4105L89.9369 78.3864L79.6769 77.3923L79.613 76.4028Z" fill="#407BFF"/>
<path opacity="0.5" d="M79.613 76.4028C79.613 76.4028 83.2063 73.2473 90.0326 77.4105L89.9369 78.3864L79.6769 77.3923L79.613 76.4028Z" fill="white"/>
<path opacity="0.1" d="M86.4941 72.1575C86.4941 73.2108 86.8179 73.758 87.1964 74.0316C87.2667 73.7108 87.3597 73.3954 87.4745 73.0877C86.558 72.6864 86.4941 72.1575 86.4941 72.1575Z" fill="black"/>
<path d="M89.2301 77.2875C87.7525 76.972 86.2593 76.7345 84.7568 76.5761C82.112 76.266 80.0919 76.0608 78.6327 76.7038C76.3071 77.7298 76.0107 78.3864 76.0107 78.3864L76.4667 85.9241C76.8294 89.5607 76.895 93.2208 76.6628 96.8681C76.6628 96.9 76.4804 104.05 72.618 107.89C74.2236 109.192 76.1246 110.08 78.1539 110.475L80.3336 105.259L81.0221 110.731C81.0221 110.731 88.8699 113.056 95.3451 110.908C95.3451 110.908 91.802 105.245 92.942 99.4536C93.4937 96.6675 93.895 95.3496 94.2051 93.1608C94.3839 91.9805 94.3839 90.7799 94.2051 89.5995L92.7504 79.6587C92.7504 79.6587 90.1786 77.52 89.2301 77.2875Z" fill="#407BFF"/>
<path opacity="0.6" d="M89.2301 77.2875C87.7525 76.972 86.2593 76.7345 84.7568 76.5761C82.112 76.266 80.0919 76.0608 78.6327 76.7038C76.3071 77.7298 76.0107 78.3864 76.0107 78.3864L76.4667 85.9241C76.8294 89.5607 76.895 93.2208 76.6628 96.8681C76.6628 96.9 76.4804 104.05 72.618 107.89C74.2236 109.192 76.1246 110.08 78.1539 110.475L80.3336 105.259L81.0221 110.731C81.0221 110.731 88.8699 113.056 95.3451 110.908C95.3451 110.908 91.802 105.245 92.942 99.4536C93.4937 96.6675 93.895 95.3496 94.2051 93.1608C94.3839 91.9805 94.3839 90.7799 94.2051 89.5995L92.7504 79.6587C92.7504 79.6587 90.1786 77.52 89.2301 77.2875Z" fill="black"/>
<path d="M93.74 95.9834C93.9269 94.9756 94.0911 94.0271 94.196 93.1835C94.3748 92.0031 94.3748 90.8025 94.196 89.6222L92.1121 87.2783C92.1121 87.2783 94.1185 90.0964 93.74 95.9834Z" fill="black"/>
<path d="M112.349 85.2719L113.79 81.1679C113.818 81.0853 113.877 81.0166 113.954 80.9764L116.212 79.8227C116.273 79.7937 116.341 79.783 116.408 79.7919C116.475 79.8008 116.539 79.8289 116.59 79.8729L118.2 81.2865C118.263 81.3428 118.303 81.421 118.312 81.5055C118.32 81.5901 118.297 81.6747 118.245 81.7425L116.581 83.9313C116.562 83.9565 116.547 83.9841 116.535 84.0134C116.408 84.3371 115.55 86.3846 113.726 86.8953L113.658 86.9226L113.047 87.2464C112.973 87.2917 112.884 87.3065 112.799 87.2878C112.714 87.2691 112.639 87.2184 112.591 87.1461L111.811 86.0562C111.782 86.0155 111.762 85.9687 111.753 85.9193C111.744 85.8699 111.746 85.8191 111.759 85.7705C111.772 85.722 111.796 85.6771 111.829 85.6389C111.861 85.6008 111.902 85.5704 111.948 85.5501L112.153 85.4543C112.197 85.4402 112.238 85.4165 112.272 85.385C112.306 85.3535 112.332 85.3149 112.349 85.2719Z" fill="#FAB27B"/>
<path d="M89.1891 77.2828C91.9204 77.9567 94.3158 79.5958 95.9333 81.8976C97.9631 84.46 100.256 86.8029 102.773 88.888C102.773 88.888 108.045 87.7663 111.369 84.8889L113.321 87.8027C113.321 87.8027 105.313 93.8402 102.053 93.5255C99.2712 93.2565 94.2005 89.6359 94.2005 89.6359L92.112 87.292L89.1891 77.2828Z" fill="#407BFF"/>
<path opacity="0.6" d="M89.1891 77.2828C91.9204 77.9567 94.3158 79.5958 95.9333 81.8976C97.9631 84.46 100.256 86.8029 102.773 88.888C102.773 88.888 108.045 87.7663 111.369 84.8889L113.321 87.8027C113.321 87.8027 105.313 93.8402 102.053 93.5255C99.2712 93.2565 94.2005 89.6359 94.2005 89.6359L92.112 87.292L89.1891 77.2828Z" fill="black"/>
<path d="M111.551 84.5242L114.479 88.1585L112.518 88.6783L110.183 85.2629L111.551 84.5242Z" fill="#407BFF"/>
<path opacity="0.5" d="M111.551 84.5242L114.479 88.1585L112.518 88.6783L110.183 85.2629L111.551 84.5242Z" fill="white"/>
<path d="M92.0527 67.1095V68.5231L93.0058 68.3909L92.0527 67.1095Z" fill="#E07F50"/>
<path d="M84.5789 75.5728C82.3856 75.7963 75.9149 75.924 76.6856 71.177C77.4562 66.4301 76.4074 64.0771 78.4184 60.7346C80.4293 57.3921 84.62 56.4163 88.3911 57.4058C91.5329 58.2266 91.7883 60.4245 90.9356 61.7469C90.0828 63.0693 89.6998 63.3156 89.8503 64.2549C90.0008 65.1943 89.4308 65.7187 89.1845 66.161C88.9133 66.4798 88.5691 66.7285 88.1813 66.886C88.0118 67.8087 88.0697 68.7587 88.35 69.654C88.806 71.3913 89.7363 75.0393 84.5789 75.5728Z" fill="black"/>
<path d="M87.4974 57.456C88.5516 57.5652 89.5782 57.8601 90.5298 58.327C91.273 58.71 92.0163 59.28 92.185 60.151C92.4267 61.405 91.4554 62.5951 90.6848 63.4615C90.5617 63.6029 90.7988 63.767 90.9174 63.6302C92.2854 62.0981 93.3433 59.9458 91.3369 58.4774C90.1964 57.7283 88.8851 57.2797 87.5247 57.1733C87.4872 57.1696 87.4498 57.1811 87.4208 57.205C87.3917 57.2289 87.3733 57.2635 87.3697 57.301C87.3661 57.3384 87.3775 57.3758 87.4014 57.4049C87.4254 57.434 87.4599 57.4524 87.4974 57.456Z" fill="black"/>
<path d="M78.432 60.7073C76.9865 62.5815 76.9181 65.0302 76.608 67.2646C76.4028 68.8423 74.6244 71.9203 75.883 73.4069C76.0016 73.5483 76.2296 73.3704 76.111 73.2291C75.2492 72.2122 76.111 70.7165 76.4028 69.6631C76.6788 68.6275 76.8664 67.5704 76.9637 66.5031C77.1598 64.5924 77.4197 62.4583 78.6464 60.8806C78.7604 60.7347 78.5278 60.5614 78.4138 60.7073H78.432Z" fill="black"/>
<path d="M91.0723 64.4191C91.0449 64.4784 91.0951 64.3735 91.1042 64.3598C91.1323 64.3052 91.1676 64.2546 91.2091 64.2093C91.2718 64.1337 91.3556 64.0785 91.4499 64.0509C91.5441 64.0233 91.6445 64.0244 91.7381 64.0543C91.9113 64.0953 91.9843 63.8309 91.811 63.7898C91.6045 63.739 91.3863 63.7681 91.2003 63.8712C91.0143 63.9744 90.8741 64.144 90.8078 64.3461C90.7394 64.5057 91.0039 64.5787 91.0723 64.4191Z" fill="black"/>
<path d="M89.9506 66.4984C90.2424 67.374 89.9506 68.2586 89.3259 68.4729C88.7011 68.6873 87.9579 68.1492 87.6387 67.2691C87.3195 66.389 87.6387 65.5089 88.2634 65.2946C88.8881 65.0803 89.6542 65.6184 89.9506 66.4984Z" fill="#FAB27B"/>
<path d="M92.1121 64.296C92.0711 64.6243 91.7519 64.6927 91.5877 64.7201C91.4236 64.7475 91.4099 64.9344 91.4418 65.1761C91.4737 65.4178 91.5877 65.5911 91.6972 65.5728C91.8066 65.5546 91.875 65.3585 91.8476 65.1168C91.8361 65.0512 91.8178 64.9871 91.7929 64.9253C92.3082 64.6152 92.1121 64.296 92.1121 64.296Z" fill="black"/>
</svg>
