<svg width="16" height="16" viewBox="0 0 16 16" fill="none" xmlns="http://www.w3.org/2000/svg">
<path d="M15.1156 0H0.884375C0.39375 0 0 0.39375 0 0.884375V15.1187C0 15.6062 0.39375 16 0.884375 16H8.54688V9.80313H6.4625V7.3875H8.54688V5.60625C8.54688 3.54062 9.80937 2.41563 11.6531 2.41563C12.5375 2.41563 13.2937 2.48125 13.5156 2.50938V4.66875H12.2375C11.2344 4.66875 11.0406 5.14375 11.0406 5.84375V7.38438H13.4312L13.1187 9.8H11.0375V16H15.1156C15.6031 16 16 15.6031 16 15.1156V0.884375C16 0.39375 15.6031 0 15.1156 0Z" fill="#0050C8"/>
</svg>
