<svg width="16" height="14" viewBox="0 0 16 14" fill="none" xmlns="http://www.w3.org/2000/svg">
<path d="M15.9688 2.06165C15.3811 2.3219 14.7497 2.49752 14.0871 2.57577C14.7633 2.17174 15.2835 1.53114 15.528 0.768584C14.8947 1.1426 14.1939 1.41467 13.4474 1.56118C12.8497 0.926015 11.9983 0.529297 11.0556 0.529297C9.246 0.529297 7.77952 1.99251 7.77952 3.79606C7.77952 4.05177 7.80872 4.30107 7.86439 4.54042C5.14133 4.40392 2.72761 3.10358 1.11145 1.12717C0.829474 1.60948 0.667945 2.17087 0.667945 2.76965C0.667945 3.90348 1.2465 4.90352 2.12532 5.48861C1.58781 5.47132 1.08317 5.3248 0.641497 5.08004C0.641497 5.0937 0.641497 5.10732 0.641497 5.121C0.641497 6.70433 1.77123 8.0238 3.26968 8.32404C2.99499 8.39865 2.70572 8.43871 2.40639 8.43871C2.19559 8.43871 1.99024 8.41778 1.7895 8.37959C2.20653 9.67719 3.41661 10.6226 4.85025 10.6481C3.72872 11.5244 2.31607 12.0467 0.781162 12.0467C0.516491 12.0467 0.255532 12.0312 0 12.0012C1.45007 12.9285 3.17205 13.469 5.02272 13.469C11.0493 13.469 14.3445 8.49058 14.3445 4.17371C14.3445 4.03174 14.3408 3.89163 14.3353 3.75149C14.9741 3.29195 15.5299 2.71687 15.9688 2.06168L15.9688 2.06165Z" fill="#0050C8"/>
</svg>
